<?xml version="1.0" encoding="UTF-8"?>
<svg id="Layer_1" xmlns="http://www.w3.org/2000/svg" version="1.1" viewBox="0 0 17 16">
  <!-- Generator: Adobe Illustrator 29.2.0, SVG Export Plug-In . SVG Version: 2.1.0 Build 22)  -->
  <defs>
    <style>
      .st0 {
        fill: none;
        stroke: #8a9bca;
        stroke-linecap: round;
        stroke-linejoin: round;
      }

      .st1 {
        display: none;
        fill: #8a9bca;
        fill-rule: evenodd;
      }
    </style>
  </defs>
  <path class="st0" d="M2.6,6.5v7.9c0,.1,0,.3.2.4.1.1.2.2.4.2h3.2v-4.6c0-.2,0-.4.2-.6.2-.2.4-.2.6-.2h2.7c.2,0,.4,0,.6.2.2.2.2.4.2.6v4.6h3.2c.1,0,.3,0,.4-.2.1-.1.2-.2.2-.4v-7.9"/>
  <path class="st0" d="M13.3,5.4V1.6h-1.6v2.3M16,8L8.9,1.2c-.2-.2-.6-.2-.7,0L1,8h15Z"/>
  <path class="st1" d="M6.3,2.6c0-.2.2-.3.3-.3h.6c.2,0,.3.2.3.4l-.4,2.2h3.8l.4-2.3c0-.2.2-.3.3-.3h.6c.2,0,.3.2.3.4l-.4,2.2h1.7c.2,0,.3.1.3.3v.6c0,.2-.1.3-.3.3h-1.9l-.7,3.8h2.6c.2,0,.3.1.3.3v.6c0,.2-.1.3-.3.3h-2.8l-.4,2.1c0,.2-.2.3-.3.3h-.6c-.2,0-.3-.2-.3-.4l.4-2h-3.8l-.4,2.1c0,.2-.2.3-.3.3h-.6c-.2,0-.3-.2-.3-.4l.4-2h-1.6c-.2,0-.3-.1-.3-.3v-.6c0-.2.1-.3.3-.3h1.9l.7-3.8h-2.6c-.2,0-.3-.1-.3-.3v-.6c0-.2.1-.3.3-.3h2.8l.4-2.3ZM10,10l.7-3.8h-3.8l-.7,3.8h3.8Z"/>
</svg>