<?xml version="1.0" encoding="UTF-8"?>
<svg id="Layer_1" xmlns="http://www.w3.org/2000/svg" version="1.1" viewBox="0 0 33 33">
  <!-- Generator: Adobe Illustrator 29.2.0, SVG Export Plug-In . SVG Version: 2.1.0 Build 22)  -->
  <defs>
    <style>
      .st0 {
        fill: #fff;
      }

      .st1 {
        fill: #fdfdfd;
        fill-rule: evenodd;
        isolation: isolate;
        opacity: .1;
      }
    </style>
  </defs>
  <path class="st1" d="M0,16.5C0,7.4,7.4,0,16.5,0s16.5,7.4,16.5,16.5-7.4,16.5-16.5,16.5S0,25.6,0,16.5Z"/>
  <path class="st0" d="M14.5,11c0,0,.2.3.1.3-1.1.2-2.1.7-2.9,1.4l-.3.2.9-.5c2.7-1.2,5.7-1.2,8.4,0s.5.3.8.4,0,0,0,0l-.2-.2c-.4-.3-.7-.6-1.1-.8s-1.2-.5-1.8-.7c0,0,.1-.3.2-.3h0c1.1,0,2.1.5,3,1.1s.4.2.5.4c.2.3.5.9.6,1.2.8,1.9,1.2,4,1.4,6s0,.2,0,.2l-.3.4c-.9.9-2.2,1.5-3.5,1.6s-.4,0-.6,0,0,0,0,0c-.2-.2-.3-.5-.5-.7h0c.9-.4,1.8-.9,2.5-1.6s.2-.2.2-.2,0,0,0-.1l-.8.5c-2,1.1-4.8,1.4-7.1.8s-2.1-.7-2.9-1.4c0,0,0,0,0,0,.5.6,1.1,1,1.8,1.4s.7.4,1.1.5h0s-.5.8-.5.8h0c-.6,0-1.1-.1-1.7-.3-1.1-.3-2.1-.9-2.8-1.8.2-2.3.6-4.6,1.6-6.7s.3-.6.5-.8.3-.2.4-.3c.8-.5,1.8-.9,2.7-1.1s.3,0,.3,0,0,0,0,0ZM15.1,18.2c.8-.9.2-2.6-1.1-2.3s-1.1,1.3-.8,2,1.3,1,1.9.3ZM19.5,16.2c-.8-.8-1.8-.2-2,.8s.6,1.9,1.5,1.5,1.1-1.7.4-2.3ZM21.9,19.3h0s0,0,0,0Z"/>
</svg>