<?xml version="1.0" encoding="UTF-8"?>
<svg id="Layer_1" xmlns="http://www.w3.org/2000/svg" version="1.1" viewBox="0 0 33 33">
  <!-- Generator: Adobe Illustrator 29.2.0, SVG Export Plug-In . SVG Version: 2.1.0 Build 22)  -->
  <defs>
    <style>
      .st0 {
        display: none;
      }

      .st0, .st1, .st2 {
        fill: #fdfdfd;
      }

      .st0, .st2 {
        fill-rule: evenodd;
      }

      .st2 {
        isolation: isolate;
        opacity: .1;
      }
    </style>
  </defs>
  <path class="st2" d="M0,16.5C0,7.4,7.4,0,16.5,0s16.5,7.4,16.5,16.5-7.4,16.5-16.5,16.5S0,25.6,0,16.5Z"/>
  <g id="Layer_2">
    <path class="st1" d="M23,11.3l-2.4,9.8c-.1.5-.6.7-1,.5l-3-1.5-1.4,2.3c-.4.6-1.4.4-1.4-.4v-2.6c0-.2,0-.4.2-.5l5.8-5.6c0,0,0-.1-.2,0l-7,4.8-2.3-1.2c-.5-.3-.5-1.1,0-1.3l11.5-5c.6-.2,1.1.3,1,.8Z"/>
  </g>
  <path class="st0" d="M16.5,7.7c-2.4,0-2.7,0-3.6,0-.9,0-1.6.2-2.1.4-.6.2-1.1.5-1.6,1-.5.5-.8,1-1,1.6-.2.6-.4,1.2-.4,2.1,0,.9,0,1.2,0,3.6s0,2.7,0,3.6c0,.9.2,1.6.4,2.1.2.6.5,1.1,1,1.6.5.5,1,.8,1.6,1,.6.2,1.2.4,2.1.4.9,0,1.2,0,3.6,0s2.7,0,3.6,0c.9,0,1.6-.2,2.1-.4.6-.2,1.1-.5,1.6-1,.5-.5.8-1,1-1.6.2-.6.4-1.2.4-2.1,0-.9,0-1.2,0-3.6s0-2.7,0-3.6c0-.9-.2-1.6-.4-2.1-.2-.6-.5-1.1-1-1.6-.5-.5-1-.8-1.6-1-.6-.2-1.2-.4-2.1-.4-.9,0-1.2,0-3.6,0h0ZM15.7,9.3c.2,0,.5,0,.8,0,2.3,0,2.6,0,3.6,0,.9,0,1.3.2,1.6.3.4.2.7.4,1,.7.3.3.5.6.7,1,.1.3.3.8.3,1.6,0,.9,0,1.2,0,3.6s0,2.6,0,3.6c0,.9-.2,1.3-.3,1.6-.2.4-.4.7-.7,1-.3.3-.6.5-1,.7-.3.1-.8.3-1.6.3-.9,0-1.2,0-3.6,0s-2.6,0-3.6,0c-.9,0-1.3-.2-1.6-.3-.4-.2-.7-.4-1-.7-.3-.3-.5-.6-.7-1-.1-.3-.3-.8-.3-1.6,0-.9,0-1.2,0-3.6s0-2.6,0-3.6c0-.9.2-1.3.3-1.6.2-.4.4-.7.7-1,.3-.3.6-.5,1-.7.3-.1.8-.3,1.6-.3.8,0,1.1,0,2.8,0h0ZM21.2,10.7c-.6,0-1.1.5-1.1,1.1s.5,1.1,1.1,1.1,1.1-.5,1.1-1.1-.5-1.1-1.1-1.1ZM16.5,12c-2.5,0-4.5,2-4.5,4.5s2,4.5,4.5,4.5,4.5-2,4.5-4.5-2-4.5-4.5-4.5ZM16.5,13.6c1.6,0,2.9,1.3,2.9,2.9s-1.3,2.9-2.9,2.9-2.9-1.3-2.9-2.9,1.3-2.9,2.9-2.9Z"/>
</svg>