<?xml version="1.0" encoding="UTF-8"?>
<svg xmlns="http://www.w3.org/2000/svg" viewBox="0 0 2085 1181">
  <defs>
    <style>
      .cls-1 {
        fill: #fff;
      }

      .cls-2 {
        fill: #1595aa;
      }

      .cls-3 {
        fill: #0080a5;
      }

      .cls-4 {
        fill: #48bed8;
      }
    </style>
  </defs>
  <g id="Layer_3" data-name="Layer 3">
    <g>
      <path class="cls-1" d="M1710.89,492.27c14.12.22,28.24.45,42.37.67,27.57,70.16,55.14,140.33,82.72,210.49h-56.49c-4.03-10.31-8.07-20.62-12.1-30.93h-71.28c-4.48,10.31-8.97,20.62-13.45,30.93-18.61-.22-37.21-.45-55.82-.67,28.02-70.16,56.04-140.33,84.06-210.49ZM1731.07,558.17c-6.95,23.54-13.9,47.07-20.85,70.61,14.12.22,28.24.45,42.37.67-5.08-23.95-13.19-49.77-21.52-71.28Z"/>
      <path class="cls-1" d="M812.45,488.24c47.37-3.03,101.58,27.38,113.65,74.65-19.5.22-39,.45-58.51.67-44.34-63.54-126.81-8.96-100.2,61.2,17.06,44.99,86.02,48.73,103.56,2.69-20.4-.22-40.8-.45-61.2-.67l-2.02-2.02c.22-13.67.45-27.35.67-41.02,41.47.22,82.94.45,124.41.67,5.55,144.93-176,159.98-216.54,53.8-27.08-70.93,21.02-145.15,96.17-149.96Z"/>
      <path class="cls-1" d="M1858.84,492.27c38.33.22,76.66.45,114.99.67-.22,15.47-.45,30.93-.67,46.4-20.85.22-41.69.45-62.54.67.22,11.88.45,23.76.67,35.64,19.95.22,39.9.45,59.85.67v45.73c-20.17.45-40.35.9-60.52,1.34v78.01l-2.02,2.02c-16.81-.22-33.62-.45-50.44-.67.22-70.16.45-140.33.67-210.49Z"/>
      <path class="cls-1" d="M1205.18,488.24c89.5-5.54,150.04,87.59,104.24,166.1-55.41,94.97-215.86,53.13-207.13-63.21,4.07-54.23,48.34-99.51,102.89-102.89ZM1210.56,535.31c-69.49,2.43-70.77,114.57-8.07,123.74,88.26,12.9,89.57-126.59,8.07-123.74Z"/>
      <path class="cls-1" d="M961.74,492.27c38.78.22,77.56.45,116.34.67-.22,15.47-.45,30.93-.67,46.4h-63.21l-2.02,2.02c.22,10.09.45,20.17.67,30.26h61.87l2.02,2.02v44.38l-2.02,2.02h-61.87c-.22,11.43-.45,22.86-.67,34.3l2.02,2.02h63.21v47.07c-38.78-.22-77.56-.45-116.34-.67.22-70.16.45-140.33.67-210.49Z"/>
      <g>
        <path class="cls-1" d="M1355.82,492.27c17.71.22,35.42.45,53.13.67v162.74c20.85.22,41.69.45,62.54.67.22,15.02.45,30.04.67,45.06-.67.67-1.34,1.34-2.02,2.02-38.33-.22-76.66-.45-114.99-.67.22-70.16.45-140.33.67-210.49Z"/>
        <path class="cls-1" d="M1493.01,492.27c38.78.22,77.56.45,116.34.67-.22,15.47-.45,30.93-.67,46.4-21.74.22-43.49.45-65.23.67.22,10.54.45,21.07.67,31.61h61.87c.67.67,1.34,1.34,2.02,2.02v44.38c-.67.67-1.34,1.34-2.02,2.02h-61.87c-.22,11.43-.45,22.86-.67,34.3.67.67,1.34,1.34,2.02,2.02h63.21v47.07c-38.78-.22-77.56-.45-116.34-.67.22-70.16.45-140.33.67-210.49Z"/>
      </g>
    </g>
  </g>
  <g id="Layer_7" data-name="Layer 7">
    <g>
      <path class="cls-1" d="M406.97,389.11c7.33-.69,14.58,1.87,20.12,6.51,27.25-12.63,45.34,22.81,49.99,44.67,19.34-6.35,44.15,24.95,48.52,42.01,2.66.69,5.32,1.38,7.99,2.07,8.82,3.82,46.95,43.9,55.91,58.28,15.07,24.17,21.09,58.18,10.65,85.2-17.12,44.3-117.57,132.05-155.61,170.4-4.09,4.12-9.96,12.94-15.09,15.09-15.17,6.34-33.27-5.39-34.02-21.6-1.4-2.64-6.05-.29-14.5-6.8-7.45-5.74-29.55-28.88-27.51-39.94-4.44-.69-8.87-1.38-13.31-2.07-10.42-3.86-22.54-21.15-24.55-32.25-9.67.62-41.8-32.47-49.11-40.82-7.06-8.07-18.24-23.48-22.48-33.13-8.95-20.33-11.5-48.73-4.14-69.82,13.52-38.76,81.36-98.73,112.12-128.68,14-14.4,28-28.79,42.01-43.19,3.24-2.66,8.9-5.53,13.02-5.92ZM406.08,410.41c-.2.2-.39.39-.59.59-11.14,11.44-22.29,22.88-33.43,34.32-28.53,27.8-113.09,101.24-117.44,138.74-3.6,31,8.54,53.62,28.4,75.73,9.57,9.37,19.13,18.74,28.7,28.1.69.2,1.38.39,2.07.59.39.27,2.21,4.94,7.99,3.55,1.28-1.28,2.56-2.56,3.85-3.85.65-2.56-4.08-30.23-2.37-52.66,4.93-64.45,54.13-99.92,76.32-156.2,5.54-14.06,14.17-47.06,14.79-61.53.21-4.93.96-11.71-6.21-9.76-.69.79-1.38,1.58-2.07,2.37ZM349.29,725.17c5.29-3.01,10.49-45.55,13.02-54.73,13.49-49.03,60.86-88.46,82.83-134.31,12.87-26.85,21.83-64.86,13.61-94.07-1.83-6.5-9.04-22.99-14.79-26.33-.2-.39-.39-.79-.59-1.18-.93-1.22-5.43-4.35-6.51-2.66-.38,31.24,3.34,47.72-6.51,78.69-21.65,68.1-94.88,114.03-99.4,188.15-.79,12.99.54,28.24,8.28,39.05,1.66,2.32,7.41,8.9,10.06,7.4ZM385.97,762.44c15.12,14.62,8.36,12.9,13.02-12.13,14.27-76.7,78.75-116.13,101.76-179.86,8.59-23.78,15.72-70.8,2.37-92.89-1.83-3.03-9.9-13.01-13.02-13.9-.2-.2-.39-.39-.59-.59-.97-1.13-5.89-6.34-7.1-4.44,4.3,58.94-.2,86.19-33.13,134.31-30.85,45.07-64.47,70.49-74.55,128.39-4.28,24.56-6.21,24.25,11.24,41.12ZM524.12,501.53c-2.96.7.74,20.17.89,23.96,2.35,58.73-15,96.79-47.92,143.18-13.72,19.33-33.38,41.44-44.97,62.12-6.2,11.07-31.56,62.86-10.95,65.38,38.11-44.1,129.54-118.23,155.9-164.78,8.88-15.68,10.85-29.08,8.87-47.33-1.87-17.27-15.89-37.52-27.22-50.29-10.55-10.35-21.1-20.71-31.65-31.06-.99-.39-1.97-.79-2.96-1.18Z"/>
      <g>
        <path class="cls-4" d="M489.51,463.07c.2.2.39.39.59.59,7.88,9.88,10.73,25.78,11.24,38.16,4.58,109.92-94.8,144.85-111.82,241.39-1.16,6.59-.8,18.73-3.55,19.23-17.45-16.87-15.52-16.56-11.24-41.12,10.08-57.9,43.7-83.32,74.55-128.39,32.93-48.11,37.43-75.36,33.13-134.31,1.21-1.9,6.13,3.31,7.1,4.44Z"/>
        <path class="cls-3" d="M490.1,463.66c-.2-.2-.39-.39-.59-.59.2.2.39.39.59.59Z"/>
        <path class="cls-2" d="M385.97,762.44c2.75-.5,2.39-12.64,3.55-19.23,17.03-96.54,116.41-131.47,111.82-241.39-.52-12.38-3.36-28.28-11.24-38.16,3.12.89,11.18,10.87,13.02,13.9,13.35,22.09,6.22,69.11-2.37,92.89-23.01,63.73-87.5,103.16-101.76,179.86-4.66,25.03,2.1,26.75-13.02,12.13Z"/>
      </g>
      <path class="cls-4" d="M524.12,501.53c.99.39,1.97.79,2.96,1.18,10.55,10.35,21.1,20.71,31.65,31.06,11.32,12.77,25.35,33.02,27.22,50.29,1.98,18.25,0,31.65-8.87,47.33-26.36,46.55-117.8,120.68-155.9,164.78-20.61-2.52,4.75-54.31,10.95-65.38,11.58-20.69,31.25-42.8,44.97-62.12,32.92-46.39,50.28-84.45,47.92-143.18-.15-3.79-3.85-23.27-.89-23.96Z"/>
      <g>
        <path class="cls-2" d="M313.79,688.49c4.81-.05.31-16.26,0-23.37-4.2-94.93,49.3-115.82,78.69-184,5.75-13.35,12.39-34.83,14.79-49.11,1.78-10.57,4.16-22.29-1.18-21.6.69-.79,1.38-1.58,2.07-2.37,7.17-1.95,6.42,4.83,6.21,9.76-.62,14.47-9.25,47.48-14.79,61.53-22.19,56.27-71.39,91.74-76.32,156.2-1.72,22.42,3.01,50.1,2.37,52.66-1.28,1.28-2.56,2.56-3.85,3.85-5.78,1.39-7.59-3.28-7.99-3.55Z"/>
        <path class="cls-3" d="M405.49,411c.2-.2.39-.39.59-.59-.2.2-.39.39-.59.59Z"/>
        <path class="cls-4" d="M313.79,688.49c-.69-.2-1.38-.39-2.07-.59-9.57-9.37-19.13-18.74-28.7-28.1-19.86-22.11-32-44.74-28.4-75.73,4.35-37.5,88.92-110.94,117.44-138.74,11.14-11.44,22.29-22.88,33.43-34.32.2-.2.39-.39.59-.59,5.34-.69,2.96,11.03,1.18,21.6-2.4,14.28-9.04,35.76-14.79,49.11-29.39,68.18-82.89,89.08-78.69,184,.31,7.11,4.81,23.32,0,23.37Z"/>
      </g>
      <g>
        <path class="cls-4" d="M443.36,414.55c.2.39.39.79.59,1.18,9.3,14.9,10.37,50.35,8.28,67.74-11.98,99.96-114.59,134.99-102.95,241.69-2.65,1.51-8.4-5.07-10.06-7.4-7.74-10.81-9.07-26.06-8.28-39.05,4.51-74.12,77.75-120.05,99.4-188.15,9.85-30.97,6.13-47.45,6.51-78.69,1.08-1.69,5.57,1.44,6.51,2.66Z"/>
        <path class="cls-3" d="M443.95,415.74c-.2-.39-.39-.79-.59-1.18.2.39.39.79.59,1.18Z"/>
        <path class="cls-2" d="M349.29,725.17c-11.64-106.7,90.97-141.73,102.95-241.69,2.08-17.39,1.02-52.85-8.28-67.74,5.75,3.34,12.96,19.82,14.79,26.33,8.23,29.21-.74,67.23-13.61,94.07-21.97,45.84-69.34,85.27-82.83,134.31-2.53,9.18-7.72,51.71-13.02,54.73Z"/>
      </g>
    </g>
  </g>
</svg>