<?xml version="1.0" encoding="UTF-8"?>
<svg id="Layer_1" data-name="Layer 1" xmlns="http://www.w3.org/2000/svg" viewBox="0 0 201 64">
  <defs>
    <style>
      .cls-1 {
        fill: #fff;
      }

      .cls-2 {
        fill: #1595aa;
      }

      .cls-3 {
        fill: #48bed8;
      }
    </style>
  </defs>
  <g>
    <path class="cls-1" d="M168.95,19.1h5c3.3,8.3,6.5,16.6,9.8,25h-6.7c-.5-1.2-1-2.4-1.4-3.7h-8.5c-.5,1.2-1.1,2.4-1.6,3.7h-6.6c3.3-8.3,6.6-16.6,10-25ZM171.35,26.9c-.8,2.8-1.6,5.6-2.5,8.4h5c-.6-2.8-1.6-5.9-2.6-8.5l.1.1Z"/>
    <path class="cls-1" d="M62.35,18.6c5.6-.4,12,3.2,13.5,8.9h-6.9c-5.3-7.5-15-1.1-11.9,7.3,2,5.3,10.2,5.8,12.3.3h-7.3l-.2-.2v-4.9h14.8c.7,17.2-20.9,19-25.7,6.4-3.2-8.4,2.5-17.2,11.4-17.8Z"/>
    <path class="cls-1" d="M186.45,19.1h13.6v5.5h-7.4v4.2h7.1v5.4c-2.4,0-4.8.1-7.2.2v9.3l-.2.2h-6v-25l.1.2Z"/>
    <path class="cls-1" d="M108.95,18.6c10.6-.7,17.8,10.4,12.4,19.7-6.6,11.3-25.6,6.3-24.6-7.5.5-6.4,5.7-11.8,12.2-12.2ZM109.65,24.2c-8.2.3-8.4,13.6-1,14.7,10.5,1.5,10.6-15,1-14.7Z"/>
    <path class="cls-1" d="M80.05,19.1h13.8v5.5h-7.5l-.2.2v3.6h7.3l.2.2v5.3l-.2.2h-7.3v4.1l.2.2h7.5v5.6h-13.8v-25,.1Z"/>
    <g>
      <path class="cls-1" d="M126.85,19.1h6.3v19.3h7.4v5.3l-.2.2h-13.6v-25l.1.2Z"/>
      <path class="cls-1" d="M143.05,19.1h13.8v5.5h-7.7v3.7h7.3l.2.2v5.3l-.2.2h-7.3v4.1l.2.2h7.5v5.6h-13.8v-25,.2Z"/>
    </g>
  </g>
  <g>
    <path class="cls-1" d="M21.75,6.8c.9,0,1.7.2,2.4.8,3.2-1.5,5.4,2.7,5.9,5.3,2.3-.8,5.2,3,5.8,5,.3,0,.6.2.9.2,1,.5,5.6,5.2,6.6,6.9,1.8,2.9,2.5,6.9,1.3,10.1-2,5.3-13.9,15.7-18.5,20.2-.5.5-1.2,1.5-1.8,1.8-1.8.8-3.9-.6-4-2.6-.2-.3-.7,0-1.7-.8-.9-.7-3.5-3.4-3.3-4.7-.5,0-1.1-.2-1.6-.2-1.2-.5-2.7-2.5-2.9-3.8-1.1,0-5-3.9-5.8-4.8-.8-1-2.2-2.8-2.7-3.9-1.1-2.4-1.4-5.8-.5-8.3,1.6-4.6,9.6-11.7,13.3-15.3,1.7-1.7,3.3-3.4,5-5.1.4-.3,1.1-.7,1.5-.7l.1-.1ZM21.65,9.4h0c-1.3,1.4-2.6,2.7-4,4.1-3.4,3.3-13.4,12-13.9,16.5-.4,3.7,1,6.4,3.4,9,1.1,1.1,2.3,2.2,3.4,3.3h.2s.3.6.9.4c.2-.2.3-.3.5-.5,0-.3-.5-3.6-.3-6.2.6-7.6,6.4-11.8,9.1-18.5.7-1.7,1.7-5.6,1.8-7.3,0-.6.1-1.4-.7-1.2,0,0-.2.2-.2.3l-.2.1ZM14.95,46.7c.6-.4,1.2-5.4,1.5-6.5,1.6-5.8,7.2-10.5,9.8-15.9,1.5-3.2,2.6-7.7,1.6-11.2-.2-.8-1.1-2.7-1.8-3.1v-.1c-.1-.1-.6-.5-.8-.3,0,3.7.4,5.7-.8,9.3-2.6,8.1-11.3,13.5-11.8,22.3,0,1.5,0,3.3,1,4.6.2.3.9,1.1,1.2.9h.1ZM19.25,51.1c1.8,1.7,1,1.5,1.5-1.4,1.7-9.1,9.3-13.8,12.1-21.3,1-2.8,1.9-8.4.3-11-.2-.4-1.2-1.5-1.5-1.6h0c-.1-.1-.7-.8-.8-.5.5,7,0,10.2-3.9,15.9-3.7,5.3-7.6,8.4-8.8,15.2-.5,2.9-.7,2.9,1.3,4.9l-.2-.2ZM35.65,20.2c-.4,0,0,2.4.1,2.8.3,7-1.8,11.5-5.7,17-1.6,2.3-4,4.9-5.3,7.4-.7,1.3-3.7,7.5-1.3,7.8,4.5-5.2,15.4-14,18.5-19.5,1.1-1.9,1.3-3.4,1.1-5.6-.2-2-1.9-4.4-3.2-6-1.3-1.2-2.5-2.5-3.8-3.7-.1,0-.2,0-.4-.1v-.1Z"/>
    <g>
      <path class="cls-3" d="M31.55,15.6h0c.9,1.2,1.3,3.1,1.3,4.5.5,13-11.2,17.2-13.3,28.6-.1.8,0,2.2-.4,2.3-2.1-2-1.8-2-1.3-4.9,1.2-6.9,5.2-9.9,8.8-15.2,3.9-5.7,4.4-8.9,3.9-15.9.1-.2.7.4.8.5l.2.1Z"/>
      <path class="cls-2" d="M19.25,51.1c.3,0,.3-1.5.4-2.3,2-11.4,13.8-15.6,13.3-28.6,0-1.5-.4-3.4-1.3-4.5.4.1,1.3,1.3,1.5,1.6,1.6,2.6.7,8.2-.3,11-2.7,7.6-10.4,12.2-12.1,21.3-.6,3,.2,3.2-1.5,1.4v.1Z"/>
    </g>
    <path class="cls-3" d="M35.65,20.2c.1,0,.2,0,.4.1,1.3,1.2,2.5,2.5,3.8,3.7,1.3,1.5,3,3.9,3.2,6,.2,2.2,0,3.8-1.1,5.6-3.1,5.5-14,14.3-18.5,19.5-2.4-.3.6-6.4,1.3-7.8,1.4-2.5,3.7-5.1,5.3-7.4,3.9-5.5,6-10,5.7-17,0-.4-.5-2.8-.1-2.8v.1Z"/>
    <g>
      <path class="cls-2" d="M10.75,42.3c.6,0,0-1.9,0-2.8-.5-11.3,5.8-13.7,9.3-21.8.7-1.6,1.5-4.1,1.8-5.8.2-1.3.5-2.6-.1-2.6,0,0,.2-.2.2-.3.9-.2.8.6.7,1.2,0,1.7-1.1,5.6-1.8,7.3-2.6,6.7-8.5,10.9-9.1,18.5-.2,2.7.4,5.9.3,6.2-.2.2-.3.3-.5.5-.7.2-.9-.4-.9-.4h.1Z"/>
      <path class="cls-3" d="M10.75,42.3h-.2c-1.1-1.1-2.3-2.2-3.4-3.3-2.4-2.6-3.8-5.3-3.4-9,.5-4.4,10.5-13.2,13.9-16.5,1.3-1.4,2.6-2.7,4-4.1h0c.6,0,.4,1.3.1,2.6-.3,1.7-1.1,4.2-1.8,5.8-3.5,8.1-9.8,10.6-9.3,21.8,0,.8.6,2.8,0,2.8l.1-.1Z"/>
    </g>
    <g>
      <path class="cls-3" d="M26.05,9.8v.1c1.1,1.8,1.2,6,1,8-1.4,11.9-13.6,16-12.2,28.7-.3.2-1-.6-1.2-.9-.9-1.3-1.1-3.1-1-4.6.5-8.8,9.2-14.2,11.8-22.3,1.2-3.7.7-5.6.8-9.3.1-.2.7.2.8.3Z"/>
      <path class="cls-2" d="M14.95,46.7c-1.4-12.7,10.8-16.8,12.2-28.7.2-2.1.1-6.3-1-8,.7.4,1.5,2.4,1.8,3.1,1,3.5,0,8-1.6,11.2-2.6,5.4-8.2,10.1-9.8,15.9-.3,1.1-.9,6.1-1.5,6.5h-.1Z"/>
    </g>
  </g>
</svg>