<?xml version="1.0" encoding="UTF-8"?>
<svg id="Layer_1" xmlns="http://www.w3.org/2000/svg" version="1.1" xmlns:xlink="http://www.w3.org/1999/xlink" viewBox="0 0 105 59">
  <!-- Generator: Adobe Illustrator 29.2.0, SVG Export Plug-In . SVG Version: 2.1.0 Build 22)  -->
  <defs>
    <style>
      .st0 {
        fill: url(#linear-gradient1);
      }

      .st0, .st1, .st2, .st3 {
        fill-rule: evenodd;
      }

      .st1 {
        fill: url(#linear-gradient3);
      }

      .st2 {
        fill: url(#linear-gradient);
      }

      .st3 {
        fill: url(#linear-gradient2);
      }
    </style>
    <linearGradient id="linear-gradient" x1="-39" y1="55.8" x2="67.4" y2="55.8" gradientTransform="translate(0 60) scale(1 -1)" gradientUnits="userSpaceOnUse">
      <stop offset="0" stop-color="#767ffe"/>
      <stop offset="1" stop-color="#49bdd9"/>
    </linearGradient>
    <linearGradient id="linear-gradient1" x1="-22.1" y1="38.9" x2="84.3" y2="38.9" gradientTransform="translate(0 60) scale(1 -1)" gradientUnits="userSpaceOnUse">
      <stop offset="0" stop-color="#767ffe"/>
      <stop offset="1" stop-color="#49bdd9"/>
    </linearGradient>
    <linearGradient id="linear-gradient2" x1="-5.3" y1="22.1" x2="101.2" y2="22.1" gradientTransform="translate(0 60) scale(1 -1)" gradientUnits="userSpaceOnUse">
      <stop offset="0" stop-color="#7680fd"/>
      <stop offset="1" stop-color="#48bed8"/>
    </linearGradient>
    <linearGradient id="linear-gradient3" x1="-39" y1="5.2" x2="67.4" y2="5.2" gradientTransform="translate(0 60) scale(1 -1)" gradientUnits="userSpaceOnUse">
      <stop offset="0" stop-color="#7680fd"/>
      <stop offset="1" stop-color="#48bdd8"/>
    </linearGradient>
  </defs>
  <path class="st2" d="M-30.6,4.2c0,2.3-1.9,4.2-4.2,4.2s-4.2-1.9-4.2-4.2,1.9-4.2,4.2-4.2,4.2,1.9,4.2,4.2ZM-13.7,4.2c0,2.3-1.9,4.2-4.2,4.2s-4.2-1.9-4.2-4.2,1.9-4.2,4.2-4.2,4.2,1.9,4.2,4.2ZM-1.1,8.4c2.3,0,4.2-1.9,4.2-4.2S1.3,0-1.1,0s-4.2,1.9-4.2,4.2,1.9,4.2,4.2,4.2ZM20,4.2c0,2.3-1.9,4.2-4.2,4.2s-4.2-1.9-4.2-4.2S13.5,0,15.8,0s4.2,1.9,4.2,4.2ZM32.6,8.4c2.3,0,4.2-1.9,4.2-4.2s-1.9-4.2-4.2-4.2-4.2,1.9-4.2,4.2,1.9,4.2,4.2,4.2ZM53.7,4.2c0,2.3-1.9,4.2-4.2,4.2s-4.2-1.9-4.2-4.2,1.9-4.2,4.2-4.2,4.2,1.9,4.2,4.2ZM66.4,8.4c2.3,0,4.2-1.9,4.2-4.2s-1.9-4.2-4.2-4.2-4.2,1.9-4.2,4.2,1.9,4.2,4.2,4.2Z"/>
  <path class="st0" d="M3.1,21.1c0,2.3-1.9,4.2-4.2,4.2s-4.2-1.9-4.2-4.2,1.9-4.2,4.2-4.2,4.2,1.9,4.2,4.2ZM-13.7,21.1c0,2.3-1.9,4.2-4.2,4.2s-4.2-1.9-4.2-4.2,1.9-4.2,4.2-4.2,4.2,1.9,4.2,4.2ZM15.8,25.3c2.3,0,4.2-1.9,4.2-4.2s-1.9-4.2-4.2-4.2-4.2,1.9-4.2,4.2,1.9,4.2,4.2,4.2ZM36.9,21.1c0,2.3-1.9,4.2-4.2,4.2s-4.2-1.9-4.2-4.2,1.9-4.2,4.2-4.2,4.2,1.9,4.2,4.2ZM49.5,25.3c2.3,0,4.2-1.9,4.2-4.2s-1.9-4.2-4.2-4.2-4.2,1.9-4.2,4.2,1.9,4.2,4.2,4.2ZM70.6,21.1c0,2.3-1.9,4.2-4.2,4.2s-4.2-1.9-4.2-4.2,1.9-4.2,4.2-4.2,4.2,1.9,4.2,4.2ZM83.2,25.3c2.3,0,4.2-1.9,4.2-4.2s-1.9-4.2-4.2-4.2-4.2,1.9-4.2,4.2,1.9,4.2,4.2,4.2Z"/>
  <path class="st3" d="M20,37.9c0,2.3-1.9,4.2-4.2,4.2s-4.2-1.9-4.2-4.2,1.9-4.2,4.2-4.2,4.2,1.9,4.2,4.2ZM3.1,37.9c0,2.3-1.9,4.2-4.2,4.2s-4.2-1.9-4.2-4.2,1.9-4.2,4.2-4.2,4.2,1.9,4.2,4.2ZM32.6,42.1c2.3,0,4.2-1.9,4.2-4.2s-1.9-4.2-4.2-4.2-4.2,1.9-4.2,4.2,1.9,4.2,4.2,4.2ZM53.7,37.9c0,2.3-1.9,4.2-4.2,4.2s-4.2-1.9-4.2-4.2,1.9-4.2,4.2-4.2,4.2,1.9,4.2,4.2ZM66.4,42.1c2.3,0,4.2-1.9,4.2-4.2s-1.9-4.2-4.2-4.2-4.2,1.9-4.2,4.2,1.9,4.2,4.2,4.2ZM87.4,37.9c0,2.3-1.9,4.2-4.2,4.2s-4.2-1.9-4.2-4.2,1.9-4.2,4.2-4.2,4.2,1.9,4.2,4.2ZM100.1,42.1c2.3,0,4.2-1.9,4.2-4.2s-1.9-4.2-4.2-4.2-4.2,1.9-4.2,4.2,1.9,4.2,4.2,4.2Z"/>
  <path class="st1" d="M-13.7,54.8c0,2.3-1.9,4.2-4.2,4.2s-4.2-1.9-4.2-4.2,1.9-4.2,4.2-4.2,4.2,1.9,4.2,4.2ZM-30.6,54.8c0,2.3-1.9,4.2-4.2,4.2s-4.2-1.9-4.2-4.2,1.9-4.2,4.2-4.2,4.2,1.9,4.2,4.2ZM-1.1,59c2.3,0,4.2-1.9,4.2-4.2s-1.9-4.2-4.2-4.2-4.2,1.9-4.2,4.2,1.9,4.2,4.2,4.2ZM20,54.8c0,2.3-1.9,4.2-4.2,4.2s-4.2-1.9-4.2-4.2,1.9-4.2,4.2-4.2,4.2,1.9,4.2,4.2ZM32.6,59c2.3,0,4.2-1.9,4.2-4.2s-1.9-4.2-4.2-4.2-4.2,1.9-4.2,4.2,1.9,4.2,4.2,4.2ZM53.7,54.8c0,2.3-1.9,4.2-4.2,4.2s-4.2-1.9-4.2-4.2,1.9-4.2,4.2-4.2,4.2,1.9,4.2,4.2ZM66.4,59c2.3,0,4.2-1.9,4.2-4.2s-1.9-4.2-4.2-4.2-4.2,1.9-4.2,4.2,1.9,4.2,4.2,4.2Z"/>
</svg>