<?xml version="1.0" encoding="UTF-8"?>
<svg xmlns="http://www.w3.org/2000/svg" version="1.1" xmlns:xlink="http://www.w3.org/1999/xlink" viewBox="0 0 2010 423">
  <!-- Generator: Adobe Illustrator 29.2.0, SVG Export Plug-In . SVG Version: 2.1.0 Build 22)  -->
  <defs>
    <style>
      .st0 {
        fill: url(#linear-gradient25);
      }

      .st0, .st1, .st2, .st3, .st4, .st5, .st6, .st7, .st8, .st9, .st10, .st11, .st12, .st13, .st14, .st15, .st16, .st17, .st18, .st19, .st20, .st21, .st22, .st23, .st24, .st25, .st26, .st27 {
        fill-rule: evenodd;
      }

      .st1 {
        fill: url(#linear-gradient14);
      }

      .st2 {
        fill: url(#linear-gradient9);
      }

      .st28 {
        fill: #8ab5f0;
      }

      .st3 {
        fill: url(#linear-gradient10);
      }

      .st4 {
        fill: url(#linear-gradient13);
      }

      .st5 {
        fill: url(#linear-gradient24);
      }

      .st29 {
        fill: #6ca2ed;
      }

      .st30 {
        fill: #a4c5f4;
      }

      .st31 {
        fill: #6ba1ed;
      }

      .st32 {
        fill: #71a5ee;
      }

      .st33 {
        fill: #6da2ed;
      }

      .st34 {
        fill: #fff;
      }

      .st6 {
        fill: url(#linear-gradient6);
      }

      .st35 {
        fill: #75a7ee;
      }

      .st36 {
        fill: #88b3f0;
      }

      .st37 {
        fill: #89b4f1;
      }

      .st7 {
        fill: url(#linear-gradient17);
      }

      .st8 {
        fill: url(#linear-gradient21);
      }

      .st38 {
        fill: #69a0ed;
      }

      .st9 {
        fill: url(#linear-gradient18);
      }

      .st10 {
        fill: url(#linear-gradient27);
      }

      .st11 {
        fill: url(#linear-gradient8);
      }

      .st39 {
        fill: #6ea3ed;
      }

      .st40 {
        fill: #a9c8f4;
      }

      .st12 {
        fill: url(#linear-gradient15);
      }

      .st13 {
        fill: url(#linear-gradient5);
      }

      .st14 {
        fill: url(#linear-gradient1);
      }

      .st41 {
        fill: #a6c7f4;
      }

      .st15 {
        fill: url(#linear-gradient20);
      }

      .st16 {
        fill: url(#linear-gradient11);
      }

      .st42 {
        fill: #6fa4ed;
      }

      .st17 {
        fill: url(#linear-gradient7);
      }

      .st43 {
        fill: #8db7f1;
      }

      .st44 {
        display: none;
      }

      .st18 {
        fill: url(#linear-gradient16);
      }

      .st45 {
        fill: #a7c7f4;
      }

      .st19 {
        fill: url(#linear-gradient26);
      }

      .st46 {
        fill: #a6c6f4;
      }

      .st47 {
        fill: #70a5ee;
      }

      .st48 {
        fill: #8ab5f1;
      }

      .st20 {
        fill: url(#linear-gradient4);
      }

      .st21 {
        fill: url(#linear-gradient23);
      }

      .st22 {
        fill: url(#linear-gradient12);
      }

      .st49 {
        opacity: .7;
      }

      .st50 {
        fill: #a5c6f4;
      }

      .st23 {
        fill: url(#linear-gradient19);
      }

      .st24 {
        fill: url(#linear-gradient3);
      }

      .st25 {
        fill: url(#linear-gradient);
      }

      .st51 {
        fill: #6ba0ed;
      }

      .st52 {
        opacity: .5;
      }

      .st53 {
        fill: #6da3ed;
      }

      .st54 {
        fill: #a9c9f4;
      }

      .st26 {
        fill: url(#linear-gradient22);
      }

      .st27 {
        fill: url(#linear-gradient2);
      }
    </style>
    <linearGradient id="linear-gradient" x1="345" y1="421.5" x2="408.1" y2="421.5" gradientTransform="translate(0 424) scale(1 -1)" gradientUnits="userSpaceOnUse">
      <stop offset="0" stop-color="#bd24df"/>
      <stop offset="1" stop-color="#2d6ade"/>
    </linearGradient>
    <linearGradient id="linear-gradient1" x1="355" y1="411.5" x2="418.1" y2="411.5" gradientTransform="translate(0 424) scale(1 -1)" gradientUnits="userSpaceOnUse">
      <stop offset="0" stop-color="#bd24df"/>
      <stop offset="1" stop-color="#2d6ade"/>
    </linearGradient>
    <linearGradient id="linear-gradient2" x1="365" y1="401.5" x2="428.1" y2="401.5" gradientTransform="translate(0 424) scale(1 -1)" gradientUnits="userSpaceOnUse">
      <stop offset="0" stop-color="#bd24df"/>
      <stop offset="1" stop-color="#2d6ade"/>
    </linearGradient>
    <linearGradient id="linear-gradient3" x1="345" y1="391.5" x2="408.1" y2="391.5" gradientTransform="translate(0 424) scale(1 -1)" gradientUnits="userSpaceOnUse">
      <stop offset="0" stop-color="#bd24df"/>
      <stop offset="1" stop-color="#2d6ade"/>
    </linearGradient>
    <linearGradient id="linear-gradient4" x1="0" y1="175.8" x2="106.4" y2="175.8" gradientTransform="translate(0 424) scale(1 -1)" gradientUnits="userSpaceOnUse">
      <stop offset="0" stop-color="#bd24df"/>
      <stop offset="1" stop-color="#2d6ade"/>
    </linearGradient>
    <linearGradient id="linear-gradient5" x1="16.9" y1="158.9" x2="123.3" y2="158.9" gradientTransform="translate(0 424) scale(1 -1)" gradientUnits="userSpaceOnUse">
      <stop offset="0" stop-color="#bd24df"/>
      <stop offset="1" stop-color="#2d6ade"/>
    </linearGradient>
    <linearGradient id="linear-gradient6" x1="33.7" y1="142.1" x2="140.2" y2="142.1" gradientTransform="translate(0 424) scale(1 -1)" gradientUnits="userSpaceOnUse">
      <stop offset="0" stop-color="#bd24df"/>
      <stop offset="1" stop-color="#2d6ade"/>
    </linearGradient>
    <linearGradient id="linear-gradient7" x1="0" y1="125.2" x2="106.4" y2="125.2" gradientTransform="translate(0 424) scale(1 -1)" gradientUnits="userSpaceOnUse">
      <stop offset="0" stop-color="#bd24df"/>
      <stop offset="1" stop-color="#2d6ade"/>
    </linearGradient>
    <linearGradient id="linear-gradient8" x1="1076" y1="310.8" x2="1182.4" y2="310.8" gradientTransform="translate(0 424) scale(1 -1)" gradientUnits="userSpaceOnUse">
      <stop offset="0" stop-color="#bd24df"/>
      <stop offset="1" stop-color="#2d6ade"/>
    </linearGradient>
    <linearGradient id="linear-gradient9" x1="1092.9" y1="293.9" x2="1199.3" y2="293.9" gradientTransform="translate(0 424) scale(1 -1)" gradientUnits="userSpaceOnUse">
      <stop offset="0" stop-color="#bd24df"/>
      <stop offset="1" stop-color="#2d6ade"/>
    </linearGradient>
    <linearGradient id="linear-gradient10" x1="1109.7" y1="277.1" x2="1216.2" y2="277.1" gradientTransform="translate(0 424) scale(1 -1)" gradientUnits="userSpaceOnUse">
      <stop offset="0" stop-color="#bd24df"/>
      <stop offset="1" stop-color="#2d6ade"/>
    </linearGradient>
    <linearGradient id="linear-gradient11" x1="1076" y1="260.2" x2="1182.4" y2="260.2" gradientTransform="translate(0 424) scale(1 -1)" gradientUnits="userSpaceOnUse">
      <stop offset="0" stop-color="#bd24df"/>
      <stop offset="1" stop-color="#2d6ade"/>
    </linearGradient>
    <linearGradient id="linear-gradient12" x1="1076" y1="55.8" x2="1182.4" y2="55.8" gradientTransform="translate(0 424) scale(1 -1)" gradientUnits="userSpaceOnUse">
      <stop offset="0" stop-color="#bd24df"/>
      <stop offset="1" stop-color="#2d6ade"/>
    </linearGradient>
    <linearGradient id="linear-gradient13" x1="1092.9" y1="38.9" x2="1199.3" y2="38.9" gradientTransform="translate(0 424) scale(1 -1)" gradientUnits="userSpaceOnUse">
      <stop offset="0" stop-color="#bd24df"/>
      <stop offset="1" stop-color="#2d6ade"/>
    </linearGradient>
    <linearGradient id="linear-gradient14" x1="1109.7" y1="22.1" x2="1216.2" y2="22.1" gradientTransform="translate(0 424) scale(1 -1)" gradientUnits="userSpaceOnUse">
      <stop offset="0" stop-color="#bd24df"/>
      <stop offset="1" stop-color="#2d6ade"/>
    </linearGradient>
    <linearGradient id="linear-gradient15" x1="1076" y1="5.2" x2="1182.4" y2="5.2" gradientTransform="translate(0 424) scale(1 -1)" gradientUnits="userSpaceOnUse">
      <stop offset="0" stop-color="#bd24df"/>
      <stop offset="1" stop-color="#2d6ade"/>
    </linearGradient>
    <linearGradient id="linear-gradient16" x1="1654" y1="251.8" x2="1760.4" y2="251.8" gradientTransform="translate(0 424) scale(1 -1)" gradientUnits="userSpaceOnUse">
      <stop offset="0" stop-color="#bd24df"/>
      <stop offset="1" stop-color="#2d6ade"/>
    </linearGradient>
    <linearGradient id="linear-gradient17" x1="1670.9" y1="234.9" x2="1777.3" y2="234.9" gradientTransform="translate(0 424) scale(1 -1)" gradientUnits="userSpaceOnUse">
      <stop offset="0" stop-color="#bd24df"/>
      <stop offset="1" stop-color="#2d6ade"/>
    </linearGradient>
    <linearGradient id="linear-gradient18" x1="1687.7" y1="218.1" x2="1794.2" y2="218.1" gradientTransform="translate(0 424) scale(1 -1)" gradientUnits="userSpaceOnUse">
      <stop offset="0" stop-color="#bd24df"/>
      <stop offset="1" stop-color="#2d6ade"/>
    </linearGradient>
    <linearGradient id="linear-gradient19" x1="1654" y1="201.2" x2="1760.4" y2="201.2" gradientTransform="translate(0 424) scale(1 -1)" gradientUnits="userSpaceOnUse">
      <stop offset="0" stop-color="#bd24df"/>
      <stop offset="1" stop-color="#2d6ade"/>
    </linearGradient>
    <linearGradient id="linear-gradient20" x1="1616" y1="78.8" x2="1722.4" y2="78.8" gradientTransform="translate(0 424) scale(1 -1)" gradientUnits="userSpaceOnUse">
      <stop offset="0" stop-color="#bd24df"/>
      <stop offset="1" stop-color="#2d6ade"/>
    </linearGradient>
    <linearGradient id="linear-gradient21" x1="1632.9" y1="61.9" x2="1739.3" y2="61.9" gradientTransform="translate(0 424) scale(1 -1)" gradientUnits="userSpaceOnUse">
      <stop offset="0" stop-color="#bd24df"/>
      <stop offset="1" stop-color="#2d6ade"/>
    </linearGradient>
    <linearGradient id="linear-gradient22" x1="1649.7" y1="45.1" x2="1756.2" y2="45.1" gradientTransform="translate(0 424) scale(1 -1)" gradientUnits="userSpaceOnUse">
      <stop offset="0" stop-color="#bd24df"/>
      <stop offset="1" stop-color="#2d6ade"/>
    </linearGradient>
    <linearGradient id="linear-gradient23" x1="1616" y1="28.2" x2="1722.4" y2="28.2" gradientTransform="translate(0 424) scale(1 -1)" gradientUnits="userSpaceOnUse">
      <stop offset="0" stop-color="#bd24df"/>
      <stop offset="1" stop-color="#2d6ade"/>
    </linearGradient>
    <linearGradient id="linear-gradient24" x1="1866" y1="176.8" x2="1972.4" y2="176.8" gradientTransform="translate(0 424) scale(1 -1)" gradientUnits="userSpaceOnUse">
      <stop offset="0" stop-color="#bd24df"/>
      <stop offset="1" stop-color="#2d6ade"/>
    </linearGradient>
    <linearGradient id="linear-gradient25" x1="1882.9" y1="159.9" x2="1989.3" y2="159.9" gradientTransform="translate(0 424) scale(1 -1)" gradientUnits="userSpaceOnUse">
      <stop offset="0" stop-color="#bd24df"/>
      <stop offset="1" stop-color="#2d6ade"/>
    </linearGradient>
    <linearGradient id="linear-gradient26" x1="1899.7" y1="143.1" x2="2006.2" y2="143.1" gradientTransform="translate(0 424) scale(1 -1)" gradientUnits="userSpaceOnUse">
      <stop offset="0" stop-color="#bd24df"/>
      <stop offset="1" stop-color="#2d6ade"/>
    </linearGradient>
    <linearGradient id="linear-gradient27" x1="1866" y1="126.2" x2="1972.4" y2="126.2" gradientTransform="translate(0 424) scale(1 -1)" gradientUnits="userSpaceOnUse">
      <stop offset="0" stop-color="#bd24df"/>
      <stop offset="1" stop-color="#2d6ade"/>
    </linearGradient>
  </defs>
  <g id="Layer_1" class="st44">
    <rect class="st34" width="2010" height="423"/>
    <path class="st25" d="M350,2.5c0,1.4-1.1,2.5-2.5,2.5s-2.5-1.1-2.5-2.5,1.1-2.5,2.5-2.5,2.5,1.1,2.5,2.5ZM360,2.5c0,1.4-1.1,2.5-2.5,2.5s-2.5-1.1-2.5-2.5,1.1-2.5,2.5-2.5,2.5,1.1,2.5,2.5ZM367.5,5c1.4,0,2.5-1.1,2.5-2.5s-1.1-2.5-2.5-2.5-2.5,1.1-2.5,2.5,1.1,2.5,2.5,2.5ZM380,2.5c0,1.4-1.1,2.5-2.5,2.5s-2.5-1.1-2.5-2.5,1.1-2.5,2.5-2.5,2.5,1.1,2.5,2.5ZM387.5,5c1.4,0,2.5-1.1,2.5-2.5s-1.1-2.5-2.5-2.5-2.5,1.1-2.5,2.5,1.1,2.5,2.5,2.5ZM400,2.5c0,1.4-1.1,2.5-2.5,2.5s-2.5-1.1-2.5-2.5,1.1-2.5,2.5-2.5,2.5,1.1,2.5,2.5ZM407.5,5c1.4,0,2.5-1.1,2.5-2.5s-1.1-2.5-2.5-2.5-2.5,1.1-2.5,2.5,1.1,2.5,2.5,2.5Z"/>
    <path class="st14" d="M360,12.5c0,1.4-1.1,2.5-2.5,2.5s-2.5-1.1-2.5-2.5,1.1-2.5,2.5-2.5,2.5,1.1,2.5,2.5ZM370,12.5c0,1.4-1.1,2.5-2.5,2.5s-2.5-1.1-2.5-2.5,1.1-2.5,2.5-2.5,2.5,1.1,2.5,2.5ZM377.5,15c1.4,0,2.5-1.1,2.5-2.5s-1.1-2.5-2.5-2.5-2.5,1.1-2.5,2.5,1.1,2.5,2.5,2.5ZM390,12.5c0,1.4-1.1,2.5-2.5,2.5s-2.5-1.1-2.5-2.5,1.1-2.5,2.5-2.5,2.5,1.1,2.5,2.5ZM397.5,15c1.4,0,2.5-1.1,2.5-2.5s-1.1-2.5-2.5-2.5-2.5,1.1-2.5,2.5,1.1,2.5,2.5,2.5ZM410,12.5c0,1.4-1.1,2.5-2.5,2.5s-2.5-1.1-2.5-2.5,1.1-2.5,2.5-2.5,2.5,1.1,2.5,2.5ZM417.5,15c1.4,0,2.5-1.1,2.5-2.5s-1.1-2.5-2.5-2.5-2.5,1.1-2.5,2.5,1.1,2.5,2.5,2.5Z"/>
    <path class="st27" d="M370,22.5c0,1.4-1.1,2.5-2.5,2.5s-2.5-1.1-2.5-2.5,1.1-2.5,2.5-2.5,2.5,1.1,2.5,2.5ZM380,22.5c0,1.4-1.1,2.5-2.5,2.5s-2.5-1.1-2.5-2.5,1.1-2.5,2.5-2.5,2.5,1.1,2.5,2.5ZM387.5,25c1.4,0,2.5-1.1,2.5-2.5s-1.1-2.5-2.5-2.5-2.5,1.1-2.5,2.5,1.1,2.5,2.5,2.5ZM400,22.5c0,1.4-1.1,2.5-2.5,2.5s-2.5-1.1-2.5-2.5,1.1-2.5,2.5-2.5,2.5,1.1,2.5,2.5ZM407.5,25c1.4,0,2.5-1.1,2.5-2.5s-1.1-2.5-2.5-2.5-2.5,1.1-2.5,2.5,1.1,2.5,2.5,2.5ZM420,22.5c0,1.4-1.1,2.5-2.5,2.5s-2.5-1.1-2.5-2.5,1.1-2.5,2.5-2.5,2.5,1.1,2.5,2.5ZM427.5,25c1.4,0,2.5-1.1,2.5-2.5s-1.1-2.5-2.5-2.5-2.5,1.1-2.5,2.5,1.1,2.5,2.5,2.5Z"/>
    <path class="st24" d="M350,32.5c0,1.4-1.1,2.5-2.5,2.5s-2.5-1.1-2.5-2.5,1.1-2.5,2.5-2.5,2.5,1.1,2.5,2.5ZM360,32.5c0,1.4-1.1,2.5-2.5,2.5s-2.5-1.1-2.5-2.5,1.1-2.5,2.5-2.5,2.5,1.1,2.5,2.5ZM367.5,35c1.4,0,2.5-1.1,2.5-2.5s-1.1-2.5-2.5-2.5-2.5,1.1-2.5,2.5,1.1,2.5,2.5,2.5ZM380,32.5c0,1.4-1.1,2.5-2.5,2.5s-2.5-1.1-2.5-2.5,1.1-2.5,2.5-2.5,2.5,1.1,2.5,2.5ZM387.5,35c1.4,0,2.5-1.1,2.5-2.5s-1.1-2.5-2.5-2.5-2.5,1.1-2.5,2.5,1.1,2.5,2.5,2.5ZM400,32.5c0,1.4-1.1,2.5-2.5,2.5s-2.5-1.1-2.5-2.5,1.1-2.5,2.5-2.5,2.5,1.1,2.5,2.5ZM407.5,35c1.4,0,2.5-1.1,2.5-2.5s-1.1-2.5-2.5-2.5-2.5,1.1-2.5,2.5,1.1,2.5,2.5,2.5Z"/>
    <path class="st20" d="M8.4,248.2c0,2.3-1.9,4.2-4.2,4.2s-4.2-1.9-4.2-4.2,1.9-4.2,4.2-4.2,4.2,1.9,4.2,4.2ZM25.3,248.2c0,2.3-1.9,4.2-4.2,4.2s-4.2-1.9-4.2-4.2,1.9-4.2,4.2-4.2,4.2,1.9,4.2,4.2ZM37.9,252.4c2.3,0,4.2-1.9,4.2-4.2s-1.9-4.2-4.2-4.2-4.2,1.9-4.2,4.2,1.9,4.2,4.2,4.2ZM59,248.2c0,2.3-1.9,4.2-4.2,4.2s-4.2-1.9-4.2-4.2,1.9-4.2,4.2-4.2,4.2,1.9,4.2,4.2ZM71.6,252.4c2.3,0,4.2-1.9,4.2-4.2s-1.9-4.2-4.2-4.2-4.2,1.9-4.2,4.2,1.9,4.2,4.2,4.2ZM92.7,248.2c0,2.3-1.9,4.2-4.2,4.2s-4.2-1.9-4.2-4.2,1.9-4.2,4.2-4.2,4.2,1.9,4.2,4.2ZM105.4,252.4c2.3,0,4.2-1.9,4.2-4.2s-1.9-4.2-4.2-4.2-4.2,1.9-4.2,4.2,1.9,4.2,4.2,4.2Z"/>
    <path class="st13" d="M42.1,265.1c0,2.3-1.9,4.2-4.2,4.2s-4.2-1.9-4.2-4.2,1.9-4.2,4.2-4.2,4.2,1.9,4.2,4.2ZM25.3,265.1c0,2.3-1.9,4.2-4.2,4.2s-4.2-1.9-4.2-4.2,1.9-4.2,4.2-4.2,4.2,1.9,4.2,4.2ZM54.8,269.3c2.3,0,4.2-1.9,4.2-4.2s-1.9-4.2-4.2-4.2-4.2,1.9-4.2,4.2,1.9,4.2,4.2,4.2ZM75.9,265.1c0,2.3-1.9,4.2-4.2,4.2s-4.2-1.9-4.2-4.2,1.9-4.2,4.2-4.2,4.2,1.9,4.2,4.2ZM88.5,269.3c2.3,0,4.2-1.9,4.2-4.2s-1.9-4.2-4.2-4.2-4.2,1.9-4.2,4.2,1.9,4.2,4.2,4.2ZM109.6,265.1c0,2.3-1.9,4.2-4.2,4.2s-4.2-1.9-4.2-4.2,1.9-4.2,4.2-4.2,4.2,1.9,4.2,4.2ZM122.2,269.3c2.3,0,4.2-1.9,4.2-4.2s-1.9-4.2-4.2-4.2-4.2,1.9-4.2,4.2,1.9,4.2,4.2,4.2Z"/>
    <path class="st6" d="M59,281.9c0,2.3-1.9,4.2-4.2,4.2s-4.2-1.9-4.2-4.2,1.9-4.2,4.2-4.2,4.2,1.9,4.2,4.2ZM42.1,281.9c0,2.3-1.9,4.2-4.2,4.2s-4.2-1.9-4.2-4.2,1.9-4.2,4.2-4.2,4.2,1.9,4.2,4.2ZM71.6,286.1c2.3,0,4.2-1.9,4.2-4.2s-1.9-4.2-4.2-4.2-4.2,1.9-4.2,4.2,1.9,4.2,4.2,4.2ZM92.7,281.9c0,2.3-1.9,4.2-4.2,4.2s-4.2-1.9-4.2-4.2,1.9-4.2,4.2-4.2,4.2,1.9,4.2,4.2ZM105.4,286.1c2.3,0,4.2-1.9,4.2-4.2s-1.9-4.2-4.2-4.2-4.2,1.9-4.2,4.2,1.9,4.2,4.2,4.2ZM126.4,281.9c0,2.3-1.9,4.2-4.2,4.2s-4.2-1.9-4.2-4.2,1.9-4.2,4.2-4.2,4.2,1.9,4.2,4.2ZM139.1,286.1c2.3,0,4.2-1.9,4.2-4.2s-1.9-4.2-4.2-4.2-4.2,1.9-4.2,4.2,1.9,4.2,4.2,4.2Z"/>
    <path class="st17" d="M25.3,298.8c0,2.3-1.9,4.2-4.2,4.2s-4.2-1.9-4.2-4.2,1.9-4.2,4.2-4.2,4.2,1.9,4.2,4.2ZM8.4,298.8c0,2.3-1.9,4.2-4.2,4.2s-4.2-1.9-4.2-4.2,1.9-4.2,4.2-4.2,4.2,1.9,4.2,4.2ZM37.9,303c2.3,0,4.2-1.9,4.2-4.2s-1.9-4.2-4.2-4.2-4.2,1.9-4.2,4.2,1.9,4.2,4.2,4.2ZM59,298.8c0,2.3-1.9,4.2-4.2,4.2s-4.2-1.9-4.2-4.2,1.9-4.2,4.2-4.2,4.2,1.9,4.2,4.2ZM71.6,303c2.3,0,4.2-1.9,4.2-4.2s-1.9-4.2-4.2-4.2-4.2,1.9-4.2,4.2,1.9,4.2,4.2,4.2ZM92.7,298.8c0,2.3-1.9,4.2-4.2,4.2s-4.2-1.9-4.2-4.2,1.9-4.2,4.2-4.2,4.2,1.9,4.2,4.2ZM105.4,303c2.3,0,4.2-1.9,4.2-4.2s-1.9-4.2-4.2-4.2-4.2,1.9-4.2,4.2,1.9,4.2,4.2,4.2Z"/>
    <g class="st52">
      <path class="st11" d="M1084.4,113.2c0,2.3-1.9,4.2-4.2,4.2s-4.2-1.9-4.2-4.2,1.9-4.2,4.2-4.2,4.2,1.9,4.2,4.2ZM1101.3,113.2c0,2.3-1.9,4.2-4.2,4.2s-4.2-1.9-4.2-4.2,1.9-4.2,4.2-4.2,4.2,1.9,4.2,4.2ZM1113.9,117.4c2.3,0,4.2-1.9,4.2-4.2s-1.9-4.2-4.2-4.2-4.2,1.9-4.2,4.2,1.9,4.2,4.2,4.2ZM1135,113.2c0,2.3-1.9,4.2-4.2,4.2s-4.2-1.9-4.2-4.2,1.9-4.2,4.2-4.2,4.2,1.9,4.2,4.2ZM1147.6,117.4c2.3,0,4.2-1.9,4.2-4.2s-1.9-4.2-4.2-4.2-4.2,1.9-4.2,4.2,1.9,4.2,4.2,4.2ZM1168.7,113.2c0,2.3-1.9,4.2-4.2,4.2s-4.2-1.9-4.2-4.2,1.9-4.2,4.2-4.2,4.2,1.9,4.2,4.2ZM1181.4,117.4c2.3,0,4.2-1.9,4.2-4.2s-1.9-4.2-4.2-4.2-4.2,1.9-4.2,4.2,1.9,4.2,4.2,4.2Z"/>
      <path class="st2" d="M1118.1,130.1c0,2.3-1.9,4.2-4.2,4.2s-4.2-1.9-4.2-4.2,1.9-4.2,4.2-4.2,4.2,1.9,4.2,4.2ZM1101.3,130.1c0,2.3-1.9,4.2-4.2,4.2s-4.2-1.9-4.2-4.2,1.9-4.2,4.2-4.2,4.2,1.9,4.2,4.2ZM1130.8,134.3c2.3,0,4.2-1.9,4.2-4.2s-1.9-4.2-4.2-4.2-4.2,1.9-4.2,4.2,1.9,4.2,4.2,4.2ZM1151.9,130.1c0,2.3-1.9,4.2-4.2,4.2s-4.2-1.9-4.2-4.2,1.9-4.2,4.2-4.2,4.2,1.9,4.2,4.2ZM1164.5,134.3c2.3,0,4.2-1.9,4.2-4.2s-1.9-4.2-4.2-4.2-4.2,1.9-4.2,4.2,1.9,4.2,4.2,4.2ZM1185.6,130.1c0,2.3-1.9,4.2-4.2,4.2s-4.2-1.9-4.2-4.2,1.9-4.2,4.2-4.2,4.2,1.9,4.2,4.2ZM1198.2,134.3c2.3,0,4.2-1.9,4.2-4.2s-1.9-4.2-4.2-4.2-4.2,1.9-4.2,4.2,1.9,4.2,4.2,4.2Z"/>
      <path class="st3" d="M1135,146.9c0,2.3-1.9,4.2-4.2,4.2s-4.2-1.9-4.2-4.2,1.9-4.2,4.2-4.2,4.2,1.9,4.2,4.2ZM1118.1,146.9c0,2.3-1.9,4.2-4.2,4.2s-4.2-1.9-4.2-4.2,1.9-4.2,4.2-4.2,4.2,1.9,4.2,4.2ZM1147.6,151.1c2.3,0,4.2-1.9,4.2-4.2s-1.9-4.2-4.2-4.2-4.2,1.9-4.2,4.2,1.9,4.2,4.2,4.2ZM1168.7,146.9c0,2.3-1.9,4.2-4.2,4.2s-4.2-1.9-4.2-4.2,1.9-4.2,4.2-4.2,4.2,1.9,4.2,4.2ZM1181.4,151.1c2.3,0,4.2-1.9,4.2-4.2s-1.9-4.2-4.2-4.2-4.2,1.9-4.2,4.2,1.9,4.2,4.2,4.2ZM1202.4,146.9c0,2.3-1.9,4.2-4.2,4.2s-4.2-1.9-4.2-4.2,1.9-4.2,4.2-4.2,4.2,1.9,4.2,4.2ZM1215.1,151.1c2.3,0,4.2-1.9,4.2-4.2s-1.9-4.2-4.2-4.2-4.2,1.9-4.2,4.2,1.9,4.2,4.2,4.2Z"/>
      <path class="st16" d="M1101.3,163.8c0,2.3-1.9,4.2-4.2,4.2s-4.2-1.9-4.2-4.2,1.9-4.2,4.2-4.2,4.2,1.9,4.2,4.2ZM1084.4,163.8c0,2.3-1.9,4.2-4.2,4.2s-4.2-1.9-4.2-4.2,1.9-4.2,4.2-4.2,4.2,1.9,4.2,4.2ZM1113.9,168c2.3,0,4.2-1.9,4.2-4.2s-1.9-4.2-4.2-4.2-4.2,1.9-4.2,4.2,1.9,4.2,4.2,4.2ZM1135,163.8c0,2.3-1.9,4.2-4.2,4.2s-4.2-1.9-4.2-4.2,1.9-4.2,4.2-4.2,4.2,1.9,4.2,4.2ZM1147.6,168c2.3,0,4.2-1.9,4.2-4.2s-1.9-4.2-4.2-4.2-4.2,1.9-4.2,4.2,1.9,4.2,4.2,4.2ZM1168.7,163.8c0,2.3-1.9,4.2-4.2,4.2s-4.2-1.9-4.2-4.2,1.9-4.2,4.2-4.2,4.2,1.9,4.2,4.2ZM1181.4,168c2.3,0,4.2-1.9,4.2-4.2s-1.9-4.2-4.2-4.2-4.2,1.9-4.2,4.2,1.9,4.2,4.2,4.2Z"/>
    </g>
    <g class="st52">
      <path class="st22" d="M1084.4,368.2c0,2.3-1.9,4.2-4.2,4.2s-4.2-1.9-4.2-4.2,1.9-4.2,4.2-4.2,4.2,1.9,4.2,4.2ZM1101.3,368.2c0,2.3-1.9,4.2-4.2,4.2s-4.2-1.9-4.2-4.2,1.9-4.2,4.2-4.2,4.2,1.9,4.2,4.2ZM1113.9,372.4c2.3,0,4.2-1.9,4.2-4.2s-1.9-4.2-4.2-4.2-4.2,1.9-4.2,4.2,1.9,4.2,4.2,4.2ZM1135,368.2c0,2.3-1.9,4.2-4.2,4.2s-4.2-1.9-4.2-4.2,1.9-4.2,4.2-4.2,4.2,1.9,4.2,4.2ZM1147.6,372.4c2.3,0,4.2-1.9,4.2-4.2s-1.9-4.2-4.2-4.2-4.2,1.9-4.2,4.2,1.9,4.2,4.2,4.2ZM1168.7,368.2c0,2.3-1.9,4.2-4.2,4.2s-4.2-1.9-4.2-4.2,1.9-4.2,4.2-4.2,4.2,1.9,4.2,4.2ZM1181.4,372.4c2.3,0,4.2-1.9,4.2-4.2s-1.9-4.2-4.2-4.2-4.2,1.9-4.2,4.2,1.9,4.2,4.2,4.2Z"/>
      <path class="st4" d="M1118.1,385.1c0,2.3-1.9,4.2-4.2,4.2s-4.2-1.9-4.2-4.2,1.9-4.2,4.2-4.2,4.2,1.9,4.2,4.2ZM1101.3,385.1c0,2.3-1.9,4.2-4.2,4.2s-4.2-1.9-4.2-4.2,1.9-4.2,4.2-4.2,4.2,1.9,4.2,4.2ZM1130.8,389.3c2.3,0,4.2-1.9,4.2-4.2s-1.9-4.2-4.2-4.2-4.2,1.9-4.2,4.2,1.9,4.2,4.2,4.2ZM1151.9,385.1c0,2.3-1.9,4.2-4.2,4.2s-4.2-1.9-4.2-4.2,1.9-4.2,4.2-4.2,4.2,1.9,4.2,4.2ZM1164.5,389.3c2.3,0,4.2-1.9,4.2-4.2s-1.9-4.2-4.2-4.2-4.2,1.9-4.2,4.2,1.9,4.2,4.2,4.2ZM1185.6,385.1c0,2.3-1.9,4.2-4.2,4.2s-4.2-1.9-4.2-4.2,1.9-4.2,4.2-4.2,4.2,1.9,4.2,4.2ZM1198.2,389.3c2.3,0,4.2-1.9,4.2-4.2s-1.9-4.2-4.2-4.2-4.2,1.9-4.2,4.2,1.9,4.2,4.2,4.2Z"/>
      <path class="st1" d="M1135,401.9c0,2.3-1.9,4.2-4.2,4.2s-4.2-1.9-4.2-4.2,1.9-4.2,4.2-4.2,4.2,1.9,4.2,4.2ZM1118.1,401.9c0,2.3-1.9,4.2-4.2,4.2s-4.2-1.9-4.2-4.2,1.9-4.2,4.2-4.2,4.2,1.9,4.2,4.2ZM1147.6,406.1c2.3,0,4.2-1.9,4.2-4.2s-1.9-4.2-4.2-4.2-4.2,1.9-4.2,4.2,1.9,4.2,4.2,4.2ZM1168.7,401.9c0,2.3-1.9,4.2-4.2,4.2s-4.2-1.9-4.2-4.2,1.9-4.2,4.2-4.2,4.2,1.9,4.2,4.2ZM1181.4,406.1c2.3,0,4.2-1.9,4.2-4.2s-1.9-4.2-4.2-4.2-4.2,1.9-4.2,4.2,1.9,4.2,4.2,4.2ZM1202.4,401.9c0,2.3-1.9,4.2-4.2,4.2s-4.2-1.9-4.2-4.2,1.9-4.2,4.2-4.2,4.2,1.9,4.2,4.2ZM1215.1,406.1c2.3,0,4.2-1.9,4.2-4.2s-1.9-4.2-4.2-4.2-4.2,1.9-4.2,4.2,1.9,4.2,4.2,4.2Z"/>
      <path class="st12" d="M1101.3,418.8c0,2.3-1.9,4.2-4.2,4.2s-4.2-1.9-4.2-4.2,1.9-4.2,4.2-4.2,4.2,1.9,4.2,4.2ZM1084.4,418.8c0,2.3-1.9,4.2-4.2,4.2s-4.2-1.9-4.2-4.2,1.9-4.2,4.2-4.2,4.2,1.9,4.2,4.2ZM1113.9,423c2.3,0,4.2-1.9,4.2-4.2s-1.9-4.2-4.2-4.2-4.2,1.9-4.2,4.2,1.9,4.2,4.2,4.2ZM1135,418.8c0,2.3-1.9,4.2-4.2,4.2s-4.2-1.9-4.2-4.2,1.9-4.2,4.2-4.2,4.2,1.9,4.2,4.2ZM1147.6,423c2.3,0,4.2-1.9,4.2-4.2s-1.9-4.2-4.2-4.2-4.2,1.9-4.2,4.2,1.9,4.2,4.2,4.2ZM1168.7,418.8c0,2.3-1.9,4.2-4.2,4.2s-4.2-1.9-4.2-4.2,1.9-4.2,4.2-4.2,4.2,1.9,4.2,4.2ZM1181.4,423c2.3,0,4.2-1.9,4.2-4.2s-1.9-4.2-4.2-4.2-4.2,1.9-4.2,4.2,1.9,4.2,4.2,4.2Z"/>
    </g>
    <path class="st18" d="M1662.4,172.2c0,2.3-1.9,4.2-4.2,4.2s-4.2-1.9-4.2-4.2,1.9-4.2,4.2-4.2,4.2,1.9,4.2,4.2ZM1679.3,172.2c0,2.3-1.9,4.2-4.2,4.2s-4.2-1.9-4.2-4.2,1.9-4.2,4.2-4.2,4.2,1.9,4.2,4.2ZM1691.9,176.4c2.3,0,4.2-1.9,4.2-4.2s-1.9-4.2-4.2-4.2-4.2,1.9-4.2,4.2,1.9,4.2,4.2,4.2ZM1713,172.2c0,2.3-1.9,4.2-4.2,4.2s-4.2-1.9-4.2-4.2,1.9-4.2,4.2-4.2,4.2,1.9,4.2,4.2ZM1725.6,176.4c2.3,0,4.2-1.9,4.2-4.2s-1.9-4.2-4.2-4.2-4.2,1.9-4.2,4.2,1.9,4.2,4.2,4.2ZM1746.7,172.2c0,2.3-1.9,4.2-4.2,4.2s-4.2-1.9-4.2-4.2,1.9-4.2,4.2-4.2,4.2,1.9,4.2,4.2ZM1759.4,176.4c2.3,0,4.2-1.9,4.2-4.2s-1.9-4.2-4.2-4.2-4.2,1.9-4.2,4.2,1.9,4.2,4.2,4.2Z"/>
    <path class="st7" d="M1696.1,189.1c0,2.3-1.9,4.2-4.2,4.2s-4.2-1.9-4.2-4.2,1.9-4.2,4.2-4.2,4.2,1.9,4.2,4.2ZM1679.3,189.1c0,2.3-1.9,4.2-4.2,4.2s-4.2-1.9-4.2-4.2,1.9-4.2,4.2-4.2,4.2,1.9,4.2,4.2ZM1708.8,193.3c2.3,0,4.2-1.9,4.2-4.2s-1.9-4.2-4.2-4.2-4.2,1.9-4.2,4.2,1.9,4.2,4.2,4.2ZM1729.9,189.1c0,2.3-1.9,4.2-4.2,4.2s-4.2-1.9-4.2-4.2,1.9-4.2,4.2-4.2,4.2,1.9,4.2,4.2ZM1742.5,193.3c2.3,0,4.2-1.9,4.2-4.2s-1.9-4.2-4.2-4.2-4.2,1.9-4.2,4.2,1.9,4.2,4.2,4.2ZM1763.6,189.1c0,2.3-1.9,4.2-4.2,4.2s-4.2-1.9-4.2-4.2,1.9-4.2,4.2-4.2,4.2,1.9,4.2,4.2ZM1776.2,193.3c2.3,0,4.2-1.9,4.2-4.2s-1.9-4.2-4.2-4.2-4.2,1.9-4.2,4.2,1.9,4.2,4.2,4.2Z"/>
    <path class="st9" d="M1713,205.9c0,2.3-1.9,4.2-4.2,4.2s-4.2-1.9-4.2-4.2,1.9-4.2,4.2-4.2,4.2,1.9,4.2,4.2ZM1696.1,205.9c0,2.3-1.9,4.2-4.2,4.2s-4.2-1.9-4.2-4.2,1.9-4.2,4.2-4.2,4.2,1.9,4.2,4.2ZM1725.6,210.1c2.3,0,4.2-1.9,4.2-4.2s-1.9-4.2-4.2-4.2-4.2,1.9-4.2,4.2,1.9,4.2,4.2,4.2ZM1746.7,205.9c0,2.3-1.9,4.2-4.2,4.2s-4.2-1.9-4.2-4.2,1.9-4.2,4.2-4.2,4.2,1.9,4.2,4.2ZM1759.4,210.1c2.3,0,4.2-1.9,4.2-4.2s-1.9-4.2-4.2-4.2-4.2,1.9-4.2,4.2,1.9,4.2,4.2,4.2ZM1780.4,205.9c0,2.3-1.9,4.2-4.2,4.2s-4.2-1.9-4.2-4.2,1.9-4.2,4.2-4.2,4.2,1.9,4.2,4.2ZM1793.1,210.1c2.3,0,4.2-1.9,4.2-4.2s-1.9-4.2-4.2-4.2-4.2,1.9-4.2,4.2,1.9,4.2,4.2,4.2Z"/>
    <path class="st23" d="M1679.3,222.8c0,2.3-1.9,4.2-4.2,4.2s-4.2-1.9-4.2-4.2,1.9-4.2,4.2-4.2,4.2,1.9,4.2,4.2ZM1662.4,222.8c0,2.3-1.9,4.2-4.2,4.2s-4.2-1.9-4.2-4.2,1.9-4.2,4.2-4.2,4.2,1.9,4.2,4.2ZM1691.9,227c2.3,0,4.2-1.9,4.2-4.2s-1.9-4.2-4.2-4.2-4.2,1.9-4.2,4.2,1.9,4.2,4.2,4.2ZM1713,222.8c0,2.3-1.9,4.2-4.2,4.2s-4.2-1.9-4.2-4.2,1.9-4.2,4.2-4.2,4.2,1.9,4.2,4.2ZM1725.6,227c2.3,0,4.2-1.9,4.2-4.2s-1.9-4.2-4.2-4.2-4.2,1.9-4.2,4.2,1.9,4.2,4.2,4.2ZM1746.7,222.8c0,2.3-1.9,4.2-4.2,4.2s-4.2-1.9-4.2-4.2,1.9-4.2,4.2-4.2,4.2,1.9,4.2,4.2ZM1759.4,227c2.3,0,4.2-1.9,4.2-4.2s-1.9-4.2-4.2-4.2-4.2,1.9-4.2,4.2,1.9,4.2,4.2,4.2Z"/>
    <g class="st49">
      <path class="st15" d="M1624.4,345.2c0,2.3-1.9,4.2-4.2,4.2s-4.2-1.9-4.2-4.2,1.9-4.2,4.2-4.2,4.2,1.9,4.2,4.2ZM1641.3,345.2c0,2.3-1.9,4.2-4.2,4.2s-4.2-1.9-4.2-4.2,1.9-4.2,4.2-4.2,4.2,1.9,4.2,4.2ZM1653.9,349.4c2.3,0,4.2-1.9,4.2-4.2s-1.9-4.2-4.2-4.2-4.2,1.9-4.2,4.2,1.9,4.2,4.2,4.2ZM1675,345.2c0,2.3-1.9,4.2-4.2,4.2s-4.2-1.9-4.2-4.2,1.9-4.2,4.2-4.2,4.2,1.9,4.2,4.2ZM1687.6,349.4c2.3,0,4.2-1.9,4.2-4.2s-1.9-4.2-4.2-4.2-4.2,1.9-4.2,4.2,1.9,4.2,4.2,4.2ZM1708.7,345.2c0,2.3-1.9,4.2-4.2,4.2s-4.2-1.9-4.2-4.2,1.9-4.2,4.2-4.2,4.2,1.9,4.2,4.2ZM1721.4,349.4c2.3,0,4.2-1.9,4.2-4.2s-1.9-4.2-4.2-4.2-4.2,1.9-4.2,4.2,1.9,4.2,4.2,4.2Z"/>
      <path class="st8" d="M1658.1,362.1c0,2.3-1.9,4.2-4.2,4.2s-4.2-1.9-4.2-4.2,1.9-4.2,4.2-4.2,4.2,1.9,4.2,4.2ZM1641.3,362.1c0,2.3-1.9,4.2-4.2,4.2s-4.2-1.9-4.2-4.2,1.9-4.2,4.2-4.2,4.2,1.9,4.2,4.2ZM1670.8,366.3c2.3,0,4.2-1.9,4.2-4.2s-1.9-4.2-4.2-4.2-4.2,1.9-4.2,4.2,1.9,4.2,4.2,4.2ZM1691.9,362.1c0,2.3-1.9,4.2-4.2,4.2s-4.2-1.9-4.2-4.2,1.9-4.2,4.2-4.2,4.2,1.9,4.2,4.2ZM1704.5,366.3c2.3,0,4.2-1.9,4.2-4.2s-1.9-4.2-4.2-4.2-4.2,1.9-4.2,4.2,1.9,4.2,4.2,4.2ZM1725.6,362.1c0,2.3-1.9,4.2-4.2,4.2s-4.2-1.9-4.2-4.2,1.9-4.2,4.2-4.2,4.2,1.9,4.2,4.2ZM1738.2,366.3c2.3,0,4.2-1.9,4.2-4.2s-1.9-4.2-4.2-4.2-4.2,1.9-4.2,4.2,1.9,4.2,4.2,4.2Z"/>
      <path class="st26" d="M1675,378.9c0,2.3-1.9,4.2-4.2,4.2s-4.2-1.9-4.2-4.2,1.9-4.2,4.2-4.2,4.2,1.9,4.2,4.2ZM1658.1,378.9c0,2.3-1.9,4.2-4.2,4.2s-4.2-1.9-4.2-4.2,1.9-4.2,4.2-4.2,4.2,1.9,4.2,4.2ZM1687.6,383.1c2.3,0,4.2-1.9,4.2-4.2s-1.9-4.2-4.2-4.2-4.2,1.9-4.2,4.2,1.9,4.2,4.2,4.2ZM1708.7,378.9c0,2.3-1.9,4.2-4.2,4.2s-4.2-1.9-4.2-4.2,1.9-4.2,4.2-4.2,4.2,1.9,4.2,4.2ZM1721.4,383.1c2.3,0,4.2-1.9,4.2-4.2s-1.9-4.2-4.2-4.2-4.2,1.9-4.2,4.2,1.9,4.2,4.2,4.2ZM1742.4,378.9c0,2.3-1.9,4.2-4.2,4.2s-4.2-1.9-4.2-4.2,1.9-4.2,4.2-4.2,4.2,1.9,4.2,4.2ZM1755.1,383.1c2.3,0,4.2-1.9,4.2-4.2s-1.9-4.2-4.2-4.2-4.2,1.9-4.2,4.2,1.9,4.2,4.2,4.2Z"/>
      <path class="st21" d="M1641.3,395.8c0,2.3-1.9,4.2-4.2,4.2s-4.2-1.9-4.2-4.2,1.9-4.2,4.2-4.2,4.2,1.9,4.2,4.2ZM1624.4,395.8c0,2.3-1.9,4.2-4.2,4.2s-4.2-1.9-4.2-4.2,1.9-4.2,4.2-4.2,4.2,1.9,4.2,4.2ZM1653.9,400c2.3,0,4.2-1.9,4.2-4.2s-1.9-4.2-4.2-4.2-4.2,1.9-4.2,4.2,1.9,4.2,4.2,4.2ZM1675,395.8c0,2.3-1.9,4.2-4.2,4.2s-4.2-1.9-4.2-4.2,1.9-4.2,4.2-4.2,4.2,1.9,4.2,4.2ZM1687.6,400c2.3,0,4.2-1.9,4.2-4.2s-1.9-4.2-4.2-4.2-4.2,1.9-4.2,4.2,1.9,4.2,4.2,4.2ZM1708.7,395.8c0,2.3-1.9,4.2-4.2,4.2s-4.2-1.9-4.2-4.2,1.9-4.2,4.2-4.2,4.2,1.9,4.2,4.2ZM1721.4,400c2.3,0,4.2-1.9,4.2-4.2s-1.9-4.2-4.2-4.2-4.2,1.9-4.2,4.2,1.9,4.2,4.2,4.2Z"/>
    </g>
    <path class="st5" d="M1874.4,247.2c0,2.3-1.9,4.2-4.2,4.2s-4.2-1.9-4.2-4.2,1.9-4.2,4.2-4.2,4.2,1.9,4.2,4.2ZM1891.3,247.2c0,2.3-1.9,4.2-4.2,4.2s-4.2-1.9-4.2-4.2,1.9-4.2,4.2-4.2,4.2,1.9,4.2,4.2ZM1903.9,251.4c2.3,0,4.2-1.9,4.2-4.2s-1.9-4.2-4.2-4.2-4.2,1.9-4.2,4.2,1.9,4.2,4.2,4.2ZM1925,247.2c0,2.3-1.9,4.2-4.2,4.2s-4.2-1.9-4.2-4.2,1.9-4.2,4.2-4.2,4.2,1.9,4.2,4.2ZM1937.6,251.4c2.3,0,4.2-1.9,4.2-4.2s-1.9-4.2-4.2-4.2-4.2,1.9-4.2,4.2,1.9,4.2,4.2,4.2ZM1958.7,247.2c0,2.3-1.9,4.2-4.2,4.2s-4.2-1.9-4.2-4.2,1.9-4.2,4.2-4.2,4.2,1.9,4.2,4.2ZM1971.4,251.4c2.3,0,4.2-1.9,4.2-4.2s-1.9-4.2-4.2-4.2-4.2,1.9-4.2,4.2,1.9,4.2,4.2,4.2Z"/>
    <path class="st0" d="M1908.1,264.1c0,2.3-1.9,4.2-4.2,4.2s-4.2-1.9-4.2-4.2,1.9-4.2,4.2-4.2,4.2,1.9,4.2,4.2ZM1891.3,264.1c0,2.3-1.9,4.2-4.2,4.2s-4.2-1.9-4.2-4.2,1.9-4.2,4.2-4.2,4.2,1.9,4.2,4.2ZM1920.8,268.3c2.3,0,4.2-1.9,4.2-4.2s-1.9-4.2-4.2-4.2-4.2,1.9-4.2,4.2,1.9,4.2,4.2,4.2ZM1941.9,264.1c0,2.3-1.9,4.2-4.2,4.2s-4.2-1.9-4.2-4.2,1.9-4.2,4.2-4.2,4.2,1.9,4.2,4.2ZM1954.5,268.3c2.3,0,4.2-1.9,4.2-4.2s-1.9-4.2-4.2-4.2-4.2,1.9-4.2,4.2,1.9,4.2,4.2,4.2ZM1975.6,264.1c0,2.3-1.9,4.2-4.2,4.2s-4.2-1.9-4.2-4.2,1.9-4.2,4.2-4.2,4.2,1.9,4.2,4.2ZM1988.2,268.3c2.3,0,4.2-1.9,4.2-4.2s-1.9-4.2-4.2-4.2-4.2,1.9-4.2,4.2,1.9,4.2,4.2,4.2Z"/>
    <path class="st19" d="M1925,280.9c0,2.3-1.9,4.2-4.2,4.2s-4.2-1.9-4.2-4.2,1.9-4.2,4.2-4.2,4.2,1.9,4.2,4.2ZM1908.1,280.9c0,2.3-1.9,4.2-4.2,4.2s-4.2-1.9-4.2-4.2,1.9-4.2,4.2-4.2,4.2,1.9,4.2,4.2ZM1937.6,285.1c2.3,0,4.2-1.9,4.2-4.2s-1.9-4.2-4.2-4.2-4.2,1.9-4.2,4.2,1.9,4.2,4.2,4.2ZM1958.7,280.9c0,2.3-1.9,4.2-4.2,4.2s-4.2-1.9-4.2-4.2,1.9-4.2,4.2-4.2,4.2,1.9,4.2,4.2ZM1971.4,285.1c2.3,0,4.2-1.9,4.2-4.2s-1.9-4.2-4.2-4.2-4.2,1.9-4.2,4.2,1.9,4.2,4.2,4.2ZM1992.4,280.9c0,2.3-1.9,4.2-4.2,4.2s-4.2-1.9-4.2-4.2,1.9-4.2,4.2-4.2,4.2,1.9,4.2,4.2ZM2005.1,285.1c2.3,0,4.2-1.9,4.2-4.2s-1.9-4.2-4.2-4.2-4.2,1.9-4.2,4.2,1.9,4.2,4.2,4.2Z"/>
    <path class="st10" d="M1891.3,297.8c0,2.3-1.9,4.2-4.2,4.2s-4.2-1.9-4.2-4.2,1.9-4.2,4.2-4.2,4.2,1.9,4.2,4.2ZM1874.4,297.8c0,2.3-1.9,4.2-4.2,4.2s-4.2-1.9-4.2-4.2,1.9-4.2,4.2-4.2,4.2,1.9,4.2,4.2ZM1903.9,302c2.3,0,4.2-1.9,4.2-4.2s-1.9-4.2-4.2-4.2-4.2,1.9-4.2,4.2,1.9,4.2,4.2,4.2ZM1925,297.8c0,2.3-1.9,4.2-4.2,4.2s-4.2-1.9-4.2-4.2,1.9-4.2,4.2-4.2,4.2,1.9,4.2,4.2ZM1937.6,302c2.3,0,4.2-1.9,4.2-4.2s-1.9-4.2-4.2-4.2-4.2,1.9-4.2,4.2,1.9,4.2,4.2,4.2ZM1958.7,297.8c0,2.3-1.9,4.2-4.2,4.2s-4.2-1.9-4.2-4.2,1.9-4.2,4.2-4.2,4.2,1.9,4.2,4.2ZM1971.4,302c2.3,0,4.2-1.9,4.2-4.2s-1.9-4.2-4.2-4.2-4.2,1.9-4.2,4.2,1.9,4.2,4.2,4.2Z"/>
  </g>
  <g id="Layer_2">
    <g>
      <path class="st33" d="M0,248.8c2.3-2,1-7.2,5-7,1.2,6.7,7.7,18-5,14v-7Z"/>
      <path class="st31" d="M2009.3,284.8c-12.7,3.9-6.3-7.3-5-14,2.2-2.2,3.7,6.6,5,7v7Z"/>
      <path class="st45" d="M1095.5,423c-2.3-1.9,1.8-14.8,2.5-15,1.9-.6,1.5.9,2,2,1.7,3.7,3.8,9.1,1.5,13h-6Z"/>
      <path class="st45" d="M1192.9,423c-2.2-3.9-.2-9.3,1.5-13s0-2.6,2-2,4.9,13.2,2.5,15h-6Z"/>
      <path class="st46" d="M1176.9,423c-2.2-3.9-.1-9.3,1.5-13,.5-1.1,0-2.6,2-2s5.3,13.7,1.5,15h-5Z"/>
      <path class="st41" d="M1133.7,423h-5c-4.3-1.8,1.6-15,2.5-15,2.8,4.1,4.9,10.3,2.5,15Z"/>
      <path class="st46" d="M1112.6,423c-3.7-1.4.8-14.8,1.5-15,1.9-.6,1.5.9,2,2,1.7,3.8,3.8,9.1,1.5,13h-5Z"/>
      <path class="st45" d="M1149.7,423h-5c-2.8-2.2.9-15,2.5-15,2.4,4.3,6,10.7,2.5,15Z"/>
      <path class="st30" d="M1165.8,423h-5c-2.9-5.1,1.2-10.1,2-15,1.1-.8,7.4,13.3,3,15Z"/>
      <path class="st35" d="M364.5-.5c-.2,3.8,5.2,10-1.5,10.1-4.5,0-.2-8.2-.5-10.1h2Z"/>
      <path class="st35" d="M413.7-.5l1.1,9.4c-7.8,2.9-3.6-5.5-3.1-9.4h2Z"/>
      <path class="st32" d="M374.5-.5c.2,2.3,2.9,10.1-1.5,10l-2.5-2.4,2-7.6h2Z"/>
      <path class="st35" d="M344.4-.5c.4,3.2,4.6,8.8-.5,10-4.7,0-1.2-7.7-1.5-10h2Z"/>
      <path class="st47" d="M403.7-.5c.4,3.2,4.6,8.8-.5,10-4.7,0-1.2-7.7-1.5-10h2Z"/>
      <path class="st35" d="M382.6-.5h1c1.3,2.1,4.1,10-.5,10-5.1-1.2-.9-6.8-.5-10Z"/>
      <path class="st35" d="M392.6-.5h1c.4,3.2,4.6,8.8-.5,10-4.6,0-1.8-7.9-.5-10Z"/>
      <path class="st35" d="M353.5-.5h1c.4,3.2,4.6,8.8-.5,10-4.6,0-1.8-7.9-.5-10Z"/>
      <path class="st39" d="M1745.2,165.7c-.2,4.1,6.1,13,1,15.5-9.2,4.6-5.7-9.8-3.3-14.2s0-1.7,2.2-1.3Z"/>
      <path class="st39" d="M1958.1,240.8c-.2,4.1,6.1,13,1,15.5-9.2,4.6-5.7-9.8-3.3-14.2.6-1.2,0-1.7,2.2-1.3Z"/>
      <path class="st39" d="M86.3,240.8c-.2,4.1,6.1,13,1,15.5-9.2,4.6-5.7-9.8-3.3-14.2s0-1.7,2.2-1.3Z"/>
      <path class="st43" d="M1722.1,366.9c-.2,3.8,6.7,14.9.5,16-9.1,1.7-4.7-9.9-2.6-14.6s-.5-1.8,2.1-1.4Z"/>
      <path class="st47" d="M1990.2,240.8c1.3,1.3,6,16.1-.5,16.1-7.5,0-3.4-10.7-1.6-14.7s.4-3,2.1-1.4Z"/>
      <path class="st47" d="M118.5,240.8c1.3,1.3,6,16.1-.5,16.1s-3.4-10.7-1.6-14.7.4-3,2.1-1.4Z"/>
      <path class="st32" d="M1974.1,269.8c-.2,3.8,6.7,14.9.5,16-9.1,1.7-4.7-9.9-2.6-14.6s-.5-1.8,2.1-1.4Z"/>
      <path class="st32" d="M102.4,269.8c-.2,3.8,6.7,14.9.5,16-9.1,1.7-4.7-9.9-2.6-14.6s-.5-1.8,2.1-1.4Z"/>
      <path class="st32" d="M1761.3,194.7c-.2,3.8,6.7,14.9.5,16-9.1,1.7-4.7-9.9-2.6-14.6s-.5-1.8,2.1-1.4Z"/>
      <path class="st47" d="M1777.3,165.7c1.3,1.3,6,16.1-.5,16.1s-3.4-10.7-1.6-14.7.4-3,2.1-1.4Z"/>
      <path class="st32" d="M1785.4,181.7c0,4.3,7.3,16.2-.5,16.1s-3.4-10.7-1.6-14.7-.5-1.8,2.1-1.4Z"/>
      <path class="st43" d="M1746.2,353.9c0,4.3,7.3,16.2-.5,16.1s-3.4-10.7-1.6-14.7-.5-1.8,2.1-1.4Z"/>
      <path class="st43" d="M1730.1,353.9c-.2,4.1,6.1,13,1,15.5-9.6,4.7-5-10-3.1-14.1s-.5-1.8,2.1-1.4Z"/>
      <path class="st32" d="M126.5,256.8c0,4.3,7.3,16.2-.5,16.1s-3.4-10.7-1.6-14.7-.5-1.8,2.1-1.4Z"/>
      <path class="st32" d="M110.4,256.8c-.2,4.1,6.1,13,1,15.5-9.6,4.7-5-10-3.1-14.1s-.5-1.8,2.1-1.4Z"/>
      <path class="st32" d="M1998.2,256.8c0,4.3,7.3,16.2-.5,16.1s-3.4-10.7-1.6-14.7-.5-1.8,2.1-1.4Z"/>
      <path class="st32" d="M1982.2,256.8c-.2,4.1,6.1,13,1,15.5-9.6,4.7-5-10-3.1-14.1s-.5-1.8,2.1-1.4Z"/>
      <path class="st32" d="M1769.3,181.7c-.2,4.1,6.1,13,1,15.5-9.6,4.7-5-10-3.1-14.1s-.5-1.8,2.1-1.4Z"/>
      <path class="st54" d="M1188.9,392c1.5,5,7.1,18.4-3.4,14.9-3.7-1.2-.3-11.1,1.1-13.6s0-1.7,2.2-1.3Z"/>
      <path class="st39" d="M1769.3,211.8c1.5,5,7.1,18.4-3.4,14.9-3.7-1.2-.3-11.1,1.1-13.6s0-1.7,2.2-1.3Z"/>
      <path class="st54" d="M1034.3,256.8c1.5,5,7.1,18.4-3.4,14.9-3.7-1.2-.3-11.1,1.1-13.6s0-1.7,2.2-1.3Z"/>
      <path class="st43" d="M1738.2,337.9c.6,5.4,7.3,14.8-1.4,16.1-6.3-.6-2.2-11.2-.7-14.7s-.5-1.8,2.1-1.4Z"/>
      <path class="st39" d="M110.4,286.9c1.5,5,7.1,18.4-3.4,14.9s-.3-11.1,1.1-13.6,0-1.7,2.2-1.3Z"/>
      <path class="st54" d="M1188.9,137.7c1.5,5,7.1,18.4-3.4,14.9s-.3-11.1,1.1-13.6,0-1.7,2.2-1.3Z"/>
      <path class="st39" d="M1982.2,286.9c1.5,5,7.1,18.4-3.4,14.9-3.7-1.2-.3-11.1,1.1-13.6s0-1.7,2.2-1.3Z"/>
      <path class="st45" d="M1105.6,362.9c2.6-2.4,7.8,13.4,3.4,14.9-11.2.8-3.9-8.7-3.4-14.9Z"/>
      <path class="st45" d="M1091.5,362.9c.6,6.2,7.8,15.7-3.4,14.9-4.5-1.5.8-17.3,3.4-14.9Z"/>
      <path class="st45" d="M1002.1,227.8c.6,6.2,7.8,15.7-3.4,14.9-4.5-1.5.8-17.3,3.4-14.9Z"/>
      <path class="st45" d="M1188.9,361.9c.1,5.4,7.6,14.7-1.4,16.1-6.3-.6-2.2-11.2-.7-14.7.5-1.2-.5-1.8,2.1-1.4Z"/>
      <path class="st28" d="M1698,354.9c.6,6.2,7.8,15.7-3.4,14.9-4.5-1.5.8-17.3,3.4-14.9Z"/>
      <path class="st31" d="M54.2,241.8c-.1,3.8,5.2,12,1,14.5-3.3,1.7-6.9,0-6.8-3.9s3.6-12.7,5.8-10.7Z"/>
      <path class="st48" d="M1646.8,354.9c2.6-2.4,7.8,13.4,3.4,14.9-11.2.8-3.9-8.7-3.4-14.9Z"/>
      <path class="st48" d="M1690,338.9c.6,6.2,7.8,15.7-3.4,14.9-4.5-1.5.8-17.3,3.4-14.9Z"/>
      <path class="st28" d="M1638.8,338.9c2.6-2.4,7.8,13.4,3.4,14.9-11.2.8-3.9-8.7-3.4-14.9Z"/>
      <path class="st48" d="M1624.7,338.9c.6,6.2,7.8,15.7-3.4,14.9-4.5-1.5.8-17.3,3.4-14.9Z"/>
      <path class="st28" d="M1722.1,337.9c.1,5.4,7.6,14.7-1.4,16.1-6.3-.6-2.2-11.2-.7-14.7s-.5-1.8,2.1-1.4Z"/>
      <path class="st28" d="M1706,337.9c.1,5.4,7.3,15-1.4,16.1l-2.7-1.5c-2.1-2.7.5-10.3,2-13.2s-.5-1.9,2.1-1.4Z"/>
      <path class="st31" d="M70.3,270.8c.6,6.2,7.8,15.7-3.4,14.9-4.5-1.5.8-17.3,3.4-14.9Z"/>
      <path class="st42" d="M102.4,240.8c.1,5.4,7.6,14.7-1.4,16.1-6.3-.6-2.2-11.2-.7-14.7s-.5-1.8,2.1-1.4Z"/>
      <path class="st54" d="M1058.4,242.8c.1,5.4,7.6,14.7-1.4,16.1-6.3-.6-2.2-11.2-.7-14.7s-.5-1.8,2.1-1.4Z"/>
      <path class="st39" d="M1974.1,240.8c.1,5.4,7.6,14.7-1.4,16.1-6.3-.6-2.2-11.2-.7-14.7s-.5-1.8,2.1-1.4Z"/>
      <path class="st54" d="M1213,123.7c.1,5.4,7.6,14.7-1.4,16.1-6.3-.6-2.2-11.2-.7-14.7s-.5-1.8,2.1-1.4Z"/>
      <path class="st45" d="M1156.8,362.9c.6,6.2,7.8,15.7-3.4,14.9-4.5-1.5.8-17.3,3.4-14.9Z"/>
      <path class="st40" d="M1196.9,123.7c.1,5.4,7.6,14.7-1.4,16.1-6.3-.6-2.2-11.2-.7-14.7s-.5-1.8,2.1-1.4Z"/>
      <path class="st39" d="M1990.2,270.8c1.4,6.1,7.9,16.5-3.3,15.1-3.3-.8,0-11.8,1.1-13.8s0-1.7,2.2-1.3Z"/>
      <path class="st31" d="M1942,270.8c.6,6.2,7.8,15.7-3.4,14.9-4.5-1.5.8-17.3,3.4-14.9Z"/>
      <path class="st37" d="M1690,367.9c.6,6.2,7.8,15.7-3.4,14.9-4.5-1.5.8-17.3,3.4-14.9Z"/>
      <path class="st39" d="M118.5,270.8c1.4,6.1,7.9,16.5-3.3,15.1-3.3-.8,0-11.8,1.1-13.8s0-1.7,2.2-1.3Z"/>
      <path class="st45" d="M1188.9,107.6c.1,5.4,7.6,14.7-1.4,16.1-6.3-.6-2.2-11.2-.7-14.7.5-1.2-.5-1.8,2.1-1.4Z"/>
      <path class="st40" d="M1196.9,377.9c.1,5.4,7.6,14.7-1.4,16.1-6.3-.6-2.2-11.2-.7-14.7s-.5-1.8,2.1-1.4Z"/>
      <path class="st45" d="M1091.5,108.7c.6,6.2,7.8,15.7-3.4,14.9-4.5-1.5.8-17.3,3.4-14.9Z"/>
      <path class="st45" d="M1105.6,108.7c2.6-2.4,7.8,13.4,3.4,14.9-11.2.8-3.9-8.7-3.4-14.9Z"/>
      <path class="st54" d="M1213,377.9c.1,5.4,7.6,14.7-1.4,16.1-6.3-.6-2.2-11.2-.7-14.7s-.5-1.8,2.1-1.4Z"/>
      <path class="st45" d="M1156.8,108.7c.6,6.2,7.8,15.7-3.4,14.9-4.5-1.5.8-17.3,3.4-14.9Z"/>
      <path class="st28" d="M1730.1,384c0,3.8,6.5,13.9.5,15-8.7,1.6-5.2-9.3-2.7-13.8.6-1.2,0-1.7,2.2-1.3Z"/>
      <path class="st51" d="M94.4,257.8c.6,6.2,7.8,15.7-3.4,14.9-4.5-1.5.8-17.3,3.4-14.9Z"/>
      <path class="st29" d="M1898.8,257.8c2.6-2.4,7.8,13.4,3.4,14.9-11.2.8-3.9-8.7-3.4-14.9Z"/>
      <path class="st42" d="M1761.3,165.7c.1,5.4,7.6,14.7-1.4,16.1-6.3-.6-2.2-11.2-.7-14.7s-.5-1.8,2.1-1.4Z"/>
      <path class="st33" d="M70.3,241.8c.6,6.2,7.8,15.7-3.4,14.9-4.5-1.5.8-17.3,3.4-14.9Z"/>
      <path class="st33" d="M1663.9,166.7c.6,6.2,7.8,15.7-3.4,14.9-4.5-1.5.8-17.3,3.4-14.9Z"/>
      <path class="st39" d="M1677.9,166.7c2.6-2.4,7.8,13.4,3.4,14.9-11.2.8-3.9-8.7-3.4-14.9Z"/>
      <path class="st33" d="M1876.7,241.8c.6,6.2,7.8,15.7-3.4,14.9-4.5-1.5.8-17.3,3.4-14.9Z"/>
      <path class="st31" d="M1713.1,166.7c-.1,3.8,5.2,12,1,14.5-3.3,1.7-6.9,0-6.8-3.9s3.6-12.7,5.8-10.7Z"/>
      <path class="st33" d="M1729.1,166.7c.6,6.2,7.8,15.7-3.4,14.9-4.5-1.5.8-17.3,3.4-14.9Z"/>
      <path class="st29" d="M1914.9,257.8c2.6-2.4,7.8,13.4,3.4,14.9-11.2.8-3.9-8.7-3.4-14.9Z"/>
      <path class="st39" d="M78.3,257.8c.6,6.2,7.8,15.7-3.4,14.9-4.5-1.5.8-17.3,3.4-14.9Z"/>
      <path class="st29" d="M1686,182.7c2.6-2.4,7.8,13.4,3.4,14.9-11.2.8-3.9-8.7-3.4-14.9Z"/>
      <path class="st29" d="M1702,182.7c2.6-2.4,7.8,13.4,3.4,14.9-11.2.8-3.9-8.7-3.4-14.9Z"/>
      <path class="st39" d="M1950,257.8c.6,6.2,7.8,15.7-3.4,14.9-4.5-1.5.8-17.3,3.4-14.9Z"/>
      <path class="st39" d="M1737.2,182.7c.6,6.2,7.8,15.7-3.4,14.9-4.5-1.5.8-17.3,3.4-14.9Z"/>
      <path class="st51" d="M1753.2,182.7c.6,6.2,7.8,15.7-3.4,14.9-4.5-1.5.8-17.3,3.4-14.9Z"/>
      <path class="st51" d="M1966.1,257.8c.6,6.2,7.8,15.7-3.4,14.9-4.5-1.5.8-17.3,3.4-14.9Z"/>
      <path class="st33" d="M1729.1,195.7c.6,6.2,7.8,15.7-3.4,14.9-4.5-1.5.8-17.3,3.4-14.9Z"/>
      <path class="st39" d="M1890.8,241.8c2.6-2.4,7.8,13.4,3.4,14.9-11.2.8-3.9-8.7-3.4-14.9Z"/>
      <path class="st39" d="M1777.3,195.7c1.4,6.1,7.9,16.5-3.3,15.1-3.3-.8,0-11.8,1.1-13.8s0-1.7,2.2-1.3Z"/>
      <path class="st31" d="M1925.9,241.8c-.1,3.8,5.2,12,1,14.5-3.3,1.7-6.9,0-6.8-3.9s3.6-12.7,5.8-10.7Z"/>
      <path class="st33" d="M1942,241.8c.6,6.2,7.8,15.7-3.4,14.9-4.5-1.5.8-17.3,3.4-14.9Z"/>
      <path class="st29" d="M43.2,257.8c2.6-2.4,7.8,13.4,3.4,14.9-11.2.8-3.9-8.7-3.4-14.9Z"/>
      <path class="st45" d="M1034.3,226.8c.1,5.4,7.6,14.7-1.4,16.1-6.3-.6-2.2-11.2-.7-14.7s-.5-1.8,2.1-1.4Z"/>
      <path class="st39" d="M19.1,241.8c2.6-2.4,7.8,13.4,3.4,14.9-11.2.8-3.9-8.7-3.4-14.9Z"/>
      <path class="st45" d="M936.9,227.8c.6,6.2,7.8,15.7-3.4,14.9-4.5-1.5.8-17.3,3.4-14.9Z"/>
      <path class="st45" d="M950.9,227.8c2.6-2.4,7.8,13.4,3.4,14.9-11.2.8-3.9-8.7-3.4-14.9Z"/>
      <path class="st29" d="M27.1,257.8c2.6-2.4,7.8,13.4,3.4,14.9-11.2.8-3.9-8.7-3.4-14.9Z"/>
      <path class="st40" d="M1042.3,242.8c.1,5.4,7.6,14.7-1.4,16.1-6.3-.6-2.2-11.2-.7-14.7s-.5-1.8,2.1-1.4Z"/>
      <path class="st40" d="M1205,361.9c.3,3.9,7,16.8-1.4,16.1s-2.3-11.2-.6-14.7-.5-1.8,2.1-1.4Z"/>
      <path class="st48" d="M1662.9,354.9c2.6-2.4,7.8,13.4,3.4,14.9-2.6.6-5.2,0-6.2-2.6l2.9-12.3Z"/>
      <path class="st51" d="M1950,286.9l2.9,12.3c-1.1,2.6-3.6,3.2-6.2,2.6-4.5-1.5.8-17.3,3.4-14.9Z"/>
      <path class="st53" d="M1914.9,286.9c2.6-2.4,7.8,13.4,3.4,14.9-2.6.6-5.2,0-6.2-2.6l2.9-12.3Z"/>
      <path class="st33" d="M1884.8,286.9c2.1,2.1,6.6,19.1-3.3,15.1-3.6-.9.2-11.6,1.2-13.6s.3-3.1,2.1-1.4Z"/>
      <path class="st51" d="M78.3,286.9l2.9,12.3c-1.1,2.6-3.6,3.2-6.2,2.6-4.5-1.5.8-17.3,3.4-14.9Z"/>
      <path class="st53" d="M43.2,286.9c2.6-2.4,7.8,13.4,3.4,14.9-2.6.6-5.2,0-6.2-2.6l2.9-12.3Z"/>
      <path class="st33" d="M13,286.9c2.1,2.1,6.6,19.1-3.3,15.1-3.6-.9.2-11.6,1.2-13.6s.3-3.1,2.1-1.4Z"/>
      <path class="st31" d="M1925.9,270.8l2.9,12.3c-1.1,2.6-3.6,3.2-6.2,2.6-4.5-1.5.8-17.3,3.4-14.9Z"/>
      <path class="st40" d="M1205,107.6c.3,3.9,7,16.8-1.4,16.1-6-.5-2.3-11.2-.6-14.7s-.5-1.8,2.1-1.4Z"/>
      <path class="st31" d="M1906.9,270.8c2.6-2.4,7.8,13.4,3.4,14.9-2.6.6-5.2,0-6.2-2.6l2.9-12.3Z"/>
      <path class="st31" d="M134.5,270.8c1.3,1.2,4.7,12.6,2.1,14.6-10.1,2.5-6.8-7.5-4.2-13.2s.4-3,2.1-1.4Z"/>
      <path class="st31" d="M1737.2,211.8l2.9,12.3c-1.1,2.6-3.6,3.2-6.2,2.6-4.5-1.5.8-17.3,3.4-14.9Z"/>
      <path class="st31" d="M1694,195.7c2.6-2.4,7.8,13.4,3.4,14.9-2.6.6-5.2,0-6.2-2.6l2.9-12.3Z"/>
      <path class="st31" d="M1793.4,195.8c1.3,1.2,4.7,12.6,2.1,14.6-10.1,2.5-6.8-7.5-4.2-13.2s.4-3,2.1-1.4Z"/>
      <path class="st33" d="M1671.9,211.8c2.1,2.1,6.6,19.1-3.3,15.1-3.6-.9.2-11.6,1.2-13.6s.3-3.1,2.1-1.4Z"/>
      <path class="st31" d="M35.2,270.8c2.6-2.4,7.8,13.4,3.4,14.9-2.6.6-5.2,0-6.2-2.6l2.9-12.3Z"/>
      <path class="st31" d="M54.2,270.8l2.9,12.3c-1.1,2.6-3.6,3.2-6.2,2.6-4.5-1.5.8-17.3,3.4-14.9Z"/>
      <path class="st31" d="M1713.1,195.7l2.9,12.3c-1.1,2.6-3.6,3.2-6.2,2.6-4.5-1.5.8-17.3,3.4-14.9Z"/>
      <path class="st36" d="M1698,384l2.9,12.3c-1.1,2.6-3.6,3.2-6.2,2.6-4.5-1.5.8-17.3,3.4-14.9Z"/>
      <path class="st40" d="M1050.3,226.8c.3,3.9,7,16.8-1.4,16.1-6-.5-2.3-11.2-.6-14.7s-.5-1.8,2.1-1.4Z"/>
      <path class="st53" d="M1702,211.8c2.6-2.4,7.8,13.4,3.4,14.9-2.6.6-5.2,0-6.2-2.6l2.9-12.3Z"/>
      <path class="st33" d="M1719.6,211.8c3.5,5.6,8.4,18.3-3,14-3.1-1.8,2.2-14,3-14Z"/>
      <path class="st31" d="M1753.2,211.8c.9,5.1,7.3,18.3-3.4,14.9-3.6-1.2-.3-11,1.1-13.6s0-1.7,2.2-1.3Z"/>
      <path class="st46" d="M986.1,227.8c1.1,4.3,6.2,18.1-3.4,14.9s.8-17.3,3.4-14.9Z"/>
      <path class="st31" d="M35.2,241.8c2.6-2.4,7.8,13.4,3.4,14.9-9.6,3.2-4.4-10.6-3.4-14.9Z"/>
      <path class="st31" d="M1906.9,241.8c2.6-2.4,7.8,13.4,3.4,14.9-9.6,3.2-4.4-10.6-3.4-14.9Z"/>
      <path class="st41" d="M960.9,243.8c1.6,1.5,6,15.1-.5,15.1-7.3,0-3.4-9.8-1.6-13.7s.4-3,2.1-1.4Z"/>
      <path class="st46" d="M975,243.8c2.6-2.4,7.8,13.4,3.4,14.9-9.6,3.2-4.4-10.6-3.4-14.9Z"/>
      <path class="st45" d="M1196.9,153.7c.9,5.1,7.3,18.3-3.4,14.9s-.3-11,1.1-13.6,0-1.7,2.2-1.3Z"/>
      <path class="st33" d="M86.3,270.8c.9,5.1,7.3,18.3-3.4,14.9s-.3-11,1.1-13.6,0-1.7,2.2-1.3Z"/>
      <path class="st41" d="M1010.2,243.8c1.1,4.3,6.2,18.1-3.4,14.9s.8-17.3,3.4-14.9Z"/>
      <path class="st33" d="M1958.1,270.8c.9,5.1,7.3,18.3-3.4,14.9s-.3-11,1.1-13.6,0-1.7,2.2-1.3Z"/>
      <path class="st45" d="M944.9,272.8c1.3,1.3,5.4,14,.5,15-8.7,1.9-4.6-9.1-2.6-13.6s.4-3.1,2.1-1.4Z"/>
      <path class="st45" d="M1042.3,272.8c.9,5.1,7.3,18.3-3.4,14.9s-.3-11,1.1-13.6,0-1.7,2.2-1.3Z"/>
      <path class="st31" d="M29.1,286.9c1.6,1.5,6,15.1-.5,15.1s-3.4-9.8-1.6-13.7.4-3,2.1-1.4Z"/>
      <path class="st33" d="M60.8,286.9c3.5,5.6,8.4,18.3-3,14-3.1-1.8,2.2-14,3-14Z"/>
      <path class="st31" d="M94.4,286.8c.9,5.1,7.3,18.3-3.4,14.9s-.3-11,1.1-13.6,0-1.7,2.2-1.3Z"/>
      <path class="st31" d="M1900.8,286.9c1.6,1.5,6,15.1-.5,15.1-7.3,0-3.4-9.8-1.6-13.7s.4-3,2.1-1.4Z"/>
      <path class="st33" d="M1932.5,286.9c3.5,5.6,8.4,18.3-3,14-3.1-1.8,2.2-14,3-14Z"/>
      <path class="st31" d="M1966.1,286.8c.9,5.1,7.3,18.3-3.4,14.9-3.6-1.2-.3-11,1.1-13.6s0-1.7,2.2-1.3Z"/>
      <path class="st37" d="M1654.8,338.9c2.6-2.4,7.8,13.4,3.4,14.9-9.6,3.2-4.4-10.6-3.4-14.9Z"/>
      <path class="st37" d="M1673.9,338.9c1.1,4.3,6.2,18.1-3.4,14.9-4.5-1.5.8-17.3,3.4-14.9Z"/>
      <path class="st36" d="M1714.1,354.9c-.3,4,6.4,13,.3,14.8-5.5,1.7-5.6-1.8-5.1-6.1s2.6-11,4.8-8.8Z"/>
      <path class="st46" d="M1140.7,362.9c1.1,4.3,6.2,18.1-3.4,14.9s.8-17.3,3.4-14.9Z"/>
      <path class="st46" d="M1140.7,108.7c1.1,4.3,6.2,18.1-3.4,14.9-4.5-1.5.8-17.3,3.4-14.9Z"/>
      <path class="st41" d="M1115.6,124.7c1.6,1.5,6,15.1-.5,15.1s-3.4-9.8-1.6-13.7.4-3,2.1-1.4Z"/>
      <path class="st46" d="M1129.7,124.7c2.6-2.4,7.8,13.4,3.4,14.9-9.6,3.2-4.4-10.6-3.4-14.9Z"/>
      <path class="st28" d="M1738.2,367.9c1.3,1.3,5.4,14,.5,15-8.7,1.9-4.6-9.1-2.6-13.6s.4-3.1,2.1-1.4Z"/>
      <path class="st37" d="M1754.2,367.9c1.6,1.5,6,15.1-.5,15.1s-3.4-9.8-1.6-13.7.4-3,2.1-1.4Z"/>
      <path class="st41" d="M1164.8,124.7c1.1,4.3,6.2,18.1-3.4,14.9s.8-17.3,3.4-14.9Z"/>
      <path class="st45" d="M1099.5,153.7c1.3,1.3,5.4,14,.5,15-8.7,1.9-4.6-9.1-2.6-13.6s.4-3.1,2.1-1.4Z"/>
      <path class="st41" d="M1115.6,379c1.6,1.5,6,15.1-.5,15.1-7.3,0-3.4-9.8-1.6-13.7s.4-3,2.1-1.4Z"/>
      <path class="st46" d="M1129.7,379c2.6-2.4,7.8,13.4,3.4,14.9-9.6,3.2-4.4-10.6-3.4-14.9Z"/>
      <path class="st41" d="M1164.8,379c1.1,4.3,6.2,18.1-3.4,14.9-4.5-1.5.8-17.3,3.4-14.9Z"/>
      <path class="st48" d="M1632.7,384c1.3,1.3,5.4,14,.5,15-8.7,1.9-4.6-9.1-2.6-13.6s.4-3.1,2.1-1.4Z"/>
      <path class="st48" d="M1680.4,384c3.5,5.6,8.4,18.3-3,14-3.1-1.8,2.2-14,3-14Z"/>
      <path class="st31" d="M1694,166.7c2.6-2.4,7.8,13.4,3.4,14.9-9.6,3.2-4.4-10.6-3.4-14.9Z"/>
      <path class="st33" d="M1745.2,195.7c.9,5.1,7.3,18.3-3.4,14.9s-.3-11,1.1-13.6,0-1.7,2.2-1.3Z"/>
      <path class="st31" d="M1687.9,211.8c1.6,1.5,6,15.1-.5,15.1s-3.4-9.8-1.6-13.7.4-3,2.1-1.4Z"/>
      <path class="st45" d="M1050.3,256.8c1.4,1.4,6,15.1-.5,15.1s-3.3-9.8-1.6-13.7.4-3.1,2.1-1.4Z"/>
      <path class="st38" d="M1932.5,257.8c2.4,3.7,7.6,15.1,0,15.1s-2.4-11.4,0-15.1Z"/>
      <path class="st50" d="M1123.1,363c1.1,0,7.6,15.2,0,15.1s-1.2-15.1,0-15.1Z"/>
      <path class="st48" d="M1706,367.9c-.3,4,6.4,13,.3,14.8-8.5,2.6-4.8-9.4-2.5-13.6s0-1.7,2.2-1.3Z"/>
      <path class="st38" d="M60.8,257.8c2.4,3.7,7.6,15.1,0,15.1s-2.4-11.4,0-15.1Z"/>
      <path class="st46" d="M1002.1,256.8l2.9,12.3c-.8,3.2-8.8,6-7.6-3.5s2.6-11,4.8-8.8Z"/>
      <path class="st45" d="M1018.2,256.8c-.3,4,6.4,13,.3,14.8-8.5,2.6-4.8-9.4-2.5-13.6s0-1.7,2.2-1.3Z"/>
      <path class="st37" d="M1654.8,367.9c2.4-2.6,7.9,13.4,3.4,14.9-2.6.6-5.2,0-6.2-2.6l2.9-12.3Z"/>
      <path class="st50" d="M968.5,227.8c1.1,0,7.6,15.2,0,15.1s-1.2-15.1,0-15.1Z"/>
      <path class="st50" d="M1123.1,108.7c1.1,0,7.6,15.2,0,15.1-8.3,0-1.2-15.1,0-15.1Z"/>
      <path class="st45" d="M1205,392c1.4,1.4,6,15.1-.5,15.1s-3.3-9.8-1.6-13.7.4-3.1,2.1-1.4Z"/>
      <path class="st46" d="M1156.8,392l2.9,12.3c-.8,3.2-8.8,6-7.6-3.5.1-1.2,2.6-11,4.8-8.8Z"/>
      <path class="st38" d="M1719.6,182.8c2.4,3.7,7.6,15.1,0,15.1s-2.4-11.4,0-15.1Z"/>
      <path class="st37" d="M1714.1,384c-.3,4,6.4,13,.3,14.8-8.5,2.6-4.8-9.4-2.5-13.6s0-1.7,2.2-1.3Z"/>
      <path class="st37" d="M1648.8,384c1.4,1.4,6,15.1-.5,15.1s-3.3-9.8-1.6-13.7.4-3.1,2.1-1.4Z"/>
      <path class="st45" d="M1172.8,392c-.3,4,6.4,13,.3,14.8-8.5,2.6-4.8-9.4-2.5-13.6s0-1.7,2.2-1.3Z"/>
      <path class="st46" d="M1156.8,137.7l2.9,12.3c-.8,3.2-8.8,6-7.6-3.5.1-1.2,2.6-11,4.8-8.8Z"/>
      <path class="st45" d="M1172.8,137.7c-.3,4,6.4,13,.3,14.8s-4.8-9.4-2.5-13.6,0-1.7,2.2-1.3Z"/>
      <path class="st45" d="M1205,137.7c1.4,1.4,6,15.1-.5,15.1s-3.3-9.8-1.6-13.7.4-3.1,2.1-1.4Z"/>
      <path class="st37" d="M1672.4,368c2.2,3.8,8.1,15,0,15.1s-1.1-15.1,0-15.1Z"/>
      <path class="st46" d="M1221,392c1.4,1.4,6,15.2-.5,15.1s-3.5-9.6-1.6-13.7.4-3.1,2.1-1.4Z"/>
      <path class="st46" d="M961,272.8c1.4,1.4,6,15.2-.5,15.1s-3.5-9.6-1.6-13.7.4-3.1,2.1-1.4Z"/>
      <path class="st46" d="M1066.4,256.8c1.4,1.4,6,15.2-.5,15.1s-3.5-9.6-1.6-13.7.4-3.1,2.1-1.4Z"/>
      <path class="st41" d="M976.5,272.9c1.1,0,7.6,15.2,0,15.1s-2.2-11.3,0-15.1Z"/>
      <path class="st46" d="M1026.2,272.8l2.9,12.3c-10,8.8-8.8-4.4-5.1-11,.6-1.2,0-1.7,2.2-1.3Z"/>
      <path class="st46" d="M1115.6,153.7c1.4,1.4,6,15.2-.5,15.1s-3.5-9.6-1.6-13.7.4-3.1,2.1-1.4Z"/>
      <path class="st36" d="M1664.4,384c1.1,0,7.6,15.2,0,15.1s-2.2-11.3,0-15.1Z"/>
      <path class="st41" d="M1131.2,153.7c1.1,0,7.6,15.2,0,15.1s-2.2-11.3,0-15.1Z"/>
      <path class="st46" d="M1221,137.7c1.4,1.4,6,15.2-.5,15.1s-3.5-9.6-1.6-13.7.4-3.1,2.1-1.4Z"/>
      <path class="st46" d="M1180.9,153.7l2.9,12.3c-10,8.8-8.8-4.4-5.1-11s0-1.7,2.2-1.3Z"/>
      <path class="st45" d="M1018.2,227.8c-.3,3.6,3.3,8.3,3,11.5-.4,3.8-5.5,4.9-7.6,1.5-1.2-2.5.9-9.3,2.3-11.7s0-1.7,2.2-1.3Z"/>
      <path class="st46" d="M1123.1,392c1.9,0,8.1,19.4-2.5,14.5-4-1.6,1.6-14.5,2.5-14.5Z"/>
      <path class="st46" d="M1139.2,392c.9,0,6.6,12.9,2.5,14.5-10.6,4.9-4.4-14.5-2.5-14.5Z"/>
      <path class="st46" d="M968.5,256.8c1.9,0,8.1,19.4-2.5,14.5-4-1.6,1.6-14.5,2.5-14.5Z"/>
      <path class="st45" d="M992.6,272.9c.9,0,6.6,12.9,2.5,14.5-10.6,4.9-4.4-14.5-2.5-14.5Z"/>
      <path class="st50" d="M1180.9,124.7c-.3,3.6,3.3,8.3,3,11.5s-5.5,4.9-7.6,1.5c-1.2-2.5.9-9.3,2.3-11.7s0-1.7,2.2-1.3Z"/>
      <path class="st45" d="M1172.8,108.6c-.3,3.6,3.3,8.3,3,11.5s-5.5,4.9-7.6,1.5c-1.2-2.5.9-9.3,2.3-11.7s0-1.7,2.2-1.3Z"/>
      <path class="st36" d="M1680.4,354.9c.9,0,6.6,12.9,2.5,14.5-10.6,4.9-4.4-14.5-2.5-14.5Z"/>
      <path class="st46" d="M984.6,256.8c.9,0,6.6,12.9,2.5,14.5-10.6,4.9-4.4-14.5-2.5-14.5Z"/>
      <path class="st45" d="M1147.2,153.7c.9,0,6.6,12.9,2.5,14.5-10.6,4.9-4.4-14.5-2.5-14.5Z"/>
      <path class="st45" d="M1172.8,362.9c-.3,3.6,3.3,8.3,3,11.5s-5.5,4.9-7.6,1.5c-1.2-2.5.9-9.3,2.3-11.7s0-1.7,2.2-1.3Z"/>
      <path class="st46" d="M1139.2,137.7c.9,0,6.6,12.9,2.5,14.5-10.6,4.9-4.4-14.5-2.5-14.5Z"/>
      <path class="st46" d="M1123.1,137.7c1.9,0,8.1,19.4-2.5,14.5-4-1.6,1.6-14.5,2.5-14.5Z"/>
      <path class="st50" d="M1180.9,378.9c-.3,3.6,3.3,8.3,3,11.5s-5.5,4.9-7.6,1.5c-1.2-2.5.9-9.3,2.3-11.7s0-1.7,2.2-1.3Z"/>
      <path class="st50" d="M1026.2,243.8c-.3,3.6,3.3,8.3,3,11.5s-5.5,4.9-7.6,1.5c-1.2-2.5.9-9.3,2.3-11.7s0-1.7,2.2-1.3Z"/>
      <path class="st30" d="M1147.2,124.7c1,0,7.6,15.1,0,15.1s-1-15.1,0-15.1Z"/>
      <path class="st30" d="M1008.2,272.8c.7-.6,9.6,15,.5,15.1-7.4,0-1.2-11-.5-15.1Z"/>
      <path class="st30" d="M1147.2,379c1,0,7.6,15.1,0,15.1s-1-15.1,0-15.1Z"/>
      <path class="st30" d="M1162.8,153.7c.7-.6,9.6,15,.5,15.1-7.4,0-1.2-11-.5-15.1Z"/>
      <path class="st30" d="M992.6,243.8c1,0,7.6,15.1,0,15.1-7.6,0-1-15.1,0-15.1Z"/>
      <path class="st32" d="M359.5,9.5c.3.3,2.1,6.4,1.9,7.3-1.2,4.6-8.2,3.3-4-5.9s.4-3.1,2.1-1.4Z"/>
      <path class="st35" d="M388.1,9.6c1.4,0,4.3,8.9,1,10-5.3,1.7-3.6-8.6-1-10Z"/>
      <path class="st32" d="M374.5,17.5l1.8,7.4-3.2,2.6c-3.7-1.8-2.6-5.7-.9-8.7s0-1.7,2.2-1.3Z"/>
      <path class="st35" d="M393.1,17.6c1.4,0,4.3,8.9,1,10-5.3,1.7-3.6-8.6-1-10Z"/>
      <path class="st47" d="M369.5,9.5l1.8,7.4-3.2,2.6c-3.6-1.6-2.1-5.9-.9-8.7s0-1.6,2.2-1.3Z"/>
      <path class="st35" d="M379.6,9.5l.9,8.3c-.9,2.9-5.4,2.6-4.7-2.6s2.1-7.8,3.8-5.8Z"/>
      <path class="st47" d="M364.5,17.5c.3.3,1.9,6.8,1.8,7.4-.8,4.2-8.2,3.5-3.9-6s.4-3.1,2.1-1.4Z"/>
      <path class="st35" d="M384.6,17.5l.9,8.3c-.9,2.9-5.4,2.6-4.7-2.6s2.1-7.8,3.8-5.8Z"/>
      <path class="st35" d="M346.4,36.6c-.8-4,1.6-14.3,4.4-5.8s.8,6.4-4.4,5.8Z"/>
      <path class="st42" d="M398.6,9.5c.3.3,2.1,6.4,1.9,7.3-.8,3.1-4.7,4.1-5-.8s.9-8.7,3.1-6.5Z"/>
      <path class="st47" d="M408.7,9.5l1.8,7.4c-.8,4.2-8.3,3.5-3.9-6s-.5-1.8,2.1-1.4Z"/>
      <path class="st32" d="M418.7,9.5c.1,3.2,3.2,9-1.5,10-3.5-2.1-2.5-5.6-.7-8.7s0-1.7,2.2-1.3Z"/>
      <path class="st32" d="M403.7,17.5c.3.3,2.1,6.4,1.9,7.3-.8,3.1-4.7,4.1-5-.8s.9-8.7,3.1-6.5Z"/>
      <path class="st42" d="M413.7,17.5l1.8,7.4c-.8,4.2-8.3,3.5-3.9-6s-.5-1.8,2.1-1.4Z"/>
      <path class="st32" d="M369.5,27.6l2,7.4c-.7,3.1-9.3,2.9-4.2-6.2s0-1.7,2.2-1.3Z"/>
      <path class="st32" d="M359.5,27.6l2,7.4c-6.7,4.8-6.2-1.2-4-6s-.5-1.8,2.1-1.4Z"/>
      <path class="st42" d="M423.7,17.5c.1,3.2,3.2,9-1.5,10-3.5-2.1-2.5-5.6-.7-8.7s0-1.7,2.2-1.3Z"/>
      <path class="st39" d="M408.7,27.6l1.9,7.4c-6.7,4.7-6.2-1.2-4-6s-.5-1.8,2.1-1.4Z"/>
      <path class="st35" d="M390.6,36.6h-5c0-3.1.2-6.7,2.5-9,2.3,2.3,2.6,5.9,2.5,9Z"/>
      <path class="st32" d="M379.6,27.6l1,9-5-1.6c-.2-1.1,1.9-9.4,3.9-7.4Z"/>
      <path class="st32" d="M398.6,27.6l2,7.4-5,1.6c-.5-1.1.5-11.5,3-9Z"/>
    </g>
  </g>
</svg>