<?xml version="1.0" encoding="UTF-8"?>
<svg id="Layer_1" xmlns="http://www.w3.org/2000/svg" version="1.1" xmlns:xlink="http://www.w3.org/1999/xlink" viewBox="0 0 49 49">
  <!-- Generator: Adobe Illustrator 29.2.0, SVG Export Plug-In . SVG Version: 2.1.0 Build 22)  -->
  <defs>
    <style>
      .st0 {
        fill: none;
        stroke: url(#linear-gradient);
        stroke-miterlimit: 10;
      }

      .st1 {
        fill: #fff;
      }
    </style>
    <linearGradient id="linear-gradient" x1="1" y1="25.5" x2="46.7" y2="25.5" gradientTransform="translate(0 50) scale(1 -1)" gradientUnits="userSpaceOnUse">
      <stop offset="0" stop-color="#787dff"/>
      <stop offset="1" stop-color="#48bed8"/>
    </linearGradient>
  </defs>
  <path class="st0" d="M48,24.5c0-13-10.5-23.5-23.5-23.5S1,11.5,1,24.5s10.5,23.5,23.5,23.5,23.5-10.5,23.5-23.5Z"/>
  <path class="st1" d="M19.6,34.1l14-8.5c.2-.1.4-.3.5-.5.1-.2.2-.4.2-.7s0-.5-.2-.7c-.1-.2-.3-.4-.5-.5l-14-8.5c-.2-.1-.4-.2-.7-.2-.2,0-.5,0-.7.2-.2.1-.4.3-.5.5-.1.2-.2.4-.2.7v16.9c0,.2,0,.5.2.7.1.2.3.4.5.5.2.1.4.2.7.2.2,0,.5,0,.7-.2Z"/>
</svg>