<?xml version="1.0" encoding="UTF-8"?>
<svg xmlns="http://www.w3.org/2000/svg" xmlns:xlink="http://www.w3.org/1999/xlink" viewBox="0 0 1431.39 949.96">
  <defs>
    <style>
      .cls-1 {
        font-size: 13.26px;
      }

      .cls-1, .cls-2, .cls-3, .cls-4, .cls-5, .cls-6, .cls-7, .cls-8, .cls-9, .cls-10, .cls-11, .cls-12, .cls-13, .cls-14, .cls-15, .cls-16, .cls-17, .cls-18, .cls-19, .cls-20, .cls-21, .cls-22, .cls-23, .cls-24, .cls-25 {
        fill: #fff;
      }

      .cls-1, .cls-3, .cls-6, .cls-9, .cls-12, .cls-15, .cls-16, .cls-18, .cls-21, .cls-25 {
        font-family: Poppins-SemiBold, Poppins;
        font-weight: 600;
      }

      .cls-26 {
        fill: url(#linear-gradient-61);
      }

      .cls-27 {
        fill: url(#linear-gradient-15);
      }

      .cls-28 {
        fill: url(#linear-gradient-13);
      }

      .cls-29 {
        fill: url(#linear-gradient-28);
      }

      .cls-30 {
        fill: url(#linear-gradient-65);
      }

      .cls-31 {
        fill: url(#linear-gradient-39);
        filter: url(#drop-shadow-7);
      }

      .cls-32 {
        fill: url(#linear-gradient-69);
      }

      .cls-33 {
        fill: url(#linear-gradient-53);
      }

      .cls-34 {
        fill: url(#linear-gradient-42);
      }

      .cls-35 {
        fill: url(#linear-gradient-46);
      }

      .cls-36 {
        fill: url(#linear-gradient-70);
      }

      .cls-37 {
        fill: url(#linear-gradient-60);
      }

      .cls-38 {
        fill: url(#linear-gradient-64);
      }

      .cls-39 {
        fill: #d757f2;
      }

      .cls-2 {
        letter-spacing: -.02em;
      }

      .cls-2, .cls-4, .cls-5, .cls-7, .cls-11, .cls-13, .cls-40 {
        font-family: Poppins-MediumItalic, Poppins;
        font-style: italic;
        font-weight: 500;
      }

      .cls-2, .cls-7 {
        font-size: 13.27px;
      }

      .cls-41 {
        fill: url(#linear-gradient-35);
      }

      .cls-41, .cls-42, .cls-43, .cls-44, .cls-45, .cls-46, .cls-47, .cls-48 {
        fill-opacity: .4;
      }

      .cls-49 {
        fill: url(#linear-gradient-56);
      }

      .cls-3 {
        font-size: 13px;
      }

      .cls-50 {
        fill: url(#linear-gradient-43);
      }

      .cls-51 {
        fill: url(#linear-gradient-82);
      }

      .cls-52 {
        fill: url(#linear-gradient-10);
      }

      .cls-53 {
        fill: url(#linear-gradient-12);
      }

      .cls-4, .cls-5, .cls-40 {
        font-size: 10.88px;
      }

      .cls-4, .cls-40 {
        letter-spacing: -.03em;
      }

      .cls-54 {
        fill: url(#linear-gradient-40);
      }

      .cls-55 {
        fill: url(#linear-gradient-27);
      }

      .cls-56 {
        fill: url(#linear-gradient-68);
      }

      .cls-5 {
        letter-spacing: -.02em;
      }

      .cls-57 {
        fill: url(#linear-gradient-37);
        filter: url(#drop-shadow-6);
      }

      .cls-6 {
        font-size: 12.84px;
      }

      .cls-58 {
        fill: url(#linear-gradient-75);
      }

      .cls-59 {
        fill: url(#linear-gradient-25);
        filter: url(#drop-shadow-4);
      }

      .cls-60 {
        fill: url(#linear-gradient-55);
      }

      .cls-7 {
        letter-spacing: -.03em;
      }

      .cls-9 {
        letter-spacing: -.04em;
      }

      .cls-9, .cls-18 {
        font-size: 25.23px;
      }

      .cls-42 {
        fill: url(#linear-gradient-87);
      }

      .cls-42, .cls-43, .cls-44, .cls-45, .cls-46, .cls-47, .cls-48 {
        stroke: #fff;
        stroke-miterlimit: 10;
      }

      .cls-42, .cls-44, .cls-47, .cls-48 {
        stroke-width: 2.08px;
      }

      .cls-61 {
        fill: url(#linear-gradient-52);
      }

      .cls-10 {
        font-size: 15.95px;
      }

      .cls-10, .cls-14, .cls-17, .cls-19, .cls-22 {
        font-family: Poppins-Bold, Poppins;
        font-weight: 700;
      }

      .cls-11 {
        font-size: 6.51px;
        letter-spacing: -.02em;
      }

      .cls-62 {
        fill: url(#linear-gradient-58);
      }

      .cls-63 {
        fill: url(#linear-gradient-47);
      }

      .cls-64 {
        fill: url(#linear-gradient-26);
      }

      .cls-65 {
        fill: url(#linear-gradient-74);
      }

      .cls-66 {
        fill: url(#linear-gradient-72);
      }

      .cls-67 {
        fill: url(#linear-gradient-4);
      }

      .cls-12 {
        font-size: 31.73px;
        letter-spacing: -.04em;
      }

      .cls-68 {
        fill: url(#linear-gradient-20);
        filter: url(#drop-shadow-3);
      }

      .cls-69 {
        fill: url(#linear-gradient-76);
      }

      .cls-70 {
        fill: #1595aa;
      }

      .cls-71 {
        fill: url(#linear-gradient-73);
      }

      .cls-72 {
        fill: url(#linear-gradient-71);
      }

      .cls-73 {
        fill: url(#linear-gradient-44);
      }

      .cls-13 {
        font-size: 10.47px;
        letter-spacing: -.03em;
      }

      .cls-74 {
        opacity: .41;
      }

      .cls-75 {
        fill: url(#linear-gradient-49);
      }

      .cls-76 {
        fill: url(#linear-gradient-34);
      }

      .cls-77 {
        fill: url(#linear-gradient-5);
      }

      .cls-78 {
        fill: url(#linear-gradient-30);
        filter: url(#drop-shadow-5);
      }

      .cls-79 {
        fill: url(#linear-gradient-38);
      }

      .cls-80 {
        fill: url(#linear-gradient-22);
      }

      .cls-81 {
        fill: url(#linear-gradient-24);
      }

      .cls-43 {
        fill: url(#linear-gradient-2);
      }

      .cls-43, .cls-45, .cls-46 {
        stroke-width: 2px;
      }

      .cls-14 {
        font-size: 31.67px;
      }

      .cls-82 {
        fill: url(#linear-gradient-54);
      }

      .cls-44 {
        fill: url(#linear-gradient-86);
      }

      .cls-83 {
        fill: url(#linear-gradient-33);
      }

      .cls-84 {
        fill: url(#linear-gradient-79);
      }

      .cls-85 {
        fill: url(#linear-gradient-78);
      }

      .cls-86 {
        fill: url(#linear-gradient-51);
      }

      .cls-87 {
        fill: url(#linear-gradient-8);
      }

      .cls-88 {
        fill: url(#linear-gradient-57);
      }

      .cls-89 {
        fill: url(#linear-gradient-77);
      }

      .cls-90 {
        fill: #0080a5;
      }

      .cls-15, .cls-20 {
        font-size: 13.63px;
      }

      .cls-91 {
        fill: url(#linear-gradient-14);
      }

      .cls-92 {
        fill: url(#linear-gradient-62);
      }

      .cls-16 {
        font-size: 4.05px;
      }

      .cls-17, .cls-23 {
        font-size: 15.22px;
      }

      .cls-93, .cls-40 {
        fill: #7fff5b;
      }

      .cls-94 {
        fill: url(#linear-gradient-29);
      }

      .cls-95 {
        fill: url(#linear-gradient-67);
      }

      .cls-96 {
        fill: url(#linear-gradient-11);
        filter: url(#drop-shadow-2);
      }

      .cls-18 {
        letter-spacing: -.05em;
      }

      .cls-97 {
        fill: url(#linear-gradient-17);
      }

      .cls-98 {
        fill: url(#linear-gradient-50);
      }

      .cls-99 {
        fill: url(#linear-gradient-7);
      }

      .cls-100 {
        fill: #48bed8;
      }

      .cls-101 {
        fill: url(#linear-gradient-9);
      }

      .cls-19 {
        font-size: 37.03px;
      }

      .cls-102 {
        fill: url(#linear-gradient-41);
        filter: url(#drop-shadow-8);
      }

      .cls-20 {
        font-family: OpenSans, 'Open Sans';
      }

      .cls-103 {
        fill: url(#linear-gradient-59);
      }

      .cls-21 {
        font-size: 9.41px;
      }

      .cls-104 {
        fill: url(#linear-gradient-19);
      }

      .cls-105 {
        fill: url(#linear-gradient-80);
      }

      .cls-106 {
        fill: url(#linear-gradient-6);
      }

      .cls-45 {
        fill: url(#linear-gradient-90);
      }

      .cls-107 {
        fill: #fffbfb;
      }

      .cls-108 {
        fill: url(#linear-gradient-83);
      }

      .cls-22 {
        font-size: 33.88px;
      }

      .cls-109 {
        fill: #0b163f;
      }

      .cls-110 {
        fill: url(#linear-gradient-36);
      }

      .cls-111 {
        fill: url(#linear-gradient-21);
      }

      .cls-112 {
        fill: url(#linear-gradient-45);
      }

      .cls-23 {
        font-family: Poppins-Light, Poppins;
      }

      .cls-23, .cls-24 {
        font-weight: 300;
      }

      .cls-113 {
        fill: url(#linear-gradient-85);
      }

      .cls-114 {
        fill: url(#linear-gradient-81);
      }

      .cls-24 {
        font-family: OpenSans-Light, 'Open Sans';
        font-size: 5.91px;
      }

      .cls-115 {
        fill: url(#linear-gradient-84);
      }

      .cls-46 {
        fill: url(#linear-gradient);
      }

      .cls-116 {
        fill: url(#linear-gradient-48);
      }

      .cls-117 {
        fill: url(#linear-gradient-66);
        filter: url(#drop-shadow-9);
      }

      .cls-118 {
        fill: url(#linear-gradient-32);
      }

      .cls-119 {
        fill: #2ab4ff;
      }

      .cls-120 {
        fill: url(#linear-gradient-16);
      }

      .cls-121 {
        fill: url(#linear-gradient-23);
      }

      .cls-122 {
        fill: url(#linear-gradient-31);
      }

      .cls-123 {
        fill: url(#linear-gradient-3);
        filter: url(#drop-shadow-1);
      }

      .cls-124 {
        fill: url(#linear-gradient-63);
      }

      .cls-47 {
        fill: url(#linear-gradient-88);
      }

      .cls-48 {
        fill: url(#linear-gradient-89);
      }

      .cls-125 {
        fill: url(#linear-gradient-18);
      }

      .cls-25 {
        font-size: 10.91px;
      }
    </style>
    <linearGradient id="linear-gradient" x1="506.96" y1="780.75" x2="883.34" y2="780.75" gradientUnits="userSpaceOnUse">
      <stop offset="0" stop-color="#7582fc"/>
      <stop offset="1" stop-color="#49bcd9"/>
    </linearGradient>
    <linearGradient id="linear-gradient-2" x1="73.82" y1="724.04" x2="1305.74" y2="724.04" xlink:href="#linear-gradient"/>
    <linearGradient id="linear-gradient-3" x1="368.63" y1="246.03" x2="565.12" y2="246.03" xlink:href="#linear-gradient"/>
    <filter id="drop-shadow-1" x="359.39" y="121.96" width="221" height="254" filterUnits="userSpaceOnUse">
      <feOffset dx="3" dy="3"/>
      <feGaussianBlur result="blur" stdDeviation="4"/>
      <feFlood flood-color="#031926" flood-opacity=".45"/>
      <feComposite in2="blur" operator="in"/>
      <feComposite in="SourceGraphic"/>
    </filter>
    <linearGradient id="linear-gradient-4" x1="492.02" y1="317.24" x2="398.42" y2="223.64" gradientUnits="userSpaceOnUse">
      <stop offset="0" stop-color="#8056f4"/>
      <stop offset="1" stop-color="#d757f2"/>
    </linearGradient>
    <linearGradient id="linear-gradient-5" x1="511.52" y1="297.74" x2="417.92" y2="204.14" xlink:href="#linear-gradient-4"/>
    <linearGradient id="linear-gradient-6" x1="544.55" y1="264.7" x2="450.96" y2="171.11" xlink:href="#linear-gradient-4"/>
    <linearGradient id="linear-gradient-7" x1="492.02" y1="317.24" x2="398.42" y2="223.64" xlink:href="#linear-gradient-4"/>
    <linearGradient id="linear-gradient-8" x1="466.87" y1="187.03" x2="532.94" y2="187.03" gradientUnits="userSpaceOnUse">
      <stop offset="0" stop-color="#183351"/>
      <stop offset="1" stop-color="#0c2842"/>
    </linearGradient>
    <linearGradient id="linear-gradient-9" x1="511.52" y1="297.74" x2="417.92" y2="204.14" xlink:href="#linear-gradient-4"/>
    <linearGradient id="linear-gradient-10" x1="544.55" y1="264.7" x2="450.96" y2="171.11" xlink:href="#linear-gradient-4"/>
    <linearGradient id="linear-gradient-11" x1="596.14" y1="246.03" x2="792.62" y2="246.03" xlink:href="#linear-gradient"/>
    <filter id="drop-shadow-2" x="586.39" y="121.96" width="222" height="254" filterUnits="userSpaceOnUse">
      <feOffset dx="3" dy="3"/>
      <feGaussianBlur result="blur-2" stdDeviation="4"/>
      <feFlood flood-color="#031926" flood-opacity=".45"/>
      <feComposite in2="blur-2" operator="in"/>
      <feComposite in="SourceGraphic"/>
    </filter>
    <linearGradient id="linear-gradient-12" x1="702.3" y1="300.01" x2="612.85" y2="210.56" gradientUnits="userSpaceOnUse">
      <stop offset="0" stop-color="#8056f4"/>
      <stop offset="1" stop-color="#2ab4ff"/>
    </linearGradient>
    <linearGradient id="linear-gradient-13" x1="721.8" y1="280.51" x2="632.35" y2="191.06" xlink:href="#linear-gradient-12"/>
    <linearGradient id="linear-gradient-14" x1="774.33" y1="227.98" x2="684.88" y2="138.53" xlink:href="#linear-gradient-12"/>
    <linearGradient id="linear-gradient-15" x1="754.84" y1="247.48" x2="665.38" y2="158.03" xlink:href="#linear-gradient-12"/>
    <linearGradient id="linear-gradient-16" x1="702.3" y1="300.01" x2="612.85" y2="210.56" xlink:href="#linear-gradient-12"/>
    <linearGradient id="linear-gradient-17" x1="694.38" y1="169.13" x2="741.1" y2="169.13" xlink:href="#linear-gradient-8"/>
    <linearGradient id="linear-gradient-18" x1="721.8" y1="280.51" x2="632.35" y2="191.06" xlink:href="#linear-gradient-12"/>
    <linearGradient id="linear-gradient-19" x1="754.84" y1="247.48" x2="665.38" y2="158.03" xlink:href="#linear-gradient-12"/>
    <linearGradient id="linear-gradient-20" x1="819.29" y1="246.03" x2="1015.78" y2="246.03" xlink:href="#linear-gradient"/>
    <filter id="drop-shadow-3" x="809.39" y="121.96" width="222" height="254" filterUnits="userSpaceOnUse">
      <feOffset dx="3" dy="3"/>
      <feGaussianBlur result="blur-3" stdDeviation="4"/>
      <feFlood flood-color="#031926" flood-opacity=".45"/>
      <feComposite in2="blur-3" operator="in"/>
      <feComposite in="SourceGraphic"/>
    </filter>
    <linearGradient id="linear-gradient-21" x1="892.95" y1="267.51" x2="823.68" y2="198.24" xlink:href="#linear-gradient-4"/>
    <linearGradient id="linear-gradient-22" x1="870.82" y1="220.06" x2="983.6" y2="220.06" xlink:href="#linear-gradient-8"/>
    <linearGradient id="linear-gradient-23" x1="912.45" y1="248.01" x2="843.18" y2="178.74" xlink:href="#linear-gradient-4"/>
    <linearGradient id="linear-gradient-24" x1="945.48" y1="214.97" x2="876.21" y2="145.7" xlink:href="#linear-gradient-4"/>
    <linearGradient id="linear-gradient-25" x1="1044.26" y1="181.74" x2="1189.73" y2="181.74" xlink:href="#linear-gradient"/>
    <filter id="drop-shadow-4" x="1034.39" y="121.96" width="171" height="126" filterUnits="userSpaceOnUse">
      <feOffset dx="3" dy="3"/>
      <feGaussianBlur result="blur-4" stdDeviation="4"/>
      <feFlood flood-color="#031926" flood-opacity=".45"/>
      <feComposite in2="blur-4" operator="in"/>
      <feComposite in="SourceGraphic"/>
    </filter>
    <linearGradient id="linear-gradient-26" x1="1060.91" y1="175.48" x2="1173.64" y2="175.48" xlink:href="#linear-gradient-4"/>
    <linearGradient id="linear-gradient-27" x1="1133.39" y1="216.05" x2="1078.54" y2="161.2" xlink:href="#linear-gradient-12"/>
    <linearGradient id="linear-gradient-28" x1="1060.91" y1="206.59" x2="1173.64" y2="206.59" xlink:href="#linear-gradient-4"/>
    <linearGradient id="linear-gradient-29" x1="1119.67" y1="244.19" x2="1065.06" y2="189.57" xlink:href="#linear-gradient-12"/>
    <linearGradient id="linear-gradient-30" x1="1044.26" y1="310.32" x2="1189.73" y2="310.32" gradientUnits="userSpaceOnUse">
      <stop offset="0" stop-color="#315184"/>
      <stop offset="1" stop-color="#1b3e70"/>
    </linearGradient>
    <filter id="drop-shadow-5" x="1034.39" y="249.96" width="171" height="126" filterUnits="userSpaceOnUse">
      <feOffset dx="3" dy="3"/>
      <feGaussianBlur result="blur-5" stdDeviation="4"/>
      <feFlood flood-color="#031926" flood-opacity=".45"/>
      <feComposite in2="blur-5" operator="in"/>
      <feComposite in="SourceGraphic"/>
    </filter>
    <linearGradient id="linear-gradient-31" x1="1060.91" y1="302.28" x2="1173.64" y2="302.28" xlink:href="#linear-gradient-4"/>
    <linearGradient id="linear-gradient-32" x1="1133.39" y1="342.84" x2="1078.54" y2="287.99" xlink:href="#linear-gradient-12"/>
    <linearGradient id="linear-gradient-33" x1="1060.91" y1="333.39" x2="1173.64" y2="333.39" xlink:href="#linear-gradient-4"/>
    <linearGradient id="linear-gradient-34" x1="1119.67" y1="370.99" x2="1065.06" y2="316.37" xlink:href="#linear-gradient-12"/>
    <linearGradient id="linear-gradient-35" x1="11.18" y1="125.66" x2="345.41" y2="459.89" xlink:href="#linear-gradient"/>
    <linearGradient id="linear-gradient-36" x1="152.39" y1="212.89" x2="323.39" y2="212.89" gradientUnits="userSpaceOnUse">
      <stop offset="0" stop-color="#7581fc"/>
      <stop offset="1" stop-color="#49bcd9"/>
    </linearGradient>
    <linearGradient id="linear-gradient-37" x1="368.63" y1="436.22" x2="792.62" y2="436.22" xlink:href="#linear-gradient"/>
    <filter id="drop-shadow-6" x="359.39" y="375.96" width="449" height="127" filterUnits="userSpaceOnUse">
      <feOffset dx="3" dy="3"/>
      <feGaussianBlur result="blur-6" stdDeviation="4"/>
      <feFlood flood-color="#031926" flood-opacity=".45"/>
      <feComposite in2="blur-6" operator="in"/>
      <feComposite in="SourceGraphic"/>
    </filter>
    <linearGradient id="linear-gradient-38" x1="400.1" y1="437.97" x2="463.73" y2="437.97" xlink:href="#linear-gradient-36"/>
    <linearGradient id="linear-gradient-39" x1="368.63" y1="562.39" x2="792.62" y2="562.39" xlink:href="#linear-gradient"/>
    <filter id="drop-shadow-7" x="359.39" y="501.96" width="449" height="127" filterUnits="userSpaceOnUse">
      <feOffset dx="3" dy="3"/>
      <feGaussianBlur result="blur-7" stdDeviation="4"/>
      <feFlood flood-color="#031926" flood-opacity=".45"/>
      <feComposite in2="blur-7" operator="in"/>
      <feComposite in="SourceGraphic"/>
    </filter>
    <linearGradient id="linear-gradient-40" x1="400.1" y1="565.83" x2="463.73" y2="565.83" gradientTransform="translate(526.61 -139.68) rotate(45)" xlink:href="#linear-gradient-36"/>
    <linearGradient id="linear-gradient-41" x1="817.79" y1="499.57" x2="1188.42" y2="499.57" xlink:href="#linear-gradient"/>
    <filter id="drop-shadow-8" x="808.39" y="375.96" width="396" height="253" filterUnits="userSpaceOnUse">
      <feOffset dx="3" dy="3"/>
      <feGaussianBlur result="blur-8" stdDeviation="4"/>
      <feFlood flood-color="#031926" flood-opacity=".45"/>
      <feComposite in2="blur-8" operator="in"/>
      <feComposite in="SourceGraphic"/>
    </filter>
    <linearGradient id="linear-gradient-42" x1="849.77" y1="580.72" x2="849.77" y2="512.8" xlink:href="#linear-gradient-4"/>
    <linearGradient id="linear-gradient-43" x1="854.87" y1="609.41" x2="854.87" y2="525.52" xlink:href="#linear-gradient-12"/>
    <linearGradient id="linear-gradient-44" x1="878.08" y1="580.72" x2="878.08" y2="512.8" xlink:href="#linear-gradient-4"/>
    <linearGradient id="linear-gradient-45" x1="883.18" y1="609.41" x2="883.18" y2="525.52" xlink:href="#linear-gradient-12"/>
    <linearGradient id="linear-gradient-46" x1="906.39" y1="580.72" x2="906.39" y2="512.8" xlink:href="#linear-gradient-4"/>
    <linearGradient id="linear-gradient-47" x1="911.49" y1="609.41" x2="911.49" y2="525.52" xlink:href="#linear-gradient-12"/>
    <linearGradient id="linear-gradient-48" x1="934.7" y1="580.72" x2="934.7" y2="512.8" xlink:href="#linear-gradient-4"/>
    <linearGradient id="linear-gradient-49" x1="939.79" y1="609.41" x2="939.79" y2="525.52" xlink:href="#linear-gradient-12"/>
    <linearGradient id="linear-gradient-50" x1="963.01" y1="580.72" x2="963.01" y2="512.8" xlink:href="#linear-gradient-4"/>
    <linearGradient id="linear-gradient-51" x1="968.1" y1="607.87" x2="968.1" y2="531.01" xlink:href="#linear-gradient-12"/>
    <linearGradient id="linear-gradient-52" x1="991.32" y1="580.72" x2="991.32" y2="512.8" xlink:href="#linear-gradient-4"/>
    <linearGradient id="linear-gradient-53" x1="996.41" y1="609.41" x2="996.41" y2="525.52" xlink:href="#linear-gradient-12"/>
    <linearGradient id="linear-gradient-54" x1="1019.63" y1="580.72" x2="1019.63" y2="512.8" xlink:href="#linear-gradient-4"/>
    <linearGradient id="linear-gradient-55" x1="1024.72" y1="609.41" x2="1024.72" y2="525.52" xlink:href="#linear-gradient-12"/>
    <linearGradient id="linear-gradient-56" x1="1047.93" y1="580.72" x2="1047.93" y2="512.8" xlink:href="#linear-gradient-4"/>
    <linearGradient id="linear-gradient-57" x1="1053.03" y1="609.41" x2="1053.03" y2="525.52" xlink:href="#linear-gradient-12"/>
    <linearGradient id="linear-gradient-58" x1="1076.24" y1="580.72" x2="1076.24" y2="512.8" xlink:href="#linear-gradient-4"/>
    <linearGradient id="linear-gradient-59" x1="1081.34" y1="609.41" x2="1081.34" y2="525.52" xlink:href="#linear-gradient-12"/>
    <linearGradient id="linear-gradient-60" x1="1104.55" y1="580.72" x2="1104.55" y2="512.8" xlink:href="#linear-gradient-4"/>
    <linearGradient id="linear-gradient-61" x1="1109.65" y1="609.41" x2="1109.65" y2="525.52" xlink:href="#linear-gradient-12"/>
    <linearGradient id="linear-gradient-62" x1="1132.86" y1="580.72" x2="1132.86" y2="512.8" xlink:href="#linear-gradient-4"/>
    <linearGradient id="linear-gradient-63" x1="1137.96" y1="609.41" x2="1137.96" y2="525.52" xlink:href="#linear-gradient-12"/>
    <linearGradient id="linear-gradient-64" x1="1161.17" y1="580.72" x2="1161.17" y2="512.8" xlink:href="#linear-gradient-4"/>
    <linearGradient id="linear-gradient-65" x1="1166.27" y1="609.41" x2="1166.27" y2="525.52" xlink:href="#linear-gradient-12"/>
    <linearGradient id="linear-gradient-66" x1="935.58" y1="429.98" x2="1001.13" y2="429.98" xlink:href="#linear-gradient-30"/>
    <filter id="drop-shadow-9" x="926.39" y="398.96" width="90" height="68" filterUnits="userSpaceOnUse">
      <feOffset dx="3" dy="3"/>
      <feGaussianBlur result="blur-9" stdDeviation="4"/>
      <feFlood flood-color="#031926" flood-opacity=".45"/>
      <feComposite in2="blur-9" operator="in"/>
      <feComposite in="SourceGraphic"/>
    </filter>
    <linearGradient id="linear-gradient-67" x1="1018.77" y1="433.12" x2="1391.56" y2="433.12" xlink:href="#linear-gradient-36"/>
    <linearGradient id="linear-gradient-68" x1="1374.26" y1="275.3" x2="1381.39" y2="275.3" gradientUnits="userSpaceOnUse">
      <stop offset="0" stop-color="#7482fc"/>
      <stop offset="1" stop-color="#49bcd9"/>
    </linearGradient>
    <linearGradient id="linear-gradient-69" x1="1368.1" y1="263.14" x2="1387.54" y2="263.14" xlink:href="#linear-gradient-68"/>
    <linearGradient id="linear-gradient-70" x1="1367.13" y1="259.06" x2="1372.34" y2="259.06" xlink:href="#linear-gradient-68"/>
    <linearGradient id="linear-gradient-71" x1="1383.3" y1="259.06" x2="1388.53" y2="259.06" xlink:href="#linear-gradient-68"/>
    <linearGradient id="linear-gradient-72" x1="1167.82" y1="874.04" x2="1238.95" y2="874.04" gradientTransform="translate(1873.38 -453.81) rotate(80.78)" xlink:href="#linear-gradient-68"/>
    <linearGradient id="linear-gradient-73" x1="1027.54" y1="895.47" x2="1057.57" y2="895.47" xlink:href="#linear-gradient"/>
    <linearGradient id="linear-gradient-74" x1="1027.54" y1="895.47" x2="1057.57" y2="895.47" xlink:href="#linear-gradient"/>
    <linearGradient id="linear-gradient-75" x1="1027.54" y1="895.47" x2="1057.57" y2="895.47" xlink:href="#linear-gradient"/>
    <linearGradient id="linear-gradient-76" x1="1027.54" y1="895.47" x2="1057.57" y2="895.47" xlink:href="#linear-gradient"/>
    <linearGradient id="linear-gradient-77" x1="1027.54" y1="895.47" x2="1057.57" y2="895.47" xlink:href="#linear-gradient"/>
    <linearGradient id="linear-gradient-78" x1="1027.54" y1="895.47" x2="1057.57" y2="895.47" xlink:href="#linear-gradient"/>
    <linearGradient id="linear-gradient-79" x1="1027.54" y1="895.47" x2="1057.57" y2="895.47" xlink:href="#linear-gradient"/>
    <linearGradient id="linear-gradient-80" x1="1027.54" y1="895.47" x2="1057.57" y2="895.47" xlink:href="#linear-gradient"/>
    <linearGradient id="linear-gradient-81" x1="1027.54" y1="895.47" x2="1057.57" y2="895.47" xlink:href="#linear-gradient"/>
    <linearGradient id="linear-gradient-82" x1="1027.54" y1="895.47" x2="1057.57" y2="895.47" xlink:href="#linear-gradient"/>
    <linearGradient id="linear-gradient-83" x1="1027.54" y1="895.47" x2="1057.57" y2="895.47" xlink:href="#linear-gradient"/>
    <linearGradient id="linear-gradient-84" x1="1027.54" y1="895.47" x2="1057.57" y2="895.47" xlink:href="#linear-gradient"/>
    <linearGradient id="linear-gradient-85" x1="1030.08" y1="868.62" x2="1054.87" y2="868.62" xlink:href="#linear-gradient-68"/>
    <linearGradient id="linear-gradient-86" x1="1018.24" y1="636.59" x2="1096.75" y2="636.59" xlink:href="#linear-gradient"/>
    <linearGradient id="linear-gradient-87" x1="1115.78" y1="636.59" x2="1194.29" y2="636.59" xlink:href="#linear-gradient"/>
    <linearGradient id="linear-gradient-88" x1="1213.32" y1="636.59" x2="1291.84" y2="636.59" xlink:href="#linear-gradient"/>
    <linearGradient id="linear-gradient-89" x1="1310.86" y1="636.59" x2="1389.38" y2="636.59" xlink:href="#linear-gradient"/>
    <linearGradient id="linear-gradient-90" x1="1018.24" y1="785.37" x2="1389.38" y2="785.37" xlink:href="#linear-gradient"/>
  </defs>
  <g id="Layer_3" data-name="Layer 3">
    <g>
      <rect class="cls-8" x="120.35" width="1152.04" height="812.26" rx="8.96" ry="8.96"/>
      <path class="cls-8" d="M0,762.82h1358.77v70.87c0,6.22-5.05,11.27-11.27,11.27H11.27c-6.22,0-11.27-5.05-11.27-11.27v-70.87h0Z"/>
      <polygon class="cls-8" points="0 761.94 120.98 685.98 1246.85 685.98 1358.77 761.94 0 761.94"/>
      <g>
        <rect class="cls-109" x="132.22" y="11.35" width="1125.87" height="812.26" rx="8.96" ry="8.96"/>
        <path class="cls-109" d="M11.24,762.67h1358.77v61.02c0,6.22-5.05,11.27-11.27,11.27H22.51c-6.22,0-11.27-5.05-11.27-11.27v-61.02h0Z"/>
        <path class="cls-46" d="M506.96,762.67h376.38v30.7c0,3-2.44,5.44-5.44,5.44h-365.5c-3,0-5.44-2.44-5.44-5.44v-30.7h0Z"/>
      </g>
      <polygon class="cls-109" points="11.24 762.67 132.22 686.72 1258.09 686.72 1370.01 762.67 11.24 762.67"/>
      <polygon class="cls-43" points="1237.05 700.22 142.52 700.22 73.82 747.85 1305.74 747.85 1237.05 700.22"/>
    </g>
  </g>
  <g id="Layer_6" data-name="Layer 6">
    <g>
      <polygon class="cls-109" points="282.68 44.21 152.39 44.21 152.39 44.21 152.39 659.39 152.39 659.4 282.68 659.39 1239.8 659.39 1239.8 44.21 282.68 44.21"/>
      <g>
        <g>
          <rect class="cls-123" x="368.63" y="131.24" width="196.49" height="229.58"/>
          <g>
            <g>
              <g>
                <path class="cls-67" d="M431.07,255.86l-10.92,10.92c11.96,11.96,28.47,19.35,46.72,19.35v-15.44c-13.98,0-26.64-5.67-35.8-14.83Z"/>
                <path class="cls-77" d="M466.87,270.69v15.44c18.24,0,34.76-7.4,46.72-19.35l-10.92-10.92c-9.16,9.16-21.82,14.83-35.8,14.83Z"/>
                <path class="cls-106" d="M517.5,220.06c0,13.98-5.67,26.64-14.83,35.8l10.92,10.92c11.96-11.96,19.35-28.47,19.35-46.72h-15.44Z"/>
                <path class="cls-99" d="M416.24,220.06h-15.44c0,18.24,7.39,34.76,19.35,46.72l10.92-10.92c-9.16-9.16-14.83-21.82-14.83-35.8Z"/>
                <path class="cls-87" d="M513.59,173.34c-11.96-11.96-28.47-19.35-46.72-19.35v15.44c13.98,0,26.64,5.67,35.8,14.83,9.16,9.16,14.83,21.82,14.83,35.8h15.44c0-18.24-7.4-34.76-19.35-46.72Z"/>
                <path class="cls-101" d="M431.07,184.26l-10.92-10.92c-11.96,11.96-19.35,28.47-19.35,46.72h15.44c0-13.98,5.67-26.64,14.83-35.8Z"/>
                <path class="cls-52" d="M466.87,169.43v-15.44c-18.24,0-34.76,7.4-46.72,19.35l10.92,10.92c9.16-9.16,21.82-14.83,35.8-14.83Z"/>
              </g>
              <text class="cls-14" transform="translate(436.72 232.23)"><tspan x="0" y="0">75%</tspan></text>
            </g>
            <g>
              <rect class="cls-8" x="402.76" y="300.49" width="128.23" height=".7"/>
              <g>
                <text class="cls-25" transform="translate(443.53 325.37)"><tspan x="0" y="0">TOP 75%</tspan></text>
                <text class="cls-3" transform="translate(425.81 342.88)"><tspan x="0" y="0">GeoLeaf Stake</tspan></text>
                <polygon class="cls-119" points="495.28 320.19 496.27 321.18 498.55 318.9 498.55 326.66 499.95 326.66 499.95 318.9 502.23 321.18 503.22 320.19 499.25 316.22 495.28 320.19"/>
              </g>
            </g>
          </g>
        </g>
        <g>
          <rect class="cls-96" x="596.14" y="131.24" width="196.49" height="229.58"/>
          <g>
            <g>
              <g>
                <path class="cls-53" d="M658.58,255.86l-10.92,10.92c11.96,11.96,28.47,19.35,46.72,19.35v-15.44c-13.98,0-26.64-5.67-35.8-14.83Z"/>
                <path class="cls-28" d="M694.38,270.69v15.44c18.24,0,34.76-7.4,46.72-19.35l-10.92-10.92c-9.16,9.16-21.82,14.83-35.8,14.83Z"/>
                <path class="cls-91" d="M745.01,220.06h15.44c0-18.24-7.39-34.76-19.35-46.72l-10.92,10.92c9.16,9.16,14.83,21.82,14.83,35.8Z"/>
                <path class="cls-27" d="M745.01,220.06c0,13.98-5.67,26.64-14.83,35.8l10.92,10.92c11.96-11.96,19.35-28.47,19.35-46.72h-15.44Z"/>
                <path class="cls-120" d="M643.75,220.06h-15.44c0,18.24,7.39,34.76,19.35,46.72l10.92-10.92c-9.16-9.16-14.83-21.82-14.83-35.8Z"/>
                <path class="cls-97" d="M730.18,184.26l10.92-10.92c-11.96-11.96-28.47-19.35-46.72-19.35v15.44c13.98,0,26.64,5.67,35.8,14.83Z"/>
                <path class="cls-125" d="M658.58,184.26l-10.92-10.92c-11.96,11.96-19.35,28.47-19.35,46.72h15.44c0-13.98,5.67-26.64,14.83-35.8Z"/>
                <path class="cls-104" d="M694.38,169.43v-15.44c-18.24,0-34.76,7.4-46.72,19.35l10.92,10.92c9.16-9.16,21.82-14.83,35.8-14.83Z"/>
              </g>
              <text class="cls-14" transform="translate(663.22 232.23)"><tspan x="0" y="0">90%</tspan></text>
            </g>
            <rect class="cls-8" x="630.27" y="300.49" width="128.23" height=".7"/>
            <polygon class="cls-119" points="722.79 320.19 723.78 321.18 726.06 318.9 726.06 326.66 727.46 326.66 727.46 318.9 729.74 321.18 730.73 320.19 726.76 316.22 722.79 320.19"/>
          </g>
        </g>
        <g>
          <rect class="cls-68" x="819.29" y="131.24" width="196.49" height="229.58"/>
          <g>
            <g>
              <g>
                <path class="cls-111" d="M866.91,220.06h-15.44c0,18.24,7.39,34.76,19.35,46.72l10.92-10.92c-9.16-9.16-14.83-21.82-14.83-35.8Z"/>
                <path class="cls-80" d="M964.25,173.34c-11.96-11.96-28.47-19.35-46.72-19.35v15.44c13.98,0,26.64,5.67,35.8,14.83,9.16,9.16,14.83,21.82,14.83,35.8s-5.67,26.64-14.83,35.8c-9.16,9.16-21.82,14.83-35.8,14.83s-26.64-5.67-35.8-14.83l-10.92,10.92c11.96,11.96,28.47,19.35,46.72,19.35s34.76-7.39,46.72-19.35c11.96-11.96,19.35-28.47,19.35-46.72s-7.4-34.76-19.35-46.72Z"/>
                <path class="cls-121" d="M881.73,184.26l-10.92-10.92c-11.96,11.96-19.35,28.47-19.35,46.72h15.44c0-13.98,5.67-26.64,14.83-35.8Z"/>
                <path class="cls-81" d="M917.54,169.43v-15.44c-18.24,0-34.76,7.4-46.72,19.35l10.92,10.92c9.16-9.16,21.82-14.83,35.8-14.83Z"/>
              </g>
              <text class="cls-14" transform="translate(890.38 232.23)"><tspan x="0" y="0">40%</tspan></text>
            </g>
            <polygon class="cls-39" points="961.89 321.7 959.61 323.98 959.61 316.22 958.21 316.22 958.21 323.98 955.93 321.7 954.94 322.69 958.91 326.66 962.88 322.69 961.89 321.7"/>
            <rect class="cls-8" x="853.42" y="300.49" width="128.23" height=".7"/>
          </g>
        </g>
        <text class="cls-9" transform="translate(372.99 96.82)"><tspan x="0" y="0">Hello, Steve</tspan></text>
        <g>
          <rect class="cls-59" x="1044.26" y="131.24" width="145.47" height="101"/>
          <g>
            <rect class="cls-64" x="1060.91" y="170.24" width="112.73" height="10.48"/>
            <rect class="cls-55" x="1060.91" y="180.65" width="84.63" height="10.48"/>
            <rect class="cls-29" x="1060.91" y="201.35" width="112.73" height="10.48"/>
            <rect class="cls-94" x="1060.91" y="211.76" width="63.15" height="10.48"/>
            <text class="cls-15" transform="translate(1061.62 156.06)"><tspan x="0" y="0">Earnings</tspan></text>
            <text class="cls-15" transform="translate(1145.28 156.06)"><tspan x="0" y="0">Jan</tspan></text>
          </g>
        </g>
        <g>
          <rect class="cls-78" x="1044.26" y="259.82" width="145.47" height="101"/>
          <g>
            <rect class="cls-122" x="1060.91" y="297.04" width="112.73" height="10.48"/>
            <rect class="cls-118" x="1060.91" y="307.45" width="84.63" height="10.48"/>
            <rect class="cls-83" x="1060.91" y="328.15" width="112.73" height="10.48"/>
            <rect class="cls-76" x="1060.91" y="338.56" width="63.15" height="10.48"/>
            <text class="cls-20" transform="translate(1061.62 282.79)"><tspan x="0" y="0">Data B</tspan></text>
            <text class="cls-20" transform="translate(1145.28 282.79)"><tspan x="0" y="0">Feb</tspan></text>
          </g>
        </g>
        <g>
          <rect class="cls-8" x="1153.44" y="76.72" width="21.62" height="4.19"/>
          <rect class="cls-8" x="1153.44" y="93.75" width="21.62" height="4.19"/>
          <rect class="cls-8" x="1153.44" y="85.12" width="21.62" height="4.19"/>
        </g>
        <g>
          <rect class="cls-41" x="152.39" y="44.77" width="171.01" height="615.19"/>
          <rect class="cls-110" x="152.39" y="189.14" width="171.01" height="47.5"/>
          <g>
            <g>
              <g>
                <rect class="cls-8" x="187" y="272.93" width="4.08" height="6"/>
                <rect class="cls-8" x="193.3" y="269.74" width="4.08" height="9.19"/>
                <rect class="cls-8" x="199.57" y="266.03" width="4.08" height="12.9"/>
              </g>
              <text class="cls-17" transform="translate(223.67 279.17)"><tspan x="0" y="0">Activity</tspan></text>
            </g>
            <text class="cls-17" transform="translate(224.67 338.4)"><tspan x="0" y="0">Pools</tspan></text>
            <text class="cls-17" transform="translate(224.67 397.66)"><tspan x="0" y="0">NFTs</tspan></text>
            <text class="cls-17" transform="translate(224.67 451.27)"><tspan x="0" y="0">Profile</tspan></text>
            <g>
              <path class="cls-107" d="M209.74,594.99v-3.02l-3.82-.76c-.2-.74-.49-1.45-.87-2.1l2.16-3.24-2.13-2.14-3.24,2.16c-.65-.38-1.36-.67-2.1-.87l-.76-3.82h-3.02l-.76,3.82c-.74.2-1.45.49-2.1.87l-3.24-2.16-2.14,2.14,2.16,3.24c-.38.65-.67,1.36-.87,2.1l-3.82.76v3.02l3.82.76c.2.74.49,1.45.87,2.1l-2.16,3.24,2.14,2.14,3.24-2.16c.65.38,1.36.67,2.1.87l.76,3.82h3.02l.76-3.82c.74-.2,1.45-.49,2.1-.87l3.24,2.16,2.13-2.14-2.16-3.24c.38-.65.67-1.36.87-2.1l3.82-.76ZM197.47,597.6c-2.27,0-4.11-1.84-4.11-4.11s1.84-4.11,4.11-4.11,4.12,1.84,4.12,4.11-1.84,4.11-4.12,4.11Z"/>
              <text class="cls-10" transform="translate(223.76 599.44)"><tspan x="0" y="0">Settings</tspan></text>
            </g>
            <g>
              <polygon class="cls-8" points="195.33 204.97 187 210.28 187 221.2 192.6 221.2 192.6 216.39 198.05 216.39 198.05 221.2 203.66 221.2 203.66 210.28 195.33 204.97"/>
              <text class="cls-23" transform="translate(226.67 218.08)"><tspan x="0" y="0">Home</tspan></text>
            </g>
          </g>
        </g>
        <g>
          <rect class="cls-57" x="368.63" y="385.29" width="423.99" height="101.86"/>
          <text class="cls-19" transform="translate(511.85 450.83)"><tspan x="0" y="0">23</tspan></text>
          <circle class="cls-79" cx="431.91" cy="437.97" r="31.82"/>
          <text class="cls-21" transform="translate(511.86 468.21)"><tspan x="0" y="0">NFTs Staked On GeoLeaf</tspan></text>
          <text class="cls-22" transform="translate(400.19 450.21)"><tspan x="0" y="0">NFT</tspan></text>
        </g>
        <g>
          <rect class="cls-31" x="368.63" y="511.46" width="423.99" height="101.86"/>
          <text class="cls-19" transform="translate(509.85 576.68)"><tspan x="0" y="0">6503020</tspan></text>
          <circle class="cls-54" cx="431.91" cy="565.83" r="31.82" transform="translate(-273.6 471.14) rotate(-45)"/>
          <text class="cls-21" transform="translate(511.86 594.01)"><tspan x="0" y="0">Tokens Staked On Geoleaf</tspan></text>
          <text class="cls-22" transform="translate(379.09 576.26)"><tspan x="0" y="0">Token</tspan></text>
        </g>
        <g>
          <rect class="cls-102" x="817.79" y="385.29" width="370.63" height="228.56"/>
          <g>
            <g>
              <text class="cls-24" transform="translate(1019.88 602.82)"><tspan x="0" y="0">Jul</tspan></text>
              <text class="cls-24" transform="translate(990.34 602.82)"><tspan x="0" y="0">Jun</tspan></text>
              <text class="cls-24" transform="translate(960.56 602.82)"><tspan x="0" y="0">May</tspan></text>
              <text class="cls-24" transform="translate(934.49 602.82)"><tspan x="0" y="0">Apr</tspan></text>
              <text class="cls-24" transform="translate(904.95 602.82)"><tspan x="0" y="0">Mar</tspan></text>
              <text class="cls-24" transform="translate(846.7 602.82)"><tspan x="0" y="0">Jan</tspan></text>
              <text class="cls-24" transform="translate(875.54 602.82)"><tspan x="0" y="0">Feb</tspan></text>
              <text class="cls-24" transform="translate(1047.89 602.82)"><tspan x="0" y="0">Aug</tspan></text>
              <text class="cls-24" transform="translate(1075.37 602.82)"><tspan x="0" y="0">Sep</tspan></text>
              <text class="cls-24" transform="translate(1103.33 602.82)"><tspan x="0" y="0">Oct</tspan></text>
              <text class="cls-24" transform="translate(1130.7 602.82)"><tspan x="0" y="0">Nov</tspan></text>
              <text class="cls-24" transform="translate(1158.96 602.82)"><tspan x="0" y="0">Dec</tspan></text>
            </g>
            <g>
              <g>
                <text class="cls-24" transform="translate(830.08 591.16)"><tspan x="0" y="0">0</tspan></text>
                <text class="cls-24" transform="translate(830.08 568.45)"><tspan x="0" y="0">10</tspan></text>
                <text class="cls-24" transform="translate(830.08 542.7)"><tspan x="0" y="0">20</tspan></text>
                <text class="cls-24" transform="translate(830.08 518.64)"><tspan x="0" y="0">30</tspan></text>
                <text class="cls-24" transform="translate(830.08 495.08)"><tspan x="0" y="0">40</tspan></text>
                <text class="cls-24" transform="translate(830.08 469.91)"><tspan x="0" y="0">50</tspan></text>
              </g>
              <g>
                <text class="cls-24" transform="translate(830.08 447.33)"><tspan x="0" y="0">60</tspan></text>
                <text class="cls-24" transform="translate(830.08 421.58)"><tspan x="0" y="0">70</tspan></text>
              </g>
            </g>
            <g class="cls-74">
              <rect class="cls-8" x="848.17" y="590.8" width="324.22" height=".43"/>
              <rect class="cls-8" x="848.17" y="566.25" width="324.22" height=".43"/>
              <rect class="cls-8" x="848.17" y="541.69" width="324.22" height=".43"/>
              <rect class="cls-8" x="848.17" y="517.13" width="324.22" height=".43"/>
              <rect class="cls-8" x="848.17" y="492.57" width="324.22" height=".43"/>
              <rect class="cls-8" x="848.17" y="468.01" width="324.22" height=".43"/>
              <rect class="cls-8" x="848.17" y="443.45" width="324.22" height=".43"/>
              <rect class="cls-8" x="848.17" y="418.89" width="324.22" height=".43"/>
            </g>
            <g>
              <g>
                <rect class="cls-34" x="848.17" y="529.4" width="3.2" height="61.62"/>
                <rect class="cls-50" x="853.27" y="547.61" width="3.2" height="43.41"/>
              </g>
              <g>
                <rect class="cls-73" x="876.48" y="497.4" width="3.2" height="93.62"/>
                <rect class="cls-112" x="881.58" y="532.43" width="3.2" height="58.58"/>
              </g>
              <g>
                <rect class="cls-35" x="904.79" y="451.32" width="3.2" height="139.7"/>
                <rect class="cls-63" x="909.89" y="499.05" width="3.2" height="91.97"/>
              </g>
              <g>
                <rect class="cls-116" x="933.1" y="534.92" width="3.2" height="56.1"/>
                <rect class="cls-75" x="938.2" y="516.71" width="3.2" height="74.31"/>
              </g>
              <g>
                <rect class="cls-98" x="961.41" y="463.74" width="3.2" height="127.28"/>
                <rect class="cls-86" x="966.5" y="451.9" width="3.2" height="139.11"/>
              </g>
              <g>
                <rect class="cls-61" x="989.72" y="463.74" width="3.2" height="127.28"/>
                <rect class="cls-33" x="994.81" y="496.02" width="3.2" height="95"/>
              </g>
              <g>
                <rect class="cls-82" x="1018.03" y="484.7" width="3.2" height="106.31"/>
                <rect class="cls-60" x="1023.12" y="531.05" width="3.2" height="59.96"/>
              </g>
              <g>
                <rect class="cls-49" x="1046.34" y="480.57" width="3.2" height="110.45"/>
                <rect class="cls-88" x="1051.43" y="454.63" width="3.2" height="136.39"/>
              </g>
              <g>
                <rect class="cls-62" x="1074.64" y="463.74" width="3.2" height="127.28"/>
                <rect class="cls-103" x="1079.74" y="475.6" width="3.2" height="115.42"/>
              </g>
              <g>
                <rect class="cls-37" x="1102.95" y="542.37" width="3.2" height="48.65"/>
                <rect class="cls-26" x="1108.05" y="499.88" width="3.2" height="91.14"/>
              </g>
              <g>
                <rect class="cls-92" x="1131.26" y="508.84" width="3.2" height="82.17"/>
                <rect class="cls-124" x="1136.36" y="529.12" width="3.2" height="61.89"/>
              </g>
              <g>
                <rect class="cls-38" x="1159.57" y="507.74" width="3.2" height="83.28"/>
                <rect class="cls-30" x="1164.67" y="559.75" width="3.2" height="31.27"/>
              </g>
            </g>
            <g>
              <g>
                <polygon class="cls-117" points="1001.13 408.64 935.58 408.64 935.58 445.88 962.91 445.88 968.35 451.32 973.8 445.88 1001.13 445.88 1001.13 408.64"/>
                <text class="cls-16" transform="translate(959.27 435.69)"><tspan x="0" y="0">Earnings</tspan></text>
              </g>
              <text class="cls-6" transform="translate(946.81 427.67)"><tspan x="0" y="0">70,89%</tspan></text>
            </g>
          </g>
        </g>
      </g>
    </g>
    <g>
      <path class="cls-8" d="M236.84,74.65c1.42-.13,2.82.36,3.89,1.26,5.27-2.44,8.76,4.41,9.66,8.63,3.74-1.23,8.53,4.82,9.37,8.12.51.13,1.03.27,1.54.4,1.71.74,9.07,8.48,10.8,11.26,2.91,4.67,4.08,11.24,2.06,16.46-3.31,8.56-22.72,25.52-30.07,32.93-.79.8-1.92,2.5-2.92,2.92-2.93,1.23-6.43-1.04-6.57-4.17-.27-.51-1.17-.06-2.8-1.31-1.44-1.11-5.71-5.58-5.32-7.72-.86-.13-1.71-.27-2.57-.4-2.01-.74-4.36-4.09-4.74-6.23-1.87.12-8.08-6.27-9.49-7.89-1.36-1.56-3.52-4.54-4.34-6.4-1.73-3.93-2.22-9.42-.8-13.49,2.61-7.49,15.72-19.08,21.66-24.87,2.71-2.78,5.41-5.56,8.12-8.35.63-.51,1.72-1.07,2.52-1.14ZM236.66,78.77s-.08.08-.11.11c-2.15,2.21-4.31,4.42-6.46,6.63-5.51,5.37-21.85,19.56-22.69,26.81-.69,5.99,1.65,10.36,5.49,14.63,1.85,1.81,3.7,3.62,5.54,5.43.13.04.27.08.4.11.08.05.43.95,1.54.69.25-.25.5-.5.74-.74.13-.49-.79-5.84-.46-10.17.95-12.45,10.46-19.31,14.75-30.18,1.07-2.72,2.74-9.09,2.86-11.89.04-.95.19-2.26-1.2-1.89-.13.15-.27.3-.4.46ZM225.69,139.59c1.02-.58,2.03-8.8,2.52-10.58,2.61-9.47,11.76-17.09,16.01-25.95,2.49-5.19,4.22-12.53,2.63-18.18-.35-1.26-1.75-4.44-2.86-5.09-.04-.08-.08-.15-.11-.23-.18-.24-1.05-.84-1.26-.51-.07,6.04.65,9.22-1.26,15.21-4.18,13.16-18.33,22.03-19.21,36.36-.15,2.51.11,5.46,1.6,7.55.32.45,1.43,1.72,1.94,1.43ZM232.78,146.79c2.92,2.82,1.62,2.49,2.52-2.34,2.76-14.82,15.22-22.44,19.66-34.75,1.66-4.59,3.04-13.68.46-17.95-.35-.59-1.91-2.51-2.52-2.69-.04-.04-.08-.08-.11-.11-.19-.22-1.14-1.22-1.37-.86.83,11.39-.04,16.66-6.4,25.95-5.96,8.71-12.46,13.62-14.4,24.81-.83,4.75-1.2,4.69,2.17,7.95ZM259.47,96.37c-.57.13.14,3.9.17,4.63.45,11.35-2.9,18.7-9.26,27.67-2.65,3.73-6.45,8.01-8.69,12-1.2,2.14-6.1,12.15-2.12,12.63,7.36-8.52,25.03-22.84,30.12-31.84,1.72-3.03,2.1-5.62,1.71-9.15-.36-3.34-3.07-7.25-5.26-9.72-2.04-2-4.08-4-6.12-6-.19-.08-.38-.15-.57-.23Z"/>
      <g>
        <path class="cls-100" d="M252.78,88.94s.08.08.11.11c1.52,1.91,2.07,4.98,2.17,7.37.89,21.24-18.32,27.99-21.61,46.64-.22,1.27-.15,3.62-.69,3.72-3.37-3.26-3-3.2-2.17-7.95,1.95-11.19,8.44-16.1,14.4-24.81,6.36-9.3,7.23-14.56,6.4-25.95.23-.37,1.18.64,1.37.86Z"/>
        <path class="cls-90" d="M252.9,89.06s-.08-.08-.11-.11c.04.04.08.08.11.11Z"/>
        <path class="cls-70" d="M232.78,146.79c.53-.1.46-2.44.69-3.72,3.29-18.65,22.49-25.4,21.61-46.64-.1-2.39-.65-5.46-2.17-7.37.6.17,2.16,2.1,2.52,2.69,2.58,4.27,1.2,13.35-.46,17.95-4.45,12.32-16.91,19.93-19.66,34.75-.9,4.84.41,5.17-2.52,2.34Z"/>
      </g>
      <path class="cls-100" d="M259.47,96.37c.19.08.38.15.57.23,2.04,2,4.08,4,6.12,6,2.19,2.47,4.9,6.38,5.26,9.72.38,3.53,0,6.12-1.71,9.15-5.09,8.99-22.76,23.32-30.12,31.84-3.98-.49.92-10.49,2.12-12.63,2.24-4,6.04-8.27,8.69-12,6.36-8.96,9.72-16.32,9.26-27.67-.03-.73-.74-4.5-.17-4.63Z"/>
      <g>
        <path class="cls-70" d="M218.83,132.5c.93-.01.06-3.14,0-4.52-.81-18.34,9.53-22.38,15.21-35.55,1.11-2.58,2.39-6.73,2.86-9.49.34-2.04.8-4.31-.23-4.17.13-.15.27-.3.4-.46,1.39-.38,1.24.93,1.2,1.89-.12,2.8-1.79,9.17-2.86,11.89-4.29,10.87-13.79,17.73-14.75,30.18-.33,4.33.58,9.68.46,10.17-.25.25-.5.5-.74.74-1.12.27-1.47-.63-1.54-.69Z"/>
        <path class="cls-90" d="M236.55,78.88s.08-.08.11-.11c-.04.04-.08.08-.11.11Z"/>
        <path class="cls-100" d="M218.83,132.5c-.13-.04-.27-.08-.4-.11-1.85-1.81-3.7-3.62-5.54-5.43-3.84-4.27-6.18-8.64-5.49-14.63.84-7.25,17.18-21.44,22.69-26.81,2.15-2.21,4.31-4.42,6.46-6.63.04-.04.08-.08.11-.11,1.03-.13.57,2.13.23,4.17-.46,2.76-1.75,6.91-2.86,9.49-5.68,13.17-16.02,17.21-15.21,35.55.06,1.37.93,4.51,0,4.52Z"/>
      </g>
      <g>
        <path class="cls-100" d="M243.87,79.57c.04.08.08.15.11.23,1.8,2.88,2,9.73,1.6,13.09-2.31,19.32-22.14,26.08-19.89,46.7-.51.29-1.62-.98-1.94-1.43-1.5-2.09-1.75-5.04-1.6-7.55.87-14.32,15.02-23.2,19.21-36.36,1.9-5.98,1.18-9.17,1.26-15.21.21-.33,1.08.28,1.26.51Z"/>
        <path class="cls-90" d="M243.98,79.8c-.04-.08-.08-.15-.11-.23.04.08.08.15.11.23Z"/>
        <path class="cls-70" d="M225.69,139.59c-2.25-20.62,17.58-27.39,19.89-46.7.4-3.36.2-10.21-1.6-13.09,1.11.64,2.5,3.83,2.86,5.09,1.59,5.65-.14,12.99-2.63,18.18-4.25,8.86-13.4,16.48-16.01,25.95-.49,1.77-1.49,9.99-2.52,10.58Z"/>
      </g>
    </g>
    <text class="cls-25" transform="translate(671.91 324.71)"><tspan x="0" y="0">TOP 90%</tspan></text>
    <text class="cls-3" transform="translate(654.19 342.23)"><tspan x="0" y="0">Prevail Stake</tspan></text>
    <text class="cls-25" transform="translate(879.64 324.71)"><tspan x="0" y="0">BOTTOM 40%</tspan></text>
    <text class="cls-3" transform="translate(870.92 342.23)"><tspan x="0" y="0">Interlink Stake</tspan></text>
    <text class="cls-3" transform="translate(663.36 419.59)"><tspan x="0" y="0">23 Water Wizards</tspan></text>
    <text class="cls-3" transform="translate(707.62 543.73)"><tspan x="0" y="0">2.1m $GLT</tspan></text>
    <text class="cls-3" transform="translate(707.68 568.73)"><tspan x="0" y="0">4.2m $PRT</tspan></text>
    <text class="cls-3" transform="translate(708.57 592.73)"><tspan x="0" y="0">200k $INT</tspan></text>
  </g>
  <g id="Layer_5" data-name="Layer 5">
    <rect class="cls-8" x="976.2" y="155.96" width="455.19" height="794" rx="55.28" ry="55.28"/>
    <rect class="cls-109" x="984.95" y="163.96" width="436.86" height="776.65" rx="55.28" ry="55.28"/>
    <g>
      <g>
        <rect class="cls-8" x="1321.13" y="207.48" width="2.06" height="4.32" rx=".28" ry=".28"/>
        <rect class="cls-8" x="1325.15" y="204.43" width="2.06" height="7.37" rx=".28" ry=".28"/>
        <rect class="cls-8" x="1329.18" y="201.38" width="2.06" height="10.42" rx=".28" ry=".28"/>
        <rect class="cls-8" x="1333.2" y="198.33" width="2.06" height="13.47" rx=".28" ry=".28"/>
      </g>
      <g>
        <path class="cls-8" d="M1367.41,202.11v5.9c0,.9.73,1.63,1.63,1.63h6.65v-9.16h-6.65c-.9,0-1.63.73-1.63,1.63Z"/>
        <path class="cls-8" d="M1390.13,202.21h-.19v-.13c0-1.76-1.43-3.19-3.19-3.19h-17.91c-1.76,0-3.19,1.43-3.19,3.19v5.98c0,1.76,1.43,3.19,3.19,3.19h17.91c1.76,0,3.19-1.43,3.19-3.19v-.13h.19c.79,0,1.43-.64,1.43-1.43v-2.86c0-.79-.64-1.43-1.43-1.43ZM1389.38,208.05c0,1.45-1.18,2.62-2.62,2.62h-17.91c-1.45,0-2.62-1.18-2.62-2.62v-5.98c0-1.45,1.18-2.62,2.62-2.62h17.91c1.45,0,2.62,1.18,2.62,2.62v5.98Z"/>
      </g>
      <text class="cls-1" transform="translate(1013.98 209.63)"><tspan x="0" y="0">7.00 PM</tspan></text>
      <text class="cls-1" transform="translate(1340.38 209.8)"><tspan x="0" y="0">4G</tspan></text>
    </g>
    <g>
      <rect class="cls-95" x="1018.77" y="362.47" width="372.79" height="141.29" rx="34.42" ry="34.42"/>
      <text class="cls-18" transform="translate(1040.58 334.17)"><tspan x="0" y="0">Hello, Steve!</tspan></text>
      <g>
        <g>
          <text class="cls-12" transform="translate(1055.65 451.11)"><tspan x="0" y="0" xml:space="preserve">    1,6795.25</tspan></text>
          <g>
            <text class="cls-7" transform="translate(1078.99 411.17)"><tspan x="0" y="0">GeoLeaf Rewards Earned </tspan></text>
            <path class="cls-8" d="M1050.72,410.36c.13-.16.23-.34.38-.49,1.55-1.56,3.1-3.11,4.65-4.66.36-.36.71-.36,1.08,0,.87.87,1.74,1.74,2.6,2.61.04.04.07.09.09.12,1.56-1.56,3.1-3.1,4.64-4.64h-.16c-.71,0-1.42,0-2.13,0-.45,0-.75-.38-.65-.8.06-.28.31-.49.6-.5.29,0,.58,0,.88,0,1.02,0,2.05,0,3.07,0,.38,0,.67.29.67.67,0,1.3,0,2.6,0,3.9,0,.28-.12.49-.36.61-.23.12-.47.1-.68-.06-.2-.14-.27-.35-.27-.59,0-.69,0-1.38,0-2.07v-.16s-.03-.03-.05-.04c-.03.05-.06.1-.1.15-1.62,1.62-3.24,3.24-4.86,4.86-.38.38-.72.38-1.1,0-.87-.87-1.74-1.74-2.6-2.61-.04-.04-.06-.08-.09-.12-.02,0-.04-.02-.07-.02-.03.05-.05.12-.1.16-1.42,1.42-2.84,2.85-4.27,4.27-.4.4-.93.3-1.14-.22,0-.01-.02-.02-.03-.03v-.31Z"/>
          </g>
        </g>
        <g>
          <text class="cls-2" transform="translate(1304.49 410.87)"><tspan x="0" y="0">View all</tspan></text>
          <path class="cls-8" d="M1361.63,410.01c-.16,0-.31-.06-.43-.18-.24-.24-.24-.62,0-.86l2.73-2.73-2.73-2.73c-.24-.24-.24-.62,0-.86.24-.24.62-.24.86,0l3.59,3.59-3.59,3.59c-.12.12-.27.18-.43.18Z"/>
        </g>
      </g>
    </g>
    <path class="cls-8" d="M1023.48,267.41c-.18,0-.36-.07-.5-.21l-4.74-4.74,4.74-4.74c.28-.28.72-.28,1,0,.28.28.28.72,0,1l-3.75,3.75,3.75,3.75c.28.28.28.72,0,1-.14.14-.32.21-.5.21Z"/>
    <g>
      <path class="cls-56" d="M1377.41,276.75c-.44-.15-.91-.25-1.32-.46-.96-.49-1.54-1.3-1.82-2.34,0-.03,0-.06-.01-.11h7.12c-.08.44-.25.84-.49,1.21-.61.93-1.46,1.48-2.56,1.65-.04,0-.07.03-.1.04h-.82Z"/>
      <path class="cls-32" d="M1377.81,272.87c-2.64,0-5.27,0-7.91,0-.9,0-1.59-.52-1.76-1.35-.14-.68.08-1.24.6-1.69.55-.48,1.01-1.03,1.38-1.66.61-1.05.9-2.18.9-3.39,0-.93-.01-1.87,0-2.8.06-3.2,2.47-5.98,5.63-6.5.17-.03.21-.09.21-.25-.01-.26,0-.52,0-.78,0-.61.41-1.04.97-1.04.56,0,.96.43.96,1.05,0,.27,0,.53,0,.8,0,.13.03.19.17.21,2.85.52,4.95,2.56,5.54,5.39.1.47.12.96.13,1.45.03,1.03-.02,2.05.04,3.08.11,1.75.86,3.21,2.16,4.38.38.34.66.71.71,1.23.09,1.05-.66,1.87-1.73,1.89-.73.01-1.46,0-2.19,0-1.94,0-3.88,0-5.81,0Z"/>
      <path class="cls-36" d="M1367.14,262.51c.15-3.11,1.3-5.79,3.47-8.02.46-.47,1.11-.47,1.5,0,.33.4.29.9-.06,1.33-.5.61-1.03,1.2-1.46,1.86-.99,1.53-1.46,3.23-1.52,5.04,0,.2,0,.41-.06.61-.12.43-.53.7-.99.67-.42-.03-.8-.34-.87-.77-.03-.23,0-.47,0-.7Z"/>
      <path class="cls-72" d="M1388.52,262.61c0,.11.02.31,0,.5-.06.54-.49.91-1.03.88-.5-.03-.89-.44-.9-.97-.01-.96-.13-1.91-.4-2.83-.45-1.57-1.24-2.94-2.35-4.14-.17-.19-.36-.39-.46-.61-.19-.41,0-.89.37-1.14.38-.25.88-.23,1.21.12.43.45.85.92,1.22,1.41,1.47,1.98,2.23,4.22,2.35,6.78Z"/>
    </g>
    <g>
      <circle class="cls-66" cx="1203.39" cy="874.04" r="35.57" transform="translate(147.87 1921.88) rotate(-80.78)"/>
      <g>
        <path class="cls-8" d="M1196.72,877.37h.45c5.37,0,10.73,0,16.1,0,1.76,0,3.1,1.12,3.39,2.81.33,1.93-1.15,3.76-3.11,3.84-.16,0-.32,0-.49,0-5.3,0-10.59,0-15.89,0h-.45c0,.15,0,.27,0,.4,0,.96,0,1.92,0,2.88,0,.5-.22.88-.68,1.07-.46.2-.89.09-1.24-.26-2.21-2.21-4.42-4.41-6.62-6.63-.46-.47-.46-1.12,0-1.58,2.2-2.21,4.41-4.42,6.62-6.63.35-.35.77-.46,1.24-.26.46.2.68.57.68,1.07,0,1.08,0,2.15,0,3.28Z"/>
        <path class="cls-8" d="M1210.05,870.71h-.45c-5.37,0-10.73,0-16.1,0-1.76,0-3.1-1.12-3.39-2.81-.33-1.91,1.14-3.74,3.08-3.84.16,0,.32,0,.49,0,5.31,0,10.62,0,15.92,0h.45v-.4c0-.96,0-1.92,0-2.88,0-.5.22-.88.68-1.07.46-.2.89-.09,1.24.26,2.21,2.21,4.42,4.41,6.62,6.63.47.47.47,1.12,0,1.58-2.21,2.22-4.43,4.44-6.65,6.65-.34.34-.76.43-1.21.24-.46-.2-.68-.57-.68-1.07,0-1.08,0-2.15,0-3.28Z"/>
      </g>
    </g>
    <g>
      <g>
        <g>
          <text class="cls-13" transform="translate(1027.3 899.06)"><tspan x="0" y="0">Home</tspan></text>
          <g>
            <g>
              <path class="cls-71" d="M1034.64,891.78l-1.29,7.27h-1.19l.57-3.21h-3.42l-.57,3.21h-1.19l1.29-7.27h1.19l-.55,3.14h3.42l.55-3.14h1.19Z"/>
              <path class="cls-65" d="M1035.9,898.85c-.37-.2-.66-.49-.86-.86s-.31-.79-.31-1.27c0-.65.15-1.24.46-1.78s.72-.96,1.26-1.28c.53-.31,1.13-.47,1.79-.47.49,0,.92.1,1.3.31s.67.49.88.86.32.79.32,1.27c0,.65-.16,1.24-.47,1.78-.31.54-.74.96-1.28,1.27-.54.31-1.13.46-1.79.46-.49,0-.92-.1-1.29-.3ZM1038.42,897.8c.33-.23.59-.53.78-.9.19-.37.28-.77.28-1.2,0-.48-.14-.85-.41-1.11-.27-.26-.61-.39-1.03-.39s-.77.11-1.08.34-.57.53-.74.91c-.18.38-.27.79-.27,1.22,0,.47.13.83.38,1.09s.58.39.99.39.76-.11,1.09-.34Z"/>
              <path class="cls-58" d="M1050.55,893.69c.36.33.54.79.54,1.39,0,.16-.02.35-.05.58l-.61,3.4h-1.18l.58-3.22c.03-.2.04-.33.04-.42,0-.38-.11-.68-.32-.88s-.51-.3-.88-.3c-.45,0-.84.14-1.15.41-.31.28-.51.67-.59,1.19l-.58,3.22h-1.18l.58-3.22c.03-.2.04-.33.04-.42,0-.38-.11-.68-.32-.88s-.51-.3-.88-.3c-.45,0-.84.14-1.15.41-.31.28-.51.67-.59,1.19v-.03l-.58,3.25h-1.19l1.01-5.77h1.19l-.12.67c.23-.24.51-.42.83-.56.33-.14.66-.2,1.01-.2.46,0,.86.1,1.19.29s.56.48.7.85c.23-.35.55-.63.95-.83.41-.21.82-.31,1.25-.31.61,0,1.09.16,1.46.49Z"/>
              <path class="cls-69" d="M1056.93,893.8c.43.41.64.95.64,1.63,0,.16-.02.35-.05.58-.03.15-.08.34-.15.57h-4.41s-.01.12-.01.22c0,.41.13.74.38.98.25.25.59.37,1,.37.65,0,1.15-.27,1.5-.81h1.29c-.26.53-.66.96-1.17,1.3-.52.34-1.11.51-1.79.51-.48,0-.9-.09-1.27-.28s-.65-.46-.85-.81c-.2-.35-.3-.77-.3-1.24,0-.2.02-.42.06-.65.11-.59.32-1.12.64-1.57.32-.45.72-.8,1.2-1.04.48-.24,1-.37,1.57-.37.72,0,1.29.2,1.72.61ZM1056.35,895.44c0-.38-.13-.69-.38-.91-.25-.22-.58-.33-.99-.33-.43,0-.81.14-1.15.41-.34.27-.58.64-.7,1.11h3.2c.01-.13.02-.22.02-.27Z"/>
            </g>
            <g>
              <path class="cls-89" d="M1034.64,891.78l-1.29,7.27h-1.19l.57-3.21h-3.42l-.57,3.21h-1.19l1.29-7.27h1.19l-.55,3.14h3.42l.55-3.14h1.19Z"/>
              <path class="cls-85" d="M1035.9,898.85c-.37-.2-.66-.49-.86-.86s-.31-.79-.31-1.27c0-.65.15-1.24.46-1.78s.72-.96,1.26-1.28c.53-.31,1.13-.47,1.79-.47.49,0,.92.1,1.3.31s.67.49.88.86.32.79.32,1.27c0,.65-.16,1.24-.47,1.78-.31.54-.74.96-1.28,1.27-.54.31-1.13.46-1.79.46-.49,0-.92-.1-1.29-.3ZM1038.42,897.8c.33-.23.59-.53.78-.9.19-.37.28-.77.28-1.2,0-.48-.14-.85-.41-1.11-.27-.26-.61-.39-1.03-.39s-.77.11-1.08.34-.57.53-.74.91c-.18.38-.27.79-.27,1.22,0,.47.13.83.38,1.09s.58.39.99.39.76-.11,1.09-.34Z"/>
              <path class="cls-84" d="M1050.55,893.69c.36.33.54.79.54,1.39,0,.16-.02.35-.05.58l-.61,3.4h-1.18l.58-3.22c.03-.2.04-.33.04-.42,0-.38-.11-.68-.32-.88s-.51-.3-.88-.3c-.45,0-.84.14-1.15.41-.31.28-.51.67-.59,1.19l-.58,3.22h-1.18l.58-3.22c.03-.2.04-.33.04-.42,0-.38-.11-.68-.32-.88s-.51-.3-.88-.3c-.45,0-.84.14-1.15.41-.31.28-.51.67-.59,1.19v-.03l-.58,3.25h-1.19l1.01-5.77h1.19l-.12.67c.23-.24.51-.42.83-.56.33-.14.66-.2,1.01-.2.46,0,.86.1,1.19.29s.56.48.7.85c.23-.35.55-.63.95-.83.41-.21.82-.31,1.25-.31.61,0,1.09.16,1.46.49Z"/>
              <path class="cls-105" d="M1056.93,893.8c.43.41.64.95.64,1.63,0,.16-.02.35-.05.58-.03.15-.08.34-.15.57h-4.41s-.01.12-.01.22c0,.41.13.74.38.98.25.25.59.37,1,.37.65,0,1.15-.27,1.5-.81h1.29c-.26.53-.66.96-1.17,1.3-.52.34-1.11.51-1.79.51-.48,0-.9-.09-1.27-.28s-.65-.46-.85-.81c-.2-.35-.3-.77-.3-1.24,0-.2.02-.42.06-.65.11-.59.32-1.12.64-1.57.32-.45.72-.8,1.2-1.04.48-.24,1-.37,1.57-.37.72,0,1.29.2,1.72.61ZM1056.35,895.44c0-.38-.13-.69-.38-.91-.25-.22-.58-.33-.99-.33-.43,0-.81.14-1.15.41-.34.27-.58.64-.7,1.11h3.2c.01-.13.02-.22.02-.27Z"/>
            </g>
            <g>
              <path class="cls-114" d="M1034.64,891.78l-1.29,7.27h-1.19l.57-3.21h-3.42l-.57,3.21h-1.19l1.29-7.27h1.19l-.55,3.14h3.42l.55-3.14h1.19Z"/>
              <path class="cls-51" d="M1035.9,898.85c-.37-.2-.66-.49-.86-.86s-.31-.79-.31-1.27c0-.65.15-1.24.46-1.78s.72-.96,1.26-1.28c.53-.31,1.13-.47,1.79-.47.49,0,.92.1,1.3.31s.67.49.88.86.32.79.32,1.27c0,.65-.16,1.24-.47,1.78-.31.54-.74.96-1.28,1.27-.54.31-1.13.46-1.79.46-.49,0-.92-.1-1.29-.3ZM1038.42,897.8c.33-.23.59-.53.78-.9.19-.37.28-.77.28-1.2,0-.48-.14-.85-.41-1.11-.27-.26-.61-.39-1.03-.39s-.77.11-1.08.34-.57.53-.74.91c-.18.38-.27.79-.27,1.22,0,.47.13.83.38,1.09s.58.39.99.39.76-.11,1.09-.34Z"/>
              <path class="cls-108" d="M1050.55,893.69c.36.33.54.79.54,1.39,0,.16-.02.35-.05.58l-.61,3.4h-1.18l.58-3.22c.03-.2.04-.33.04-.42,0-.38-.11-.68-.32-.88s-.51-.3-.88-.3c-.45,0-.84.14-1.15.41-.31.28-.51.67-.59,1.19l-.58,3.22h-1.18l.58-3.22c.03-.2.04-.33.04-.42,0-.38-.11-.68-.32-.88s-.51-.3-.88-.3c-.45,0-.84.14-1.15.41-.31.28-.51.67-.59,1.19v-.03l-.58,3.25h-1.19l1.01-5.77h1.19l-.12.67c.23-.24.51-.42.83-.56.33-.14.66-.2,1.01-.2.46,0,.86.1,1.19.29s.56.48.7.85c.23-.35.55-.63.95-.83.41-.21.82-.31,1.25-.31.61,0,1.09.16,1.46.49Z"/>
              <path class="cls-115" d="M1056.93,893.8c.43.41.64.95.64,1.63,0,.16-.02.35-.05.58-.03.15-.08.34-.15.57h-4.41s-.01.12-.01.22c0,.41.13.74.38.98.25.25.59.37,1,.37.65,0,1.15-.27,1.5-.81h1.29c-.26.53-.66.96-1.17,1.3-.52.34-1.11.51-1.79.51-.48,0-.9-.09-1.27-.28s-.65-.46-.85-.81c-.2-.35-.3-.77-.3-1.24,0-.2.02-.42.06-.65.11-.59.32-1.12.64-1.57.32-.45.72-.8,1.2-1.04.48-.24,1-.37,1.57-.37.72,0,1.29.2,1.72.61ZM1056.35,895.44c0-.38-.13-.69-.38-.91-.25-.22-.58-.33-.99-.33-.43,0-.81.14-1.15.41-.34.27-.58.64-.7,1.11h3.2c.01-.13.02-.22.02-.27Z"/>
            </g>
          </g>
        </g>
        <path class="cls-113" d="M1030.08,868.96v-.68c.15-.72.61-1.23,1.12-1.73,3.07-3.06,6.13-6.12,9.19-9.19.51-.51,1.02-.99,1.75-1.13h.68c.72.15,1.23.61,1.73,1.12,3.07,3.08,6.14,6.16,9.22,9.22.51.51.98,1.03,1.1,1.77v.58s-.03.07-.04.11c-.22,1.12-1.11,1.86-2.25,1.88-.12,0-.23,0-.36,0,0,.13,0,.23,0,.33,0,2.39,0,4.79,0,7.18,0,1.14-.78,2.14-1.86,2.48-.15.05-.31.08-.46.13h-4.45c-.43-.16-.58-.47-.58-.92.01-1.85,0-3.69,0-5.54,0-.82-.5-1.32-1.33-1.32-.69,0-1.37,0-2.06,0-.9,0-1.38.48-1.38,1.37,0,1.83,0,3.66,0,5.49,0,.45-.15.76-.58.92h-4.45s-.04-.03-.06-.03c-1.16-.14-2.3-1.22-2.28-2.79.03-2.33,0-4.66,0-6.99v-.3c-.17,0-.31,0-.44,0-.89-.05-1.55-.46-1.96-1.24-.12-.22-.17-.46-.25-.7Z"/>
      </g>
      <g>
        <text class="cls-13" transform="translate(1104.69 899.06)"><tspan x="0" y="0">NFTs</tspan></text>
        <g>
          <path class="cls-8" d="M1126.26,868.31h-.28c-1.16,0-2.32,0-3.47,0-2.16,0-3.84,1.72-3.81,3.88.03,1.98,1.7,3.65,3.68,3.68,1.2.02,2.4,0,3.59,0h.27c0,.07.02.13.02.19,0,.56,0,1.12,0,1.68-.01,1.09-.83,1.91-1.92,1.91-1.92,0-3.84,0-5.77,0-3.44,0-6.89,0-10.33,0-1.86,0-3.16-1.3-3.16-3.17,0-4.19,0-8.38,0-12.58,0-1.86,1.3-3.17,3.16-3.17,4.59,0,9.19,0,13.78,0,.7,0,1.22.48,1.21,1.14,0,.59-.47,1.09-1.06,1.13-.09,0-.19,0-.28,0-4.54,0-9.08,0-13.61,0-.1,0-.21,0-.31.01-.38.07-.65.42-.62.8.03.37.34.67.71.7.09,0,.17,0,.26,0,5.32,0,10.64,0,15.95,0,1.08,0,1.93.74,1.97,1.76.03.66,0,1.32,0,2.02Z"/>
          <path class="cls-8" d="M1126.26,869.84v4.5c-.05,0-.11.02-.16.02-1.21,0-2.43,0-3.64,0-1.04,0-1.92-.71-2.18-1.71-.26-.98.17-2.03,1.08-2.52.3-.16.67-.28,1.01-.29,1.27-.03,2.54-.02,3.81-.02.02,0,.04,0,.09.02Z"/>
        </g>
      </g>
      <g>
        <text class="cls-13" transform="translate(1272.42 899.06)"><tspan x="0" y="0">Activity</tspan></text>
        <g>
          <path class="cls-8" d="M1287.56,868.59c0-3.75,0-7.5,0-11.26,0-.76.32-1.08,1.07-1.08,1.66,0,3.31,0,4.97,0,.69,0,1.03.34,1.03,1.03,0,7.55,0,15.1,0,22.65,0,.69-.34,1.04-1.03,1.04-1.67,0-3.35,0-5.02,0-.67,0-1.01-.35-1.01-1.02,0-3.79,0-7.58,0-11.37Z"/>
          <path class="cls-8" d="M1296.39,872.16c0-2.59,0-5.19,0-7.78,0-.73.32-1.06,1.06-1.06,1.66,0,3.33,0,4.99,0,.66,0,1.01.35,1.01,1,0,5.22,0,10.45,0,15.67,0,.63-.36.99-.99.99-1.69,0-3.38,0-5.08,0-.64,0-.99-.35-.99-.99,0-2.61,0-5.22,0-7.84Z"/>
          <path class="cls-8" d="M1278.73,875.69c0-1.43,0-2.87,0-4.3,0-.64.35-.99.99-.99,1.7,0,3.4,0,5.1,0,.62,0,.97.36.97.98,0,2.88,0,5.76,0,8.64,0,.62-.36.98-.97.98-1.71,0-3.42,0-5.13,0-.6,0-.96-.36-.96-.96,0-1.44,0-2.89,0-4.33Z"/>
        </g>
      </g>
      <g>
        <text class="cls-13" transform="translate(1349.12 899.06)"><tspan x="0" y="0">Profile</tspan></text>
        <g>
          <path class="cls-8" d="M1364.69,856.9c.3.06.61.11.91.18,2.08.49,3.85,2.47,4.13,4.59.18,1.4-.02,2.71-.81,3.89-1.05,1.57-2.49,2.48-4.41,2.61-2.52.17-4.58-1.31-5.52-3.32-.88-1.89-.53-4.4.86-5.96.85-.96,1.87-1.62,3.14-1.88.22-.04.43-.08.65-.12h1.05Z"/>
          <path class="cls-8" d="M1364.3,880.34c-1.86,0-3.72,0-5.58,0-.94,0-1.83-.19-2.62-.75-.9-.64-1.43-1.52-1.52-2.6-.17-1.94.06-3.84.79-5.65.44-1.09,1.09-2.03,2.17-2.6.67-.35,1.38-.52,2.13-.51.23,0,.47.12.68.23.35.19.68.43,1.03.64,1.95,1.2,3.91,1.2,5.86,0,.23-.14.48-.28.69-.45.6-.48,1.27-.49,1.97-.34,1.37.29,2.33,1.1,3,2.3.66,1.19.95,2.49,1.08,3.82.07.7.1,1.4.09,2.1-.03,2.02-1.47,3.56-3.48,3.75-.29.03-.58.04-.87.04-1.81,0-3.62,0-5.42,0Z"/>
        </g>
      </g>
    </g>
    <text class="cls-18" transform="translate(1017.36 571.46)"><tspan x="0" y="0">Staking Options</tspan></text>
    <g>
      <rect class="cls-44" x="1018.24" y="597.33" width="78.51" height="78.51" rx="12" ry="12"/>
      <g>
        <g>
          <path class="cls-8" d="M1052.74,632.01h.32c3.83,0,7.66,0,11.5,0,1.26,0,2.22.8,2.42,2.01.24,1.38-.82,2.68-2.22,2.75-.12,0-.23,0-.35,0-3.78,0-7.56,0-11.35,0h-.32v.28c0,.69,0,1.37,0,2.06,0,.36-.16.63-.49.77-.33.14-.63.06-.89-.19-1.58-1.58-3.16-3.15-4.73-4.73-.33-.33-.33-.8,0-1.13,1.57-1.58,3.15-3.16,4.73-4.73.25-.25.55-.33.89-.19.33.14.49.41.49.76,0,.77,0,1.54,0,2.34Z"/>
          <path class="cls-8" d="M1062.25,627.25h-.32c-3.83,0-7.66,0-11.5,0-1.25,0-2.22-.8-2.42-2.01-.24-1.36.81-2.67,2.2-2.74.12,0,.23,0,.35,0,3.79,0,7.58,0,11.37,0h.32v-.28c0-.69,0-1.37,0-2.06,0-.36.16-.63.48-.77.33-.14.63-.07.89.19,1.58,1.58,3.16,3.15,4.73,4.73.33.33.33.8,0,1.13-1.58,1.59-3.16,3.17-4.75,4.75-.24.24-.55.31-.87.17-.33-.14-.49-.41-.49-.76,0-.77,0-1.54,0-2.34Z"/>
        </g>
        <text class="cls-4" transform="translate(1021.23 657.67)"><tspan x="0" y="0">Add/Remove</tspan></text>
      </g>
    </g>
    <g>
      <rect class="cls-42" x="1115.78" y="597.33" width="78.51" height="78.51" rx="12" ry="12"/>
      <g>
        <text class="cls-4" transform="translate(1123.64 657.67)"><tspan x="0" y="0">Compound</tspan></text>
        <g>
          <path class="cls-8" d="M1149.64,633.48h.28c3.54,0,7.08,0,10.62,0,.24,0,.33-.07.39-.29.26-.91.54-1.81.81-2.71.17-.58.44-.77,1.04-.77,1.74,0,3.48,0,5.23,0,.67,0,1.01.34,1.01,1,0,3.33,0,6.65,0,9.98,0,.67-.33,1-1,1-8.53,0-17.06,0-25.59,0-.66,0-.98-.32-.98-.99,0-3.33,0-6.67,0-10,0-.66.33-.99.98-.99,1.76,0,3.52,0,5.28,0,.55,0,.82.2.99.73.31,1,.61,2.01.93,3.04Z"/>
          <path class="cls-8" d="M1158.98,624.14c.61,0,1.17,0,1.73,0,.42,0,.76.12.93.53.17.4.03.73-.27,1.04-1.81,1.88-3.62,3.76-5.43,5.64-.46.48-.95.48-1.41,0-1.82-1.89-3.63-3.78-5.45-5.66-.29-.3-.41-.63-.24-1.02.17-.39.5-.53.91-.52.57,0,1.15,0,1.77,0v-.35c0-2.49,0-4.99,0-7.48,0-.73.31-1.04,1.05-1.04,1.79,0,3.58,0,5.37,0,.73,0,1.05.32,1.06,1.04,0,2.48,0,4.97,0,7.45v.38Z"/>
        </g>
      </g>
    </g>
    <g>
      <rect class="cls-47" x="1213.32" y="597.33" width="78.51" height="78.51" rx="12" ry="12"/>
      <g>
        <text class="cls-4" transform="translate(1239.18 657.67)"><tspan x="0" y="0">NFTs</tspan></text>
        <g>
          <path class="cls-8" d="M1262.58,625.7h-.29c-1.2,0-2.41,0-3.61,0-2.25,0-4,1.79-3.96,4.04.03,2.06,1.76,3.8,3.83,3.83,1.25.02,2.49,0,3.74,0,.09,0,.18,0,.28,0,0,.07.02.14.02.2,0,.58,0,1.16,0,1.75-.01,1.13-.86,1.99-2,1.99-2,0-4,0-6,0-3.58,0-7.16,0-10.74,0-1.93,0-3.29-1.36-3.29-3.3,0-4.36,0-8.72,0-13.08,0-1.94,1.35-3.3,3.29-3.3,4.78,0,9.55,0,14.33,0,.73,0,1.26.5,1.26,1.19,0,.62-.49,1.13-1.1,1.17-.1,0-.2,0-.29,0-4.72,0-9.44,0-14.16,0-.11,0-.21,0-.32.01-.39.07-.67.44-.64.84.03.38.35.7.74.72.09,0,.18,0,.27,0,5.53,0,11.06,0,16.59,0,1.12,0,2,.77,2.05,1.83.03.69,0,1.38,0,2.1Z"/>
          <path class="cls-8" d="M1262.58,627.29v4.68c-.06,0-.11.02-.16.02-1.26,0-2.52,0-3.79,0-1.08,0-1.99-.73-2.26-1.78-.27-1.02.18-2.11,1.12-2.62.31-.17.69-.29,1.05-.3,1.32-.04,2.64-.02,3.96-.02.02,0,.05,0,.09.02Z"/>
        </g>
      </g>
    </g>
    <g>
      <rect class="cls-48" x="1310.86" y="597.33" width="78.51" height="78.51" rx="12" ry="12"/>
      <g>
        <text class="cls-4" transform="translate(1335.04 657.67)"><tspan x="0" y="0">Pools</tspan></text>
        <g>
          <path class="cls-8" d="M1338.34,628.05s.03-.07.04-.1c.2-.79.82-1.29,1.64-1.29,1.85,0,3.71,0,5.56,0,3.23,0,6.46,0,9.69,0h.32c-.08-.09-.13-.15-.18-.2-.65-.66-1.33-1.3-1.96-1.97-.79-.84-.48-2.22.58-2.65.67-.27,1.3-.15,1.82.36.54.53,1.07,1.07,1.6,1.6,1.02,1.02,2.03,2.03,3.05,3.05.07.07.15.14.23.21.53.47.71,1.17.47,1.84-.24.66-.82,1.08-1.53,1.08-1.42,0-2.84,0-4.26,0-5,0-10.01,0-15.01,0-1.24,0-1.63-.26-2.07-1.39v-.54Z"/>
          <path class="cls-8" d="M1338.34,633.75s.03-.07.04-.1c.19-.84.81-1.33,1.68-1.33,3.57,0,7.14,0,10.71,0,2.95,0,5.9,0,8.84,0,1.01,0,1.76.77,1.72,1.76-.04.84-.74,1.54-1.59,1.56-.19,0-.39,0-.58,0-4.92,0-9.85,0-14.77,0h-.33c.08.09.13.15.18.2.64.65,1.3,1.28,1.93,1.94.91.94.45,2.48-.83,2.77-.59.13-1.11-.03-1.55-.45-.38-.37-.75-.75-1.13-1.13-1.19-1.19-2.37-2.39-3.58-3.57-.35-.34-.64-.69-.75-1.16v-.49Z"/>
        </g>
      </g>
    </g>
    <g>
      <text class="cls-18" transform="translate(1017.36 733.7)"><tspan x="0" y="0">My Activities</tspan></text>
      <g>
        <text class="cls-2" transform="translate(1312.92 731.04)"><tspan x="0" y="0">View all</tspan></text>
        <path class="cls-8" d="M1370.05,730.19c-.16,0-.31-.06-.43-.18-.24-.24-.24-.62,0-.86l2.73-2.73-2.73-2.73c-.24-.24-.24-.62,0-.86.24-.24.62-.24.86,0l3.59,3.59-3.59,3.59c-.12.12-.27.18-.43.18Z"/>
      </g>
    </g>
    <rect class="cls-45" x="1018.24" y="758.32" width="371.14" height="54.1" rx="12" ry="12"/>
    <g>
      <text class="cls-11" transform="translate(1036.95 781.95)"><tspan x="0" y="0">December 30</tspan></text>
      <polygon class="cls-93" points="1292.34 784.05 1287.4 784.05 1287.4 779.11 1284.75 779.11 1284.75 784.05 1279.81 784.05 1279.81 786.7 1284.75 786.7 1284.75 791.64 1287.4 791.64 1287.4 786.7 1292.34 786.7 1292.34 784.05"/>
    </g>
    <text class="cls-5" transform="translate(1034.84 792.95)"><tspan x="0" y="0">Staked NFT</tspan></text>
    <text class="cls-40" transform="translate(1298.6 789.19)"><tspan x="0" y="0">Water Wizards</tspan></text>
    <g>
      <path class="cls-8" d="M1060.06,425.62c.46-.04.92.12,1.26.41,1.71-.79,2.85,1.43,3.14,2.8,1.21-.4,2.77,1.57,3.05,2.64.17.04.33.09.5.13.55.24,2.95,2.76,3.51,3.66.95,1.52,1.32,3.65.67,5.35-1.07,2.78-7.38,8.29-9.77,10.7-.26.26-.63.81-.95.95-.95.4-2.09-.34-2.14-1.36-.09-.17-.38-.02-.91-.43-.47-.36-1.86-1.81-1.73-2.51-.28-.04-.56-.09-.84-.13-.65-.24-1.42-1.33-1.54-2.02-.61.04-2.62-2.04-3.08-2.56-.44-.51-1.14-1.47-1.41-2.08-.56-1.28-.72-3.06-.26-4.38.85-2.43,5.11-6.2,7.04-8.08.88-.9,1.76-1.81,2.64-2.71.2-.17.56-.35.82-.37ZM1060.01,426.95s-.02.02-.04.04c-.7.72-1.4,1.44-2.1,2.15-1.79,1.75-7.1,6.36-7.37,8.71-.23,1.95.54,3.37,1.78,4.75.6.59,1.2,1.18,1.8,1.76.04.01.09.02.13.04.02.02.14.31.5.22.08-.08.16-.16.24-.24.04-.16-.26-1.9-.15-3.31.31-4.05,3.4-6.27,4.79-9.81.35-.88.89-2.95.93-3.86.01-.31.06-.74-.39-.61-.04.05-.09.1-.13.15ZM1056.44,446.71c.33-.19.66-2.86.82-3.44.85-3.08,3.82-5.55,5.2-8.43.81-1.69,1.37-4.07.85-5.91-.11-.41-.57-1.44-.93-1.65-.01-.02-.02-.05-.04-.07-.06-.08-.34-.27-.41-.17-.02,1.96.21,3-.41,4.94-1.36,4.28-5.96,7.16-6.24,11.81-.05.82.03,1.77.52,2.45.1.15.47.56.63.46ZM1058.75,449.06c.95.92.52.81.82-.76.9-4.82,4.94-7.29,6.39-11.29.54-1.49.99-4.44.15-5.83-.12-.19-.62-.82-.82-.87-.01-.01-.02-.02-.04-.04-.06-.07-.37-.4-.45-.28.27,3.7-.01,5.41-2.08,8.43-1.94,2.83-4.05,4.43-4.68,8.06-.27,1.54-.39,1.52.71,2.58ZM1067.42,432.67c-.19.04.05,1.27.06,1.5.15,3.69-.94,6.08-3.01,8.99-.86,1.21-2.1,2.6-2.82,3.9-.39.69-1.98,3.95-.69,4.1,2.39-2.77,8.13-7.42,9.79-10.34.56-.98.68-1.83.56-2.97-.12-1.08-1-2.36-1.71-3.16-.66-.65-1.32-1.3-1.99-1.95-.06-.02-.12-.05-.19-.07Z"/>
      <g>
        <path class="cls-100" d="M1065.25,430.26s.02.02.04.04c.49.62.67,1.62.71,2.4.29,6.9-5.95,9.09-7.02,15.16-.07.41-.05,1.18-.22,1.21-1.1-1.06-.97-1.04-.71-2.58.63-3.63,2.74-5.23,4.68-8.06,2.07-3.02,2.35-4.73,2.08-8.43.08-.12.38.21.45.28Z"/>
        <path class="cls-90" d="M1065.28,430.3s-.02-.02-.04-.04c.01.01.02.02.04.04Z"/>
        <path class="cls-70" d="M1058.75,449.06c.17-.03.15-.79.22-1.21,1.07-6.06,7.31-8.25,7.02-15.16-.03-.78-.21-1.78-.71-2.4.2.06.7.68.82.87.84,1.39.39,4.34-.15,5.83-1.44,4-5.49,6.48-6.39,11.29-.29,1.57.13,1.68-.82.76Z"/>
      </g>
      <path class="cls-100" d="M1067.42,432.67c.06.02.12.05.19.07.66.65,1.32,1.3,1.99,1.95.71.8,1.59,2.07,1.71,3.16.12,1.15,0,1.99-.56,2.97-1.66,2.92-7.4,7.58-9.79,10.34-1.29-.16.3-3.41.69-4.1.73-1.3,1.96-2.69,2.82-3.9,2.07-2.91,3.16-5.3,3.01-8.99,0-.24-.24-1.46-.06-1.5Z"/>
      <g>
        <path class="cls-70" d="M1054.21,444.41c.3,0,.02-1.02,0-1.47-.26-5.96,3.1-7.27,4.94-11.55.36-.84.78-2.19.93-3.08.11-.66.26-1.4-.07-1.36.04-.05.09-.1.13-.15.45-.12.4.3.39.61-.04.91-.58,2.98-.93,3.86-1.39,3.53-4.48,5.76-4.79,9.81-.11,1.41.19,3.15.15,3.31-.08.08-.16.16-.24.24-.36.09-.48-.21-.5-.22Z"/>
        <path class="cls-90" d="M1059.97,426.99s.02-.02.04-.04c-.01.01-.02.02-.04.04Z"/>
        <path class="cls-100" d="M1054.21,444.41s-.09-.02-.13-.04c-.6-.59-1.2-1.18-1.8-1.76-1.25-1.39-2.01-2.81-1.78-4.75.27-2.35,5.58-6.97,7.37-8.71.7-.72,1.4-1.44,2.1-2.15.01-.01.02-.02.04-.04.34-.04.19.69.07,1.36-.15.9-.57,2.24-.93,3.08-1.84,4.28-5.2,5.59-4.94,11.55.02.45.3,1.46,0,1.47Z"/>
      </g>
      <g>
        <path class="cls-100" d="M1062.35,427.21s.02.05.04.07c.58.94.65,3.16.52,4.25-.75,6.28-7.19,8.48-6.46,15.17-.17.09-.53-.32-.63-.46-.49-.68-.57-1.64-.52-2.45.28-4.65,4.88-7.54,6.24-11.81.62-1.94.38-2.98.41-4.94.07-.11.35.09.41.17Z"/>
        <path class="cls-90" d="M1062.39,427.29s-.02-.05-.04-.07c.01.02.02.05.04.07Z"/>
        <path class="cls-70" d="M1056.44,446.71c-.73-6.7,5.71-8.9,6.46-15.17.13-1.09.06-3.32-.52-4.25.36.21.81,1.24.93,1.65.52,1.83-.05,4.22-.85,5.91-1.38,2.88-4.35,5.35-5.2,8.43-.16.58-.48,3.25-.82,3.44Z"/>
      </g>
    </g>
    <g>
      <path class="cls-8" d="M184.16,331.55s.03-.07.04-.1c.2-.79.82-1.29,1.64-1.29,1.85,0,3.71,0,5.56,0,3.23,0,6.46,0,9.69,0h.32c-.08-.09-.13-.15-.18-.2-.65-.66-1.33-1.3-1.96-1.97-.79-.84-.48-2.22.58-2.65.67-.27,1.3-.15,1.82.36.54.53,1.07,1.07,1.6,1.6,1.02,1.02,2.03,2.03,3.05,3.05.07.07.15.14.23.21.53.47.71,1.17.47,1.84-.24.66-.82,1.08-1.53,1.08-1.42,0-2.84,0-4.26,0-5,0-10.01,0-15.01,0-1.24,0-1.63-.26-2.07-1.39v-.54Z"/>
      <path class="cls-8" d="M184.16,337.26s.03-.07.04-.1c.19-.84.81-1.33,1.68-1.33,3.57,0,7.14,0,10.71,0,2.95,0,5.9,0,8.84,0,1.01,0,1.76.77,1.72,1.76-.04.84-.74,1.54-1.59,1.56-.19,0-.39,0-.58,0-4.92,0-9.85,0-14.77,0h-.33c.08.09.13.15.18.2.64.65,1.3,1.28,1.93,1.94.91.94.45,2.48-.83,2.77-.59.13-1.11-.03-1.55-.45-.38-.37-.75-.75-1.13-1.13-1.19-1.19-2.37-2.39-3.58-3.57-.35-.34-.64-.69-.75-1.16v-.49Z"/>
    </g>
    <g>
      <path class="cls-8" d="M207.05,388.99h-.29c-1.2,0-2.41,0-3.61,0-2.25,0-4,1.79-3.96,4.04.03,2.06,1.76,3.8,3.83,3.83,1.25.02,2.49,0,3.74,0,.09,0,.18,0,.28,0,0,.07.02.14.02.2,0,.58,0,1.16,0,1.75-.01,1.13-.86,1.99-2,1.99-2,0-4,0-6,0-3.58,0-7.16,0-10.74,0-1.93,0-3.29-1.36-3.29-3.3,0-4.36,0-8.72,0-13.08,0-1.94,1.35-3.3,3.29-3.3,4.78,0,9.55,0,14.33,0,.73,0,1.26.5,1.26,1.19,0,.62-.49,1.13-1.1,1.17-.1,0-.2,0-.29,0-4.72,0-9.44,0-14.16,0-.11,0-.21,0-.32.01-.39.07-.67.44-.64.84.03.38.35.7.74.72.09,0,.18,0,.27,0,5.53,0,11.06,0,16.59,0,1.12,0,2,.77,2.05,1.83.03.69,0,1.38,0,2.1Z"/>
      <path class="cls-8" d="M207.05,390.59v4.68c-.06,0-.11.02-.16.02-1.26,0-2.52,0-3.79,0-1.08,0-1.99-.73-2.26-1.78-.27-1.02.18-2.11,1.12-2.62.31-.17.69-.29,1.05-.3,1.32-.04,2.64-.02,3.96-.02.02,0,.05,0,.09.02Z"/>
    </g>
    <g>
      <path class="cls-8" d="M197.46,432.98c.3.06.61.11.91.18,2.08.49,3.85,2.47,4.13,4.59.18,1.4-.02,2.71-.81,3.89-1.05,1.57-2.49,2.48-4.41,2.61-2.52.17-4.58-1.31-5.52-3.32-.88-1.89-.53-4.4.86-5.96.85-.96,1.87-1.62,3.14-1.88.22-.04.43-.08.65-.12h1.05Z"/>
      <path class="cls-8" d="M197.07,456.42c-1.86,0-3.72,0-5.58,0-.94,0-1.83-.19-2.62-.75-.9-.64-1.43-1.52-1.52-2.6-.17-1.94.06-3.84.79-5.65.44-1.09,1.09-2.03,2.17-2.6.67-.35,1.38-.52,2.13-.51.23,0,.47.12.68.23.35.19.68.43,1.03.64,1.95,1.2,3.91,1.2,5.86,0,.23-.14.48-.28.69-.45.6-.48,1.27-.49,1.97-.34,1.37.29,2.33,1.1,3,2.3.66,1.19.95,2.49,1.08,3.82.07.7.1,1.4.09,2.1-.03,2.02-1.47,3.56-3.48,3.75-.29.03-.58.04-.87.04-1.81,0-3.62,0-5.42,0Z"/>
    </g>
  </g>
</svg>