<?xml version="1.0" encoding="UTF-8"?>
<svg id="Layer_1" data-name="Layer 1" xmlns="http://www.w3.org/2000/svg" xmlns:xlink="http://www.w3.org/1999/xlink" viewBox="0 0 1080 692">
  <defs>
    <style>
      .cls-1 {
        filter: url(#drop-shadow-14);
      }

      .cls-2 {
        filter: url(#outer-glow-5);
      }

      .cls-2, .cls-3, .cls-4, .cls-5, .cls-6, .cls-7, .cls-8, .cls-9 {
        fill: none;
        stroke: #a4e7f8;
        stroke-linecap: round;
        stroke-miterlimit: 10;
        stroke-width: 3px;
      }

      .cls-10 {
        fill: #1da2ba;
      }

      .cls-3 {
        filter: url(#outer-glow-8);
      }

      .cls-4 {
        filter: url(#outer-glow-9);
      }

      .cls-11 {
        filter: url(#drop-shadow-4);
      }

      .cls-12 {
        filter: url(#drop-shadow-7);
      }

      .cls-13 {
        filter: url(#drop-shadow-1);
      }

      .cls-14 {
        fill: #545cc4;
      }

      .cls-5 {
        filter: url(#outer-glow-2);
      }

      .cls-6 {
        filter: url(#outer-glow-6);
      }

      .cls-15 {
        filter: url(#drop-shadow-11);
      }

      .cls-16 {
        filter: url(#drop-shadow-10);
      }

      .cls-7 {
        filter: url(#outer-glow-13);
      }

      .cls-17 {
        fill: #3a4082;
      }

      .cls-18 {
        fill: #006c77;
      }

      .cls-8 {
        filter: url(#outer-glow-3);
      }

      .cls-9 {
        filter: url(#outer-glow-12);
      }

      .cls-19 {
        fill: #0280a3;
      }

      .cls-20 {
        fill: #1993a8;
      }

      .cls-21 {
        fill: #797dfd;
      }

      .cls-22 {
        fill: #4abcd6;
      }

      .cls-23 {
        fill: url(#linear-gradient);
      }
    </style>
    <filter id="drop-shadow-1" x="157" y="397" width="294" height="86" filterUnits="userSpaceOnUse">
      <feOffset dx="4" dy="0"/>
      <feGaussianBlur result="blur" stdDeviation="2"/>
      <feFlood flood-color="#000" flood-opacity=".16"/>
      <feComposite in2="blur" operator="in"/>
      <feComposite in="SourceGraphic"/>
    </filter>
    <filter id="outer-glow-2" x="95" y="447" width="170" height="105" filterUnits="userSpaceOnUse">
      <feOffset dx="0" dy="0"/>
      <feGaussianBlur result="blur-2" stdDeviation="5"/>
      <feFlood flood-color="#a4e7f8" flood-opacity=".75"/>
      <feComposite in2="blur-2" operator="in"/>
      <feComposite in="SourceGraphic"/>
    </filter>
    <filter id="outer-glow-3" x="375" y="420" width="341" height="34" filterUnits="userSpaceOnUse">
      <feOffset dx="0" dy="0"/>
      <feGaussianBlur result="blur-3" stdDeviation="5"/>
      <feFlood flood-color="#a4e7f8" flood-opacity=".75"/>
      <feComposite in2="blur-3" operator="in"/>
      <feComposite in="SourceGraphic"/>
    </filter>
    <filter id="drop-shadow-4" x="536" y="397" width="294" height="86" filterUnits="userSpaceOnUse">
      <feOffset dx="4" dy="0"/>
      <feGaussianBlur result="blur-4" stdDeviation="2"/>
      <feFlood flood-color="#000" flood-opacity=".16"/>
      <feComposite in2="blur-4" operator="in"/>
      <feComposite in="SourceGraphic"/>
    </filter>
    <filter id="outer-glow-5" x="475" y="447" width="170" height="105" filterUnits="userSpaceOnUse">
      <feOffset dx="0" dy="0"/>
      <feGaussianBlur result="blur-5" stdDeviation="5"/>
      <feFlood flood-color="#a4e7f8" flood-opacity=".75"/>
      <feComposite in2="blur-5" operator="in"/>
      <feComposite in="SourceGraphic"/>
    </filter>
    <filter id="outer-glow-6" x="220" y="513" width="342" height="34" filterUnits="userSpaceOnUse">
      <feOffset dx="0" dy="0"/>
      <feGaussianBlur result="blur-6" stdDeviation="5"/>
      <feFlood flood-color="#a4e7f8" flood-opacity=".75"/>
      <feComposite in2="blur-6" operator="in"/>
      <feComposite in="SourceGraphic"/>
    </filter>
    <filter id="drop-shadow-7" x="397" y="489" width="294" height="86" filterUnits="userSpaceOnUse">
      <feOffset dx="4" dy="0"/>
      <feGaussianBlur result="blur-7" stdDeviation="2"/>
      <feFlood flood-color="#000" flood-opacity=".16"/>
      <feComposite in2="blur-7" operator="in"/>
      <feComposite in="SourceGraphic"/>
    </filter>
    <filter id="outer-glow-8" x="615" y="513" width="341" height="34" filterUnits="userSpaceOnUse">
      <feOffset dx="0" dy="0"/>
      <feGaussianBlur result="blur-8" stdDeviation="5"/>
      <feFlood flood-color="#a4e7f8" flood-opacity=".75"/>
      <feComposite in2="blur-8" operator="in"/>
      <feComposite in="SourceGraphic"/>
    </filter>
    <filter id="outer-glow-9" x="338" y="540" width="171" height="104" filterUnits="userSpaceOnUse">
      <feOffset dx="0" dy="0"/>
      <feGaussianBlur result="blur-9" stdDeviation="5"/>
      <feFlood flood-color="#a4e7f8" flood-opacity=".75"/>
      <feComposite in2="blur-9" operator="in"/>
      <feComposite in="SourceGraphic"/>
    </filter>
    <filter id="drop-shadow-10" x="188" y="598" width="294" height="86" filterUnits="userSpaceOnUse">
      <feOffset dx="4" dy="0"/>
      <feGaussianBlur result="blur-10" stdDeviation="2"/>
      <feFlood flood-color="#000" flood-opacity=".16"/>
      <feComposite in2="blur-10" operator="in"/>
      <feComposite in="SourceGraphic"/>
    </filter>
    <filter id="drop-shadow-11" x="792" y="489" width="294" height="86" filterUnits="userSpaceOnUse">
      <feOffset dx="4" dy="0"/>
      <feGaussianBlur result="blur-11" stdDeviation="2"/>
      <feFlood flood-color="#000" flood-opacity=".16"/>
      <feComposite in2="blur-11" operator="in"/>
      <feComposite in="SourceGraphic"/>
    </filter>
    <filter id="outer-glow-12" x="406" y="621" width="342" height="34" filterUnits="userSpaceOnUse">
      <feOffset dx="0" dy="0"/>
      <feGaussianBlur result="blur-12" stdDeviation="5"/>
      <feFlood flood-color="#a4e7f8" flood-opacity=".75"/>
      <feComposite in2="blur-12" operator="in"/>
      <feComposite in="SourceGraphic"/>
    </filter>
    <filter id="outer-glow-13" x="738" y="540" width="170" height="104" filterUnits="userSpaceOnUse">
      <feOffset dx="0" dy="0"/>
      <feGaussianBlur result="blur-13" stdDeviation="5"/>
      <feFlood flood-color="#a4e7f8" flood-opacity=".75"/>
      <feComposite in2="blur-13" operator="in"/>
      <feComposite in="SourceGraphic"/>
    </filter>
    <filter id="drop-shadow-14" x="584" y="598" width="293" height="86" filterUnits="userSpaceOnUse">
      <feOffset dx="4" dy="0"/>
      <feGaussianBlur result="blur-14" stdDeviation="2"/>
      <feFlood flood-color="#000" flood-opacity=".16"/>
      <feComposite in2="blur-14" operator="in"/>
      <feComposite in="SourceGraphic"/>
    </filter>
    <linearGradient id="linear-gradient" x1="546.04" y1="524.91" x2="536.04" y2="65.04" gradientUnits="userSpaceOnUse">
      <stop offset="0" stop-color="#4abcd6" stop-opacity=".5"/>
      <stop offset=".78" stop-color="#708af5" stop-opacity=".1"/>
      <stop offset=".94" stop-color="#708af5" stop-opacity="0"/>
    </linearGradient>
  </defs>
  <g class="cls-13">
    <rect class="cls-18" x="159.94" y="452.93" width="185.11" height="23.78"/>
    <polygon class="cls-10" points="440.75 427.39 345.06 476.71 345.06 452.93 440.75 403.61 440.75 427.39"/>
    <polygon class="cls-22" points="345.06 452.93 159.94 452.93 255.64 403.61 440.75 403.61 345.06 452.93"/>
  </g>
  <line class="cls-5" x1="248.48" y1="464.18" x2="112.38" y2="534.95"/>
  <line class="cls-8" x1="391.76" y1="437.44" x2="699.33" y2="437.44"/>
  <polyline class="cls-18" points="5.24 544.99 190.35 544.99 190.35 568.77 5.24 568.77"/>
  <polygon class="cls-10" points="286.05 519.46 190.35 568.77 190.35 544.99 286.05 495.67 286.05 519.46"/>
  <polyline class="cls-22" points="5.24 544.99 100.93 495.67 286.05 495.67 190.35 544.99 5.24 544.99"/>
  <g class="cls-11">
    <rect class="cls-18" x="538.74" y="452.45" width="185.11" height="23.78"/>
    <polygon class="cls-10" points="819.54 426.91 723.85 476.23 723.85 452.45 819.54 403.13 819.54 426.91"/>
    <polygon class="cls-22" points="723.85 452.45 538.74 452.45 634.43 403.13 819.54 403.13 723.85 452.45"/>
  </g>
  <line class="cls-2" x1="627.65" y1="464.18" x2="491.55" y2="534.95"/>
  <line class="cls-6" x1="237.05" y1="529.5" x2="544.63" y2="529.5"/>
  <g class="cls-12">
    <rect class="cls-18" x="399.92" y="544.99" width="185.11" height="23.78"/>
    <polygon class="cls-10" points="680.72 519.46 585.03 568.77 585.03 544.99 680.72 495.67 680.72 519.46"/>
    <polygon class="cls-22" points="585.03 544.99 399.92 544.99 495.61 495.67 680.72 495.67 585.03 544.99"/>
  </g>
  <line class="cls-3" x1="631.73" y1="529.5" x2="939.31" y2="529.5"/>
  <line class="cls-4" x1="491.55" y1="556.72" x2="355.45" y2="627.49"/>
  <g>
    <rect class="cls-21" x="413.86" y="48.71" width="160.31" height="168.96"/>
    <polygon class="cls-14" points="657.05 174.96 574.18 217.67 574.18 48.71 657.05 6 657.05 174.96"/>
    <polygon class="cls-17" points="574.18 48.71 413.86 48.71 496.74 6 657.05 6 574.18 48.71"/>
  </g>
  <g class="cls-16">
    <rect class="cls-18" x="190.33" y="653.87" width="185.11" height="23.78"/>
    <polygon class="cls-10" points="471.14 628.33 375.44 677.65 375.44 653.87 471.14 604.55 471.14 628.33"/>
    <polygon class="cls-22" points="375.44 653.87 190.33 653.87 286.02 604.55 471.14 604.55 375.44 653.87"/>
  </g>
  <g class="cls-15">
    <rect class="cls-18" x="794.6" y="544.99" width="185.11" height="23.78"/>
    <polygon class="cls-10" points="1075.4 519.46 979.71 568.77 979.71 544.99 1075.4 495.67 1075.4 519.46"/>
    <polygon class="cls-22" points="979.71 544.99 794.6 544.99 890.29 495.67 1075.4 495.67 979.71 544.99"/>
  </g>
  <line class="cls-9" x1="423.29" y1="638.38" x2="730.87" y2="638.38"/>
  <line class="cls-7" x1="890.97" y1="556.72" x2="754.88" y2="627.49"/>
  <g class="cls-1">
    <rect class="cls-18" x="586.16" y="653.87" width="185.11" height="23.78"/>
    <polygon class="cls-10" points="866.96 628.33 771.27 677.65 771.27 653.87 866.96 604.55 866.96 628.33"/>
    <polygon class="cls-22" points="771.27 653.87 586.16 653.87 681.85 604.55 866.96 604.55 771.27 653.87"/>
  </g>
  <polygon class="cls-23" points="681.04 7.26 400.22 7.26 400.22 544.58 585.32 544.58 681.04 502.85 681.04 7.26"/>
  <g>
    <path class="cls-14" d="M488.64,79.41c1.86-.17,3.7.47,5.1,1.65,6.91-3.2,11.49,5.78,12.67,11.32,4.9-1.61,11.19,6.32,12.3,10.65.67.17,1.35.35,2.02.52,2.24.97,11.9,11.13,14.17,14.77,3.82,6.13,5.35,14.75,2.7,21.6-4.34,11.23-29.8,33.47-39.44,43.19-1.04,1.05-2.52,3.28-3.82,3.82-3.84,1.61-8.43-1.37-8.62-5.47-.36-.67-1.53-.07-3.67-1.72-1.89-1.46-7.49-7.32-6.97-10.12-1.12-.17-2.25-.35-3.37-.52-2.64-.98-5.71-5.36-6.22-8.17-2.45.16-10.6-8.23-12.45-10.35-1.79-2.05-4.62-5.95-5.7-8.4-2.27-5.15-2.92-12.35-1.05-17.7,3.43-9.82,20.62-25.03,28.42-32.62,3.55-3.65,7.1-7.3,10.65-10.95.82-.67,2.26-1.4,3.3-1.5ZM488.42,84.81s-.1.1-.15.15c-2.82,2.9-5.65,5.8-8.47,8.7-7.23,7.05-28.67,25.66-29.77,35.17-.91,7.86,2.16,13.59,7.2,19.2,2.42,2.37,4.85,4.75,7.27,7.12.17.05.35.1.52.15.1.07.56,1.25,2.02.9.32-.32.65-.65.97-.97.16-.65-1.04-7.66-.6-13.35,1.25-16.34,13.72-25.33,19.35-39.59,1.41-3.56,3.59-11.93,3.75-15.6.05-1.25.24-2.97-1.57-2.47-.17.2-.35.4-.52.6ZM474.02,164.59c1.34-.76,2.66-11.55,3.3-13.87,3.42-12.43,15.43-22.42,21-34.04,3.26-6.81,5.53-16.44,3.45-23.85-.46-1.65-2.29-5.83-3.75-6.67-.05-.1-.1-.2-.15-.3-.24-.31-1.38-1.1-1.65-.67-.1,7.92.85,12.1-1.65,19.95-5.49,17.26-24.05,28.9-25.2,47.69-.2,3.29.14,7.16,2.1,9.9.42.59,1.88,2.26,2.55,1.87ZM483.32,174.04c3.83,3.71,2.12,3.27,3.3-3.07,3.62-19.44,19.96-29.44,25.8-45.59,2.18-6.03,3.98-17.95.6-23.55-.46-.77-2.51-3.3-3.3-3.52-.05-.05-.1-.1-.15-.15-.25-.29-1.49-1.61-1.8-1.12,1.09,14.94-.05,21.85-8.4,34.04-7.82,11.43-16.34,17.87-18.9,32.55-1.08,6.23-1.57,6.15,2.85,10.42ZM518.34,107.9c-.75.18.19,5.11.22,6.07.6,14.89-3.8,24.54-12.15,36.29-3.48,4.9-8.46,10.5-11.4,15.75-1.57,2.81-8,15.93-2.77,16.57,9.66-11.18,32.84-29.97,39.52-41.77,2.25-3.97,2.75-7.37,2.25-12-.47-4.38-4.03-9.51-6.9-12.75-2.67-2.62-5.35-5.25-8.02-7.87-.25-.1-.5-.2-.75-.3Z"/>
    <g>
      <path class="cls-22" d="M509.57,98.15s.1.1.15.15c2,2.51,2.72,6.54,2.85,9.67,1.16,27.86-24.03,36.72-28.35,61.19-.29,1.67-.2,4.75-.9,4.87-4.42-4.28-3.93-4.2-2.85-10.42,2.55-14.68,11.08-21.12,18.9-32.55,8.35-12.2,9.49-19.1,8.4-34.04.31-.48,1.55.84,1.8,1.12Z"/>
      <path class="cls-19" d="M509.72,98.3s-.1-.1-.15-.15c.05.05.1.1.15.15Z"/>
      <path class="cls-20" d="M483.32,174.04c.7-.13.61-3.2.9-4.87,4.32-24.47,29.51-33.33,28.35-61.19-.13-3.14-.85-7.17-2.85-9.67.79.23,2.83,2.76,3.3,3.52,3.38,5.6,1.58,17.52-.6,23.55-5.83,16.16-22.18,26.15-25.8,45.59-1.18,6.34.53,6.78-3.3,3.07Z"/>
    </g>
    <path class="cls-22" d="M518.34,107.9c.25.1.5.2.75.3,2.67,2.62,5.35,5.25,8.02,7.87,2.87,3.24,6.42,8.37,6.9,12.75.5,4.63,0,8.02-2.25,12-6.68,11.8-29.86,30.59-39.52,41.77-5.23-.64,1.2-13.77,2.77-16.57,2.94-5.24,7.92-10.85,11.4-15.75,8.35-11.76,12.74-21.41,12.15-36.29-.04-.96-.97-5.9-.22-6.07Z"/>
    <g>
      <path class="cls-20" d="M465.02,155.29c1.22-.01.08-4.12,0-5.92-1.06-24.06,12.5-29.36,19.95-46.64,1.46-3.38,3.14-8.83,3.75-12.45.45-2.68,1.05-5.65-.3-5.47.17-.2.35-.4.52-.6,1.82-.49,1.63,1.23,1.57,2.47-.16,3.67-2.34,12.03-3.75,15.6-5.63,14.26-18.1,23.26-19.35,39.59-.44,5.68.76,12.7.6,13.35-.32.32-.65.65-.97.97-1.46.35-1.93-.83-2.02-.9Z"/>
      <path class="cls-19" d="M488.27,84.95s.1-.1.15-.15c-.05.05-.1.1-.15.15Z"/>
      <path class="cls-22" d="M465.02,155.29c-.17-.05-.35-.1-.52-.15-2.42-2.37-4.85-4.75-7.27-7.12-5.03-5.6-8.11-11.34-7.2-19.2,1.1-9.51,22.54-28.12,29.77-35.17,2.82-2.9,5.65-5.8,8.47-8.7.05-.05.1-.1.15-.15,1.35-.18.75,2.8.3,5.47-.61,3.62-2.29,9.06-3.75,12.45-7.45,17.28-21.01,22.58-19.95,46.64.08,1.8,1.22,5.91,0,5.92Z"/>
    </g>
    <g>
      <path class="cls-22" d="M497.87,85.85c.05.1.1.2.15.3,2.36,3.78,2.63,12.76,2.1,17.17-3.04,25.34-29.05,34.22-26.1,61.27-.67.38-2.13-1.29-2.55-1.87-1.96-2.74-2.3-6.61-2.1-9.9,1.14-18.79,19.71-30.43,25.2-47.69,2.5-7.85,1.55-12.03,1.65-19.95.27-.43,1.41.36,1.65.67Z"/>
      <path class="cls-19" d="M498.02,86.15c-.05-.1-.1-.2-.15-.3.05.1.1.2.15.3Z"/>
      <path class="cls-20" d="M474.02,164.59c-2.95-27.05,23.06-35.93,26.1-61.27.53-4.41.26-13.4-2.1-17.17,1.46.85,3.29,5.03,3.75,6.67,2.09,7.41-.19,17.04-3.45,23.85-5.57,11.62-17.58,21.62-21,34.04-.64,2.33-1.96,13.11-3.3,13.87Z"/>
    </g>
  </g>
</svg>